<?xml version="1.0" encoding="UTF-8"?>
<svg width="741px" height="1037px" viewBox="0 0 741 1037" version="1.1" xmlns="http://www.w3.org/2000/svg" xmlns:xlink="http://www.w3.org/1999/xlink">
    <!-- Generator: Sketch 64 (93537) - https://sketch.com -->
    <title>1-write</title>
    <desc>Created with Sketch.</desc>
    <defs>
        <path d="M72.5,0 L491,0 C530.764502,-0.0418969997 563,32.193601 563,71.958103 C563,71.9720727 562.999996,71.9860425 562.958091,71.9999878 L562.541909,787.000012 C562.476852,826.748117 530.248136,858.958079 490.5,859 L72,859 C32.235498,859.041897 4.86974701e-15,826.806399 0,787.041897 C-1.71079861e-18,787.027927 4.06569538e-06,787.013958 0.0419091896,787.000012 L0.45809081,71.9999878 C0.523148477,32.2518825 32.7518636,0.0419213938 72.5,0 Z" id="path-1"></path>
        <filter x="-25.3%" y="-14.8%" width="150.6%" height="133.2%" filterUnits="objectBoundingBox" id="filter-3">
            <feOffset dx="0" dy="15" in="SourceAlpha" result="shadowOffsetOuter1"></feOffset>
            <feGaussianBlur stdDeviation="45" in="shadowOffsetOuter1" result="shadowBlurOuter1"></feGaussianBlur>
            <feColorMatrix values="0 0 0 0 0.858823529   0 0 0 0 0.917647059   0 0 0 0 0.960784314  0 0 0 1 0" type="matrix" in="shadowBlurOuter1"></feColorMatrix>
        </filter>
        <path d="M8.84540376,1.45630338e-15 L123.154596,3.57364899e-16 C126.230336,-2.07639298e-16 127.345673,0.320248352 128.470118,0.921607809 C129.594562,1.52296727 130.477033,2.40543783 131.078392,3.52988225 C131.679752,4.65432667 132,5.76966417 132,8.84540376 L132,54.1545962 C132,57.2303358 131.679752,58.3456733 131.078392,59.4701178 C130.477033,60.5945622 129.594562,61.4770327 128.470118,62.0783922 C127.345673,62.6797516 126.230336,63 123.154596,63 L8.84540376,63 C5.76966417,63 4.65432667,62.6797516 3.52988225,62.0783922 C2.40543783,61.4770327 1.52296727,60.5945622 0.921607809,59.4701178 C0.320248352,58.3456733 1.38426198e-16,57.2303358 -2.38243266e-16,54.1545962 L2.38243266e-16,8.84540376 C-1.38426198e-16,5.76966417 0.320248352,4.65432667 0.921607809,3.52988225 C1.52296727,2.40543783 2.40543783,1.52296727 3.52988225,0.921607809 C4.65432667,0.320248352 5.76966417,-8.46154202e-16 8.84540376,1.45630338e-15 Z" id="path-4"></path>
        <filter x="-0.8%" y="-1.6%" width="101.5%" height="106.3%" filterUnits="objectBoundingBox" id="filter-5">
            <feOffset dx="0" dy="2" in="SourceAlpha" result="shadowOffsetOuter1"></feOffset>
            <feColorMatrix values="0 0 0 0 0.537254902   0 0 0 0 0.541176471   0 0 0 0 0.552941176  0 0 0 1 0" type="matrix" in="shadowOffsetOuter1"></feColorMatrix>
        </filter>
        <path d="M8.84540376,1.45630338e-15 L264.154596,3.57364899e-16 C267.230336,-2.07639298e-16 268.345673,0.320248352 269.470118,0.921607809 C270.594562,1.52296727 271.477033,2.40543783 272.078392,3.52988225 C272.679752,4.65432667 273,5.76966417 273,8.84540376 L273,54.1545962 C273,57.2303358 272.679752,58.3456733 272.078392,59.4701178 C271.477033,60.5945622 270.594562,61.4770327 269.470118,62.0783922 C268.345673,62.6797516 267.230336,63 264.154596,63 L8.84540376,63 C5.76966417,63 4.65432667,62.6797516 3.52988225,62.0783922 C2.40543783,61.4770327 1.52296727,60.5945622 0.921607809,59.4701178 C0.320248352,58.3456733 1.38426198e-16,57.2303358 -2.38243266e-16,54.1545962 L2.38243266e-16,8.84540376 C-1.38426198e-16,5.76966417 0.320248352,4.65432667 0.921607809,3.52988225 C1.52296727,2.40543783 2.40543783,1.52296727 3.52988225,0.921607809 C4.65432667,0.320248352 5.76966417,-8.46154202e-16 8.84540376,1.45630338e-15 Z" id="path-6"></path>
        <filter x="-0.4%" y="-1.6%" width="100.7%" height="106.3%" filterUnits="objectBoundingBox" id="filter-7">
            <feOffset dx="0" dy="2" in="SourceAlpha" result="shadowOffsetOuter1"></feOffset>
            <feColorMatrix values="0 0 0 0 0.537254902   0 0 0 0 0.541176471   0 0 0 0 0.552941176  0 0 0 1 0" type="matrix" in="shadowOffsetOuter1"></feColorMatrix>
        </filter>
        <path d="M8.84540376,1.45630338e-15 L121.654596,3.57364899e-16 C124.730336,-2.07639298e-16 125.845673,0.320248352 126.970118,0.921607809 C128.094562,1.52296727 128.977033,2.40543783 129.578392,3.52988225 C130.179752,4.65432667 130.5,5.76966417 130.5,8.84540376 L130.5,54.1545962 C130.5,57.2303358 130.179752,58.3456733 129.578392,59.4701178 C128.977033,60.5945622 128.094562,61.4770327 126.970118,62.0783922 C125.845673,62.6797516 124.730336,63 121.654596,63 L8.84540376,63 C5.76966417,63 4.65432667,62.6797516 3.52988225,62.0783922 C2.40543783,61.4770327 1.52296727,60.5945622 0.921607809,59.4701178 C0.320248352,58.3456733 1.38426198e-16,57.2303358 -2.38243266e-16,54.1545962 L2.38243266e-16,8.84540376 C-1.38426198e-16,5.76966417 0.320248352,4.65432667 0.921607809,3.52988225 C1.52296727,2.40543783 2.40543783,1.52296727 3.52988225,0.921607809 C4.65432667,0.320248352 5.76966417,-8.46154202e-16 8.84540376,1.45630338e-15 Z" id="path-8"></path>
        <filter x="-0.8%" y="-1.6%" width="101.5%" height="106.3%" filterUnits="objectBoundingBox" id="filter-9">
            <feOffset dx="0" dy="2" in="SourceAlpha" result="shadowOffsetOuter1"></feOffset>
            <feColorMatrix values="0 0 0 0 0.537254902   0 0 0 0 0.541176471   0 0 0 0 0.552941176  0 0 0 1 0" type="matrix" in="shadowOffsetOuter1"></feColorMatrix>
        </filter>
        <path d="M8.84540376,1.45630338e-15 L54.1545962,3.57364899e-16 C57.2303358,-2.07639298e-16 58.3456733,0.320248352 59.4701178,0.921607809 C60.5945622,1.52296727 61.4770327,2.40543783 62.0783922,3.52988225 C62.6797516,4.65432667 63,5.76966417 63,8.84540376 L63,54.1545962 C63,57.2303358 62.6797516,58.3456733 62.0783922,59.4701178 C61.4770327,60.5945622 60.5945622,61.4770327 59.4701178,62.0783922 C58.3456733,62.6797516 57.2303358,63 54.1545962,63 L8.84540376,63 C5.76966417,63 4.65432667,62.6797516 3.52988225,62.0783922 C2.40543783,61.4770327 1.52296727,60.5945622 0.921607809,59.4701178 C0.320248352,58.3456733 -9.15367301e-16,57.2303358 1.57542501e-15,54.1545962 L2.38243266e-16,8.84540376 C-1.38426198e-16,5.76966417 0.320248352,4.65432667 0.921607809,3.52988225 C1.52296727,2.40543783 2.40543783,1.52296727 3.52988225,0.921607809 C4.65432667,0.320248352 5.76966417,-8.46154202e-16 8.84540376,1.45630338e-15 Z" id="path-10"></path>
        <filter x="-1.6%" y="-1.6%" width="103.2%" height="106.3%" filterUnits="objectBoundingBox" id="filter-11">
            <feOffset dx="0" dy="2" in="SourceAlpha" result="shadowOffsetOuter1"></feOffset>
            <feColorMatrix values="0 0 0 0 0.537254902   0 0 0 0 0.541176471   0 0 0 0 0.552941176  0 0 0 1 0" type="matrix" in="shadowOffsetOuter1"></feColorMatrix>
        </filter>
        <path d="M8.84540376,1.45630338e-15 L54.1545962,3.57364899e-16 C57.2303358,-2.07639298e-16 58.3456733,0.320248352 59.4701178,0.921607809 C60.5945622,1.52296727 61.4770327,2.40543783 62.0783922,3.52988225 C62.6797516,4.65432667 63,5.76966417 63,8.84540376 L63,54.1545962 C63,57.2303358 62.6797516,58.3456733 62.0783922,59.4701178 C61.4770327,60.5945622 60.5945622,61.4770327 59.4701178,62.0783922 C58.3456733,62.6797516 57.2303358,63 54.1545962,63 L8.84540376,63 C5.76966417,63 4.65432667,62.6797516 3.52988225,62.0783922 C2.40543783,61.4770327 1.52296727,60.5945622 0.921607809,59.4701178 C0.320248352,58.3456733 -9.15367301e-16,57.2303358 1.57542501e-15,54.1545962 L2.38243266e-16,8.84540376 C-1.38426198e-16,5.76966417 0.320248352,4.65432667 0.921607809,3.52988225 C1.52296727,2.40543783 2.40543783,1.52296727 3.52988225,0.921607809 C4.65432667,0.320248352 5.76966417,-8.46154202e-16 8.84540376,1.45630338e-15 Z" id="path-12"></path>
        <filter x="-1.6%" y="-1.6%" width="103.2%" height="106.3%" filterUnits="objectBoundingBox" id="filter-13">
            <feOffset dx="0" dy="2" in="SourceAlpha" result="shadowOffsetOuter1"></feOffset>
            <feColorMatrix values="0 0 0 0 0.537254902   0 0 0 0 0.541176471   0 0 0 0 0.552941176  0 0 0 1 0" type="matrix" in="shadowOffsetOuter1"></feColorMatrix>
        </filter>
        <path d="M8.84540376,1.45630338e-15 L39.1545962,3.57364899e-16 C42.2303358,-2.07639298e-16 43.3456733,0.320248352 44.4701178,0.921607809 C45.5945622,1.52296727 46.4770327,2.40543783 47.0783922,3.52988225 C47.6797516,4.65432667 48,5.76966417 48,8.84540376 L48,54.1545962 C48,57.2303358 47.6797516,58.3456733 47.0783922,59.4701178 C46.4770327,60.5945622 45.5945622,61.4770327 44.4701178,62.0783922 C43.3456733,62.6797516 42.2303358,63 39.1545962,63 L8.84540376,63 C5.76966417,63 4.65432667,62.6797516 3.52988225,62.0783922 C2.40543783,61.4770327 1.52296727,60.5945622 0.921607809,59.4701178 C0.320248352,58.3456733 1.38426198e-16,57.2303358 -2.38243266e-16,54.1545962 L2.38243266e-16,8.84540376 C-1.38426198e-16,5.76966417 0.320248352,4.65432667 0.921607809,3.52988225 C1.52296727,2.40543783 2.40543783,1.52296727 3.52988225,0.921607809 C4.65432667,0.320248352 5.76966417,-8.46154202e-16 8.84540376,1.45630338e-15 Z" id="path-14"></path>
        <filter x="-2.1%" y="-1.6%" width="104.2%" height="106.3%" filterUnits="objectBoundingBox" id="filter-15">
            <feOffset dx="0" dy="2" in="SourceAlpha" result="shadowOffsetOuter1"></feOffset>
            <feColorMatrix values="0 0 0 0 0.537254902   0 0 0 0 0.541176471   0 0 0 0 0.552941176  0 0 0 1 0" type="matrix" in="shadowOffsetOuter1"></feColorMatrix>
        </filter>
        <path d="M8.84540376,1.45630338e-15 L39.1545962,3.57364899e-16 C42.2303358,-2.07639298e-16 43.3456733,0.320248352 44.4701178,0.921607809 C45.5945622,1.52296727 46.4770327,2.40543783 47.0783922,3.52988225 C47.6797516,4.65432667 48,5.76966417 48,8.84540376 L48,54.1545962 C48,57.2303358 47.6797516,58.3456733 47.0783922,59.4701178 C46.4770327,60.5945622 45.5945622,61.4770327 44.4701178,62.0783922 C43.3456733,62.6797516 42.2303358,63 39.1545962,63 L8.84540376,63 C5.76966417,63 4.65432667,62.6797516 3.52988225,62.0783922 C2.40543783,61.4770327 1.52296727,60.5945622 0.921607809,59.4701178 C0.320248352,58.3456733 1.38426198e-16,57.2303358 -2.38243266e-16,54.1545962 L2.38243266e-16,8.84540376 C-1.38426198e-16,5.76966417 0.320248352,4.65432667 0.921607809,3.52988225 C1.52296727,2.40543783 2.40543783,1.52296727 3.52988225,0.921607809 C4.65432667,0.320248352 5.76966417,-8.46154202e-16 8.84540376,1.45630338e-15 Z" id="path-16"></path>
        <filter x="-2.1%" y="-1.6%" width="104.2%" height="106.3%" filterUnits="objectBoundingBox" id="filter-17">
            <feOffset dx="0" dy="2" in="SourceAlpha" result="shadowOffsetOuter1"></feOffset>
            <feColorMatrix values="0 0 0 0 0.537254902   0 0 0 0 0.541176471   0 0 0 0 0.552941176  0 0 0 1 0" type="matrix" in="shadowOffsetOuter1"></feColorMatrix>
        </filter>
        <path d="M8.84540376,1.45630338e-15 L39.1545962,3.57364899e-16 C42.2303358,-2.07639298e-16 43.3456733,0.320248352 44.4701178,0.921607809 C45.5945622,1.52296727 46.4770327,2.40543783 47.0783922,3.52988225 C47.6797516,4.65432667 48,5.76966417 48,8.84540376 L48,54.1545962 C48,57.2303358 47.6797516,58.3456733 47.0783922,59.4701178 C46.4770327,60.5945622 45.5945622,61.4770327 44.4701178,62.0783922 C43.3456733,62.6797516 42.2303358,63 39.1545962,63 L8.84540376,63 C5.76966417,63 4.65432667,62.6797516 3.52988225,62.0783922 C2.40543783,61.4770327 1.52296727,60.5945622 0.921607809,59.4701178 C0.320248352,58.3456733 1.38426198e-16,57.2303358 -2.38243266e-16,54.1545962 L2.38243266e-16,8.84540376 C-1.38426198e-16,5.76966417 0.320248352,4.65432667 0.921607809,3.52988225 C1.52296727,2.40543783 2.40543783,1.52296727 3.52988225,0.921607809 C4.65432667,0.320248352 5.76966417,-8.46154202e-16 8.84540376,1.45630338e-15 Z" id="path-18"></path>
        <filter x="-2.1%" y="-1.6%" width="104.2%" height="106.3%" filterUnits="objectBoundingBox" id="filter-19">
            <feOffset dx="0" dy="2" in="SourceAlpha" result="shadowOffsetOuter1"></feOffset>
            <feColorMatrix values="0 0 0 0 0.537254902   0 0 0 0 0.541176471   0 0 0 0 0.552941176  0 0 0 1 0" type="matrix" in="shadowOffsetOuter1"></feColorMatrix>
        </filter>
        <path d="M8.84540376,1.45630338e-15 L39.1545962,3.57364899e-16 C42.2303358,-2.07639298e-16 43.3456733,0.320248352 44.4701178,0.921607809 C45.5945622,1.52296727 46.4770327,2.40543783 47.0783922,3.52988225 C47.6797516,4.65432667 48,5.76966417 48,8.84540376 L48,54.1545962 C48,57.2303358 47.6797516,58.3456733 47.0783922,59.4701178 C46.4770327,60.5945622 45.5945622,61.4770327 44.4701178,62.0783922 C43.3456733,62.6797516 42.2303358,63 39.1545962,63 L8.84540376,63 C5.76966417,63 4.65432667,62.6797516 3.52988225,62.0783922 C2.40543783,61.4770327 1.52296727,60.5945622 0.921607809,59.4701178 C0.320248352,58.3456733 1.38426198e-16,57.2303358 -2.38243266e-16,54.1545962 L2.38243266e-16,8.84540376 C-1.38426198e-16,5.76966417 0.320248352,4.65432667 0.921607809,3.52988225 C1.52296727,2.40543783 2.40543783,1.52296727 3.52988225,0.921607809 C4.65432667,0.320248352 5.76966417,-8.46154202e-16 8.84540376,1.45630338e-15 Z" id="path-20"></path>
        <filter x="-2.1%" y="-1.6%" width="104.2%" height="106.3%" filterUnits="objectBoundingBox" id="filter-21">
            <feOffset dx="0" dy="2" in="SourceAlpha" result="shadowOffsetOuter1"></feOffset>
            <feColorMatrix values="0 0 0 0 0.537254902   0 0 0 0 0.541176471   0 0 0 0 0.552941176  0 0 0 1 0" type="matrix" in="shadowOffsetOuter1"></feColorMatrix>
        </filter>
        <path d="M8.84540376,1.45630338e-15 L39.1545962,3.57364899e-16 C42.2303358,-2.07639298e-16 43.3456733,0.320248352 44.4701178,0.921607809 C45.5945622,1.52296727 46.4770327,2.40543783 47.0783922,3.52988225 C47.6797516,4.65432667 48,5.76966417 48,8.84540376 L48,54.1545962 C48,57.2303358 47.6797516,58.3456733 47.0783922,59.4701178 C46.4770327,60.5945622 45.5945622,61.4770327 44.4701178,62.0783922 C43.3456733,62.6797516 42.2303358,63 39.1545962,63 L8.84540376,63 C5.76966417,63 4.65432667,62.6797516 3.52988225,62.0783922 C2.40543783,61.4770327 1.52296727,60.5945622 0.921607809,59.4701178 C0.320248352,58.3456733 1.38426198e-16,57.2303358 -2.38243266e-16,54.1545962 L2.38243266e-16,8.84540376 C-1.38426198e-16,5.76966417 0.320248352,4.65432667 0.921607809,3.52988225 C1.52296727,2.40543783 2.40543783,1.52296727 3.52988225,0.921607809 C4.65432667,0.320248352 5.76966417,-8.46154202e-16 8.84540376,1.45630338e-15 Z" id="path-22"></path>
        <filter x="-2.1%" y="-1.6%" width="104.2%" height="106.3%" filterUnits="objectBoundingBox" id="filter-23">
            <feOffset dx="0" dy="2" in="SourceAlpha" result="shadowOffsetOuter1"></feOffset>
            <feColorMatrix values="0 0 0 0 0.537254902   0 0 0 0 0.541176471   0 0 0 0 0.552941176  0 0 0 1 0" type="matrix" in="shadowOffsetOuter1"></feColorMatrix>
        </filter>
        <path d="M8.84540376,1.45630338e-15 L39.1545962,3.57364899e-16 C42.2303358,-2.07639298e-16 43.3456733,0.320248352 44.4701178,0.921607809 C45.5945622,1.52296727 46.4770327,2.40543783 47.0783922,3.52988225 C47.6797516,4.65432667 48,5.76966417 48,8.84540376 L48,54.1545962 C48,57.2303358 47.6797516,58.3456733 47.0783922,59.4701178 C46.4770327,60.5945622 45.5945622,61.4770327 44.4701178,62.0783922 C43.3456733,62.6797516 42.2303358,63 39.1545962,63 L8.84540376,63 C5.76966417,63 4.65432667,62.6797516 3.52988225,62.0783922 C2.40543783,61.4770327 1.52296727,60.5945622 0.921607809,59.4701178 C0.320248352,58.3456733 1.38426198e-16,57.2303358 -2.38243266e-16,54.1545962 L2.38243266e-16,8.84540376 C-1.38426198e-16,5.76966417 0.320248352,4.65432667 0.921607809,3.52988225 C1.52296727,2.40543783 2.40543783,1.52296727 3.52988225,0.921607809 C4.65432667,0.320248352 5.76966417,-8.46154202e-16 8.84540376,1.45630338e-15 Z" id="path-24"></path>
        <filter x="-2.1%" y="-1.6%" width="104.2%" height="106.3%" filterUnits="objectBoundingBox" id="filter-25">
            <feOffset dx="0" dy="2" in="SourceAlpha" result="shadowOffsetOuter1"></feOffset>
            <feColorMatrix values="0 0 0 0 0.537254902   0 0 0 0 0.541176471   0 0 0 0 0.552941176  0 0 0 1 0" type="matrix" in="shadowOffsetOuter1"></feColorMatrix>
        </filter>
        <path d="M8.84540376,1.45630338e-15 L39.1545962,3.57364899e-16 C42.2303358,-2.07639298e-16 43.3456733,0.320248352 44.4701178,0.921607809 C45.5945622,1.52296727 46.4770327,2.40543783 47.0783922,3.52988225 C47.6797516,4.65432667 48,5.76966417 48,8.84540376 L48,54.1545962 C48,57.2303358 47.6797516,58.3456733 47.0783922,59.4701178 C46.4770327,60.5945622 45.5945622,61.4770327 44.4701178,62.0783922 C43.3456733,62.6797516 42.2303358,63 39.1545962,63 L8.84540376,63 C5.76966417,63 4.65432667,62.6797516 3.52988225,62.0783922 C2.40543783,61.4770327 1.52296727,60.5945622 0.921607809,59.4701178 C0.320248352,58.3456733 1.38426198e-16,57.2303358 -2.38243266e-16,54.1545962 L2.38243266e-16,8.84540376 C-1.38426198e-16,5.76966417 0.320248352,4.65432667 0.921607809,3.52988225 C1.52296727,2.40543783 2.40543783,1.52296727 3.52988225,0.921607809 C4.65432667,0.320248352 5.76966417,-8.46154202e-16 8.84540376,1.45630338e-15 Z" id="path-26"></path>
        <filter x="-2.1%" y="-1.6%" width="104.2%" height="106.3%" filterUnits="objectBoundingBox" id="filter-27">
            <feOffset dx="0" dy="2" in="SourceAlpha" result="shadowOffsetOuter1"></feOffset>
            <feColorMatrix values="0 0 0 0 0.537254902   0 0 0 0 0.541176471   0 0 0 0 0.552941176  0 0 0 1 0" type="matrix" in="shadowOffsetOuter1"></feColorMatrix>
        </filter>
        <path d="M8.84540376,1.45630338e-15 L39.1545962,3.57364899e-16 C42.2303358,-2.07639298e-16 43.3456733,0.320248352 44.4701178,0.921607809 C45.5945622,1.52296727 46.4770327,2.40543783 47.0783922,3.52988225 C47.6797516,4.65432667 48,5.76966417 48,8.84540376 L48,54.1545962 C48,57.2303358 47.6797516,58.3456733 47.0783922,59.4701178 C46.4770327,60.5945622 45.5945622,61.4770327 44.4701178,62.0783922 C43.3456733,62.6797516 42.2303358,63 39.1545962,63 L8.84540376,63 C5.76966417,63 4.65432667,62.6797516 3.52988225,62.0783922 C2.40543783,61.4770327 1.52296727,60.5945622 0.921607809,59.4701178 C0.320248352,58.3456733 1.38426198e-16,57.2303358 -2.38243266e-16,54.1545962 L2.38243266e-16,8.84540376 C-1.38426198e-16,5.76966417 0.320248352,4.65432667 0.921607809,3.52988225 C1.52296727,2.40543783 2.40543783,1.52296727 3.52988225,0.921607809 C4.65432667,0.320248352 5.76966417,-8.46154202e-16 8.84540376,1.45630338e-15 Z" id="path-28"></path>
        <filter x="-2.1%" y="-1.6%" width="104.2%" height="106.3%" filterUnits="objectBoundingBox" id="filter-29">
            <feOffset dx="0" dy="2" in="SourceAlpha" result="shadowOffsetOuter1"></feOffset>
            <feColorMatrix values="0 0 0 0 0.537254902   0 0 0 0 0.541176471   0 0 0 0 0.552941176  0 0 0 1 0" type="matrix" in="shadowOffsetOuter1"></feColorMatrix>
        </filter>
        <path d="M8.84540376,1.45630338e-15 L39.1545962,3.57364899e-16 C42.2303358,-2.07639298e-16 43.3456733,0.320248352 44.4701178,0.921607809 C45.5945622,1.52296727 46.4770327,2.40543783 47.0783922,3.52988225 C47.6797516,4.65432667 48,5.76966417 48,8.84540376 L48,54.1545962 C48,57.2303358 47.6797516,58.3456733 47.0783922,59.4701178 C46.4770327,60.5945622 45.5945622,61.4770327 44.4701178,62.0783922 C43.3456733,62.6797516 42.2303358,63 39.1545962,63 L8.84540376,63 C5.76966417,63 4.65432667,62.6797516 3.52988225,62.0783922 C2.40543783,61.4770327 1.52296727,60.5945622 0.921607809,59.4701178 C0.320248352,58.3456733 1.38426198e-16,57.2303358 -2.38243266e-16,54.1545962 L2.38243266e-16,8.84540376 C-1.38426198e-16,5.76966417 0.320248352,4.65432667 0.921607809,3.52988225 C1.52296727,2.40543783 2.40543783,1.52296727 3.52988225,0.921607809 C4.65432667,0.320248352 5.76966417,-8.46154202e-16 8.84540376,1.45630338e-15 Z" id="path-30"></path>
        <filter x="-2.1%" y="-1.6%" width="104.2%" height="106.3%" filterUnits="objectBoundingBox" id="filter-31">
            <feOffset dx="0" dy="2" in="SourceAlpha" result="shadowOffsetOuter1"></feOffset>
            <feColorMatrix values="0 0 0 0 0.537254902   0 0 0 0 0.541176471   0 0 0 0 0.552941176  0 0 0 1 0" type="matrix" in="shadowOffsetOuter1"></feColorMatrix>
        </filter>
        <path d="M8.84540376,1.45630338e-15 L39.1545962,3.57364899e-16 C42.2303358,-2.07639298e-16 43.3456733,0.320248352 44.4701178,0.921607809 C45.5945622,1.52296727 46.4770327,2.40543783 47.0783922,3.52988225 C47.6797516,4.65432667 48,5.76966417 48,8.84540376 L48,54.1545962 C48,57.2303358 47.6797516,58.3456733 47.0783922,59.4701178 C46.4770327,60.5945622 45.5945622,61.4770327 44.4701178,62.0783922 C43.3456733,62.6797516 42.2303358,63 39.1545962,63 L8.84540376,63 C5.76966417,63 4.65432667,62.6797516 3.52988225,62.0783922 C2.40543783,61.4770327 1.52296727,60.5945622 0.921607809,59.4701178 C0.320248352,58.3456733 1.38426198e-16,57.2303358 -2.38243266e-16,54.1545962 L2.38243266e-16,8.84540376 C-1.38426198e-16,5.76966417 0.320248352,4.65432667 0.921607809,3.52988225 C1.52296727,2.40543783 2.40543783,1.52296727 3.52988225,0.921607809 C4.65432667,0.320248352 5.76966417,-8.46154202e-16 8.84540376,1.45630338e-15 Z" id="path-32"></path>
        <filter x="-2.1%" y="-1.6%" width="104.2%" height="106.3%" filterUnits="objectBoundingBox" id="filter-33">
            <feOffset dx="0" dy="2" in="SourceAlpha" result="shadowOffsetOuter1"></feOffset>
            <feColorMatrix values="0 0 0 0 0.537254902   0 0 0 0 0.541176471   0 0 0 0 0.552941176  0 0 0 1 0" type="matrix" in="shadowOffsetOuter1"></feColorMatrix>
        </filter>
        <path d="M8.84540376,1.45630338e-15 L39.1545962,3.57364899e-16 C42.2303358,-2.07639298e-16 43.3456733,0.320248352 44.4701178,0.921607809 C45.5945622,1.52296727 46.4770327,2.40543783 47.0783922,3.52988225 C47.6797516,4.65432667 48,5.76966417 48,8.84540376 L48,54.1545962 C48,57.2303358 47.6797516,58.3456733 47.0783922,59.4701178 C46.4770327,60.5945622 45.5945622,61.4770327 44.4701178,62.0783922 C43.3456733,62.6797516 42.2303358,63 39.1545962,63 L8.84540376,63 C5.76966417,63 4.65432667,62.6797516 3.52988225,62.0783922 C2.40543783,61.4770327 1.52296727,60.5945622 0.921607809,59.4701178 C0.320248352,58.3456733 1.38426198e-16,57.2303358 -2.38243266e-16,54.1545962 L2.38243266e-16,8.84540376 C-1.38426198e-16,5.76966417 0.320248352,4.65432667 0.921607809,3.52988225 C1.52296727,2.40543783 2.40543783,1.52296727 3.52988225,0.921607809 C4.65432667,0.320248352 5.76966417,-8.46154202e-16 8.84540376,1.45630338e-15 Z" id="path-34"></path>
        <filter x="-2.1%" y="-1.6%" width="104.2%" height="106.3%" filterUnits="objectBoundingBox" id="filter-35">
            <feOffset dx="0" dy="2" in="SourceAlpha" result="shadowOffsetOuter1"></feOffset>
            <feColorMatrix values="0 0 0 0 0.537254902   0 0 0 0 0.541176471   0 0 0 0 0.552941176  0 0 0 1 0" type="matrix" in="shadowOffsetOuter1"></feColorMatrix>
        </filter>
        <path d="M8.84540376,1.45630338e-15 L39.1545962,3.57364899e-16 C42.2303358,-2.07639298e-16 43.3456733,0.320248352 44.4701178,0.921607809 C45.5945622,1.52296727 46.4770327,2.40543783 47.0783922,3.52988225 C47.6797516,4.65432667 48,5.76966417 48,8.84540376 L48,54.1545962 C48,57.2303358 47.6797516,58.3456733 47.0783922,59.4701178 C46.4770327,60.5945622 45.5945622,61.4770327 44.4701178,62.0783922 C43.3456733,62.6797516 42.2303358,63 39.1545962,63 L8.84540376,63 C5.76966417,63 4.65432667,62.6797516 3.52988225,62.0783922 C2.40543783,61.4770327 1.52296727,60.5945622 0.921607809,59.4701178 C0.320248352,58.3456733 1.38426198e-16,57.2303358 -2.38243266e-16,54.1545962 L2.38243266e-16,8.84540376 C-1.38426198e-16,5.76966417 0.320248352,4.65432667 0.921607809,3.52988225 C1.52296727,2.40543783 2.40543783,1.52296727 3.52988225,0.921607809 C4.65432667,0.320248352 5.76966417,-8.46154202e-16 8.84540376,1.45630338e-15 Z" id="path-36"></path>
        <filter x="-2.1%" y="-1.6%" width="104.2%" height="106.3%" filterUnits="objectBoundingBox" id="filter-37">
            <feOffset dx="0" dy="2" in="SourceAlpha" result="shadowOffsetOuter1"></feOffset>
            <feColorMatrix values="0 0 0 0 0.537254902   0 0 0 0 0.541176471   0 0 0 0 0.552941176  0 0 0 1 0" type="matrix" in="shadowOffsetOuter1"></feColorMatrix>
        </filter>
        <path d="M8.84540376,1.45630338e-15 L39.1545962,3.57364899e-16 C42.2303358,-2.07639298e-16 43.3456733,0.320248352 44.4701178,0.921607809 C45.5945622,1.52296727 46.4770327,2.40543783 47.0783922,3.52988225 C47.6797516,4.65432667 48,5.76966417 48,8.84540376 L48,54.1545962 C48,57.2303358 47.6797516,58.3456733 47.0783922,59.4701178 C46.4770327,60.5945622 45.5945622,61.4770327 44.4701178,62.0783922 C43.3456733,62.6797516 42.2303358,63 39.1545962,63 L8.84540376,63 C5.76966417,63 4.65432667,62.6797516 3.52988225,62.0783922 C2.40543783,61.4770327 1.52296727,60.5945622 0.921607809,59.4701178 C0.320248352,58.3456733 1.38426198e-16,57.2303358 -2.38243266e-16,54.1545962 L2.38243266e-16,8.84540376 C-1.38426198e-16,5.76966417 0.320248352,4.65432667 0.921607809,3.52988225 C1.52296727,2.40543783 2.40543783,1.52296727 3.52988225,0.921607809 C4.65432667,0.320248352 5.76966417,-8.46154202e-16 8.84540376,1.45630338e-15 Z" id="path-38"></path>
        <filter x="-2.1%" y="-1.6%" width="104.2%" height="106.3%" filterUnits="objectBoundingBox" id="filter-39">
            <feOffset dx="0" dy="2" in="SourceAlpha" result="shadowOffsetOuter1"></feOffset>
            <feColorMatrix values="0 0 0 0 0.537254902   0 0 0 0 0.541176471   0 0 0 0 0.552941176  0 0 0 1 0" type="matrix" in="shadowOffsetOuter1"></feColorMatrix>
        </filter>
        <path d="M8.84540376,1.45630338e-15 L39.1545962,3.57364899e-16 C42.2303358,-2.07639298e-16 43.3456733,0.320248352 44.4701178,0.921607809 C45.5945622,1.52296727 46.4770327,2.40543783 47.0783922,3.52988225 C47.6797516,4.65432667 48,5.76966417 48,8.84540376 L48,54.1545962 C48,57.2303358 47.6797516,58.3456733 47.0783922,59.4701178 C46.4770327,60.5945622 45.5945622,61.4770327 44.4701178,62.0783922 C43.3456733,62.6797516 42.2303358,63 39.1545962,63 L8.84540376,63 C5.76966417,63 4.65432667,62.6797516 3.52988225,62.0783922 C2.40543783,61.4770327 1.52296727,60.5945622 0.921607809,59.4701178 C0.320248352,58.3456733 1.38426198e-16,57.2303358 -2.38243266e-16,54.1545962 L2.38243266e-16,8.84540376 C-1.38426198e-16,5.76966417 0.320248352,4.65432667 0.921607809,3.52988225 C1.52296727,2.40543783 2.40543783,1.52296727 3.52988225,0.921607809 C4.65432667,0.320248352 5.76966417,-8.46154202e-16 8.84540376,1.45630338e-15 Z" id="path-40"></path>
        <filter x="-2.1%" y="-1.6%" width="104.2%" height="106.3%" filterUnits="objectBoundingBox" id="filter-41">
            <feOffset dx="0" dy="2" in="SourceAlpha" result="shadowOffsetOuter1"></feOffset>
            <feColorMatrix values="0 0 0 0 0.537254902   0 0 0 0 0.541176471   0 0 0 0 0.552941176  0 0 0 1 0" type="matrix" in="shadowOffsetOuter1"></feColorMatrix>
        </filter>
        <path d="M8.84540376,1.45630338e-15 L39.1545962,3.57364899e-16 C42.2303358,-2.07639298e-16 43.3456733,0.320248352 44.4701178,0.921607809 C45.5945622,1.52296727 46.4770327,2.40543783 47.0783922,3.52988225 C47.6797516,4.65432667 48,5.76966417 48,8.84540376 L48,54.1545962 C48,57.2303358 47.6797516,58.3456733 47.0783922,59.4701178 C46.4770327,60.5945622 45.5945622,61.4770327 44.4701178,62.0783922 C43.3456733,62.6797516 42.2303358,63 39.1545962,63 L8.84540376,63 C5.76966417,63 4.65432667,62.6797516 3.52988225,62.0783922 C2.40543783,61.4770327 1.52296727,60.5945622 0.921607809,59.4701178 C0.320248352,58.3456733 1.38426198e-16,57.2303358 -2.38243266e-16,54.1545962 L2.38243266e-16,8.84540376 C-1.38426198e-16,5.76966417 0.320248352,4.65432667 0.921607809,3.52988225 C1.52296727,2.40543783 2.40543783,1.52296727 3.52988225,0.921607809 C4.65432667,0.320248352 5.76966417,-8.46154202e-16 8.84540376,1.45630338e-15 Z" id="path-42"></path>
        <filter x="-2.1%" y="-1.6%" width="104.2%" height="106.3%" filterUnits="objectBoundingBox" id="filter-43">
            <feOffset dx="0" dy="2" in="SourceAlpha" result="shadowOffsetOuter1"></feOffset>
            <feColorMatrix values="0 0 0 0 0.537254902   0 0 0 0 0.541176471   0 0 0 0 0.552941176  0 0 0 1 0" type="matrix" in="shadowOffsetOuter1"></feColorMatrix>
        </filter>
        <path d="M8.84540376,1.45630338e-15 L39.1545962,3.57364899e-16 C42.2303358,-2.07639298e-16 43.3456733,0.320248352 44.4701178,0.921607809 C45.5945622,1.52296727 46.4770327,2.40543783 47.0783922,3.52988225 C47.6797516,4.65432667 48,5.76966417 48,8.84540376 L48,54.1545962 C48,57.2303358 47.6797516,58.3456733 47.0783922,59.4701178 C46.4770327,60.5945622 45.5945622,61.4770327 44.4701178,62.0783922 C43.3456733,62.6797516 42.2303358,63 39.1545962,63 L8.84540376,63 C5.76966417,63 4.65432667,62.6797516 3.52988225,62.0783922 C2.40543783,61.4770327 1.52296727,60.5945622 0.921607809,59.4701178 C0.320248352,58.3456733 1.38426198e-16,57.2303358 -2.38243266e-16,54.1545962 L2.38243266e-16,8.84540376 C-1.38426198e-16,5.76966417 0.320248352,4.65432667 0.921607809,3.52988225 C1.52296727,2.40543783 2.40543783,1.52296727 3.52988225,0.921607809 C4.65432667,0.320248352 5.76966417,-8.46154202e-16 8.84540376,1.45630338e-15 Z" id="path-44"></path>
        <filter x="-2.1%" y="-1.6%" width="104.2%" height="106.3%" filterUnits="objectBoundingBox" id="filter-45">
            <feOffset dx="0" dy="2" in="SourceAlpha" result="shadowOffsetOuter1"></feOffset>
            <feColorMatrix values="0 0 0 0 0.537254902   0 0 0 0 0.541176471   0 0 0 0 0.552941176  0 0 0 1 0" type="matrix" in="shadowOffsetOuter1"></feColorMatrix>
        </filter>
        <path d="M8.84540376,1.45630338e-15 L39.1545962,3.57364899e-16 C42.2303358,-2.07639298e-16 43.3456733,0.320248352 44.4701178,0.921607809 C45.5945622,1.52296727 46.4770327,2.40543783 47.0783922,3.52988225 C47.6797516,4.65432667 48,5.76966417 48,8.84540376 L48,54.1545962 C48,57.2303358 47.6797516,58.3456733 47.0783922,59.4701178 C46.4770327,60.5945622 45.5945622,61.4770327 44.4701178,62.0783922 C43.3456733,62.6797516 42.2303358,63 39.1545962,63 L8.84540376,63 C5.76966417,63 4.65432667,62.6797516 3.52988225,62.0783922 C2.40543783,61.4770327 1.52296727,60.5945622 0.921607809,59.4701178 C0.320248352,58.3456733 1.38426198e-16,57.2303358 -2.38243266e-16,54.1545962 L2.38243266e-16,8.84540376 C-1.38426198e-16,5.76966417 0.320248352,4.65432667 0.921607809,3.52988225 C1.52296727,2.40543783 2.40543783,1.52296727 3.52988225,0.921607809 C4.65432667,0.320248352 5.76966417,-8.46154202e-16 8.84540376,1.45630338e-15 Z" id="path-46"></path>
        <filter x="-2.1%" y="-1.6%" width="104.2%" height="106.3%" filterUnits="objectBoundingBox" id="filter-47">
            <feOffset dx="0" dy="2" in="SourceAlpha" result="shadowOffsetOuter1"></feOffset>
            <feColorMatrix values="0 0 0 0 0.537254902   0 0 0 0 0.541176471   0 0 0 0 0.552941176  0 0 0 1 0" type="matrix" in="shadowOffsetOuter1"></feColorMatrix>
        </filter>
        <path d="M8.84540376,1.45630338e-15 L39.1545962,3.57364899e-16 C42.2303358,-2.07639298e-16 43.3456733,0.320248352 44.4701178,0.921607809 C45.5945622,1.52296727 46.4770327,2.40543783 47.0783922,3.52988225 C47.6797516,4.65432667 48,5.76966417 48,8.84540376 L48,54.1545962 C48,57.2303358 47.6797516,58.3456733 47.0783922,59.4701178 C46.4770327,60.5945622 45.5945622,61.4770327 44.4701178,62.0783922 C43.3456733,62.6797516 42.2303358,63 39.1545962,63 L8.84540376,63 C5.76966417,63 4.65432667,62.6797516 3.52988225,62.0783922 C2.40543783,61.4770327 1.52296727,60.5945622 0.921607809,59.4701178 C0.320248352,58.3456733 1.38426198e-16,57.2303358 -2.38243266e-16,54.1545962 L2.38243266e-16,8.84540376 C-1.38426198e-16,5.76966417 0.320248352,4.65432667 0.921607809,3.52988225 C1.52296727,2.40543783 2.40543783,1.52296727 3.52988225,0.921607809 C4.65432667,0.320248352 5.76966417,-8.46154202e-16 8.84540376,1.45630338e-15 Z" id="path-48"></path>
        <filter x="-2.1%" y="-1.6%" width="104.2%" height="106.3%" filterUnits="objectBoundingBox" id="filter-49">
            <feOffset dx="0" dy="2" in="SourceAlpha" result="shadowOffsetOuter1"></feOffset>
            <feColorMatrix values="0 0 0 0 0.537254902   0 0 0 0 0.541176471   0 0 0 0 0.552941176  0 0 0 1 0" type="matrix" in="shadowOffsetOuter1"></feColorMatrix>
        </filter>
        <path d="M8.84540376,1.45630338e-15 L39.1545962,3.57364899e-16 C42.2303358,-2.07639298e-16 43.3456733,0.320248352 44.4701178,0.921607809 C45.5945622,1.52296727 46.4770327,2.40543783 47.0783922,3.52988225 C47.6797516,4.65432667 48,5.76966417 48,8.84540376 L48,54.1545962 C48,57.2303358 47.6797516,58.3456733 47.0783922,59.4701178 C46.4770327,60.5945622 45.5945622,61.4770327 44.4701178,62.0783922 C43.3456733,62.6797516 42.2303358,63 39.1545962,63 L8.84540376,63 C5.76966417,63 4.65432667,62.6797516 3.52988225,62.0783922 C2.40543783,61.4770327 1.52296727,60.5945622 0.921607809,59.4701178 C0.320248352,58.3456733 1.38426198e-16,57.2303358 -2.38243266e-16,54.1545962 L2.38243266e-16,8.84540376 C-1.38426198e-16,5.76966417 0.320248352,4.65432667 0.921607809,3.52988225 C1.52296727,2.40543783 2.40543783,1.52296727 3.52988225,0.921607809 C4.65432667,0.320248352 5.76966417,-8.46154202e-16 8.84540376,1.45630338e-15 Z" id="path-50"></path>
        <filter x="-2.1%" y="-1.6%" width="104.2%" height="106.3%" filterUnits="objectBoundingBox" id="filter-51">
            <feOffset dx="0" dy="2" in="SourceAlpha" result="shadowOffsetOuter1"></feOffset>
            <feColorMatrix values="0 0 0 0 0.537254902   0 0 0 0 0.541176471   0 0 0 0 0.552941176  0 0 0 1 0" type="matrix" in="shadowOffsetOuter1"></feColorMatrix>
        </filter>
        <path d="M8.84540376,1.45630338e-15 L39.1545962,3.57364899e-16 C42.2303358,-2.07639298e-16 43.3456733,0.320248352 44.4701178,0.921607809 C45.5945622,1.52296727 46.4770327,2.40543783 47.0783922,3.52988225 C47.6797516,4.65432667 48,5.76966417 48,8.84540376 L48,54.1545962 C48,57.2303358 47.6797516,58.3456733 47.0783922,59.4701178 C46.4770327,60.5945622 45.5945622,61.4770327 44.4701178,62.0783922 C43.3456733,62.6797516 42.2303358,63 39.1545962,63 L8.84540376,63 C5.76966417,63 4.65432667,62.6797516 3.52988225,62.0783922 C2.40543783,61.4770327 1.52296727,60.5945622 0.921607809,59.4701178 C0.320248352,58.3456733 1.38426198e-16,57.2303358 -2.38243266e-16,54.1545962 L2.38243266e-16,8.84540376 C-1.38426198e-16,5.76966417 0.320248352,4.65432667 0.921607809,3.52988225 C1.52296727,2.40543783 2.40543783,1.52296727 3.52988225,0.921607809 C4.65432667,0.320248352 5.76966417,-8.46154202e-16 8.84540376,1.45630338e-15 Z" id="path-52"></path>
        <filter x="-2.1%" y="-1.6%" width="104.2%" height="106.3%" filterUnits="objectBoundingBox" id="filter-53">
            <feOffset dx="0" dy="2" in="SourceAlpha" result="shadowOffsetOuter1"></feOffset>
            <feColorMatrix values="0 0 0 0 0.537254902   0 0 0 0 0.541176471   0 0 0 0 0.552941176  0 0 0 1 0" type="matrix" in="shadowOffsetOuter1"></feColorMatrix>
        </filter>
        <path d="M8.84540376,1.45630338e-15 L39.1545962,3.57364899e-16 C42.2303358,-2.07639298e-16 43.3456733,0.320248352 44.4701178,0.921607809 C45.5945622,1.52296727 46.4770327,2.40543783 47.0783922,3.52988225 C47.6797516,4.65432667 48,5.76966417 48,8.84540376 L48,54.1545962 C48,57.2303358 47.6797516,58.3456733 47.0783922,59.4701178 C46.4770327,60.5945622 45.5945622,61.4770327 44.4701178,62.0783922 C43.3456733,62.6797516 42.2303358,63 39.1545962,63 L8.84540376,63 C5.76966417,63 4.65432667,62.6797516 3.52988225,62.0783922 C2.40543783,61.4770327 1.52296727,60.5945622 0.921607809,59.4701178 C0.320248352,58.3456733 1.38426198e-16,57.2303358 -2.38243266e-16,54.1545962 L2.38243266e-16,8.84540376 C-1.38426198e-16,5.76966417 0.320248352,4.65432667 0.921607809,3.52988225 C1.52296727,2.40543783 2.40543783,1.52296727 3.52988225,0.921607809 C4.65432667,0.320248352 5.76966417,-8.46154202e-16 8.84540376,1.45630338e-15 Z" id="path-54"></path>
        <filter x="-2.1%" y="-1.6%" width="104.2%" height="106.3%" filterUnits="objectBoundingBox" id="filter-55">
            <feOffset dx="0" dy="2" in="SourceAlpha" result="shadowOffsetOuter1"></feOffset>
            <feColorMatrix values="0 0 0 0 0.537254902   0 0 0 0 0.541176471   0 0 0 0 0.552941176  0 0 0 1 0" type="matrix" in="shadowOffsetOuter1"></feColorMatrix>
        </filter>
        <path d="M8.84540376,1.45630338e-15 L39.1545962,3.57364899e-16 C42.2303358,-2.07639298e-16 43.3456733,0.320248352 44.4701178,0.921607809 C45.5945622,1.52296727 46.4770327,2.40543783 47.0783922,3.52988225 C47.6797516,4.65432667 48,5.76966417 48,8.84540376 L48,54.1545962 C48,57.2303358 47.6797516,58.3456733 47.0783922,59.4701178 C46.4770327,60.5945622 45.5945622,61.4770327 44.4701178,62.0783922 C43.3456733,62.6797516 42.2303358,63 39.1545962,63 L8.84540376,63 C5.76966417,63 4.65432667,62.6797516 3.52988225,62.0783922 C2.40543783,61.4770327 1.52296727,60.5945622 0.921607809,59.4701178 C0.320248352,58.3456733 1.38426198e-16,57.2303358 -2.38243266e-16,54.1545962 L2.38243266e-16,8.84540376 C-1.38426198e-16,5.76966417 0.320248352,4.65432667 0.921607809,3.52988225 C1.52296727,2.40543783 2.40543783,1.52296727 3.52988225,0.921607809 C4.65432667,0.320248352 5.76966417,-8.46154202e-16 8.84540376,1.45630338e-15 Z" id="path-56"></path>
        <filter x="-2.1%" y="-1.6%" width="104.2%" height="106.3%" filterUnits="objectBoundingBox" id="filter-57">
            <feOffset dx="0" dy="2" in="SourceAlpha" result="shadowOffsetOuter1"></feOffset>
            <feColorMatrix values="0 0 0 0 0.537254902   0 0 0 0 0.541176471   0 0 0 0 0.552941176  0 0 0 1 0" type="matrix" in="shadowOffsetOuter1"></feColorMatrix>
        </filter>
        <path d="M8.84540376,1.45630338e-15 L39.1545962,3.57364899e-16 C42.2303358,-2.07639298e-16 43.3456733,0.320248352 44.4701178,0.921607809 C45.5945622,1.52296727 46.4770327,2.40543783 47.0783922,3.52988225 C47.6797516,4.65432667 48,5.76966417 48,8.84540376 L48,54.1545962 C48,57.2303358 47.6797516,58.3456733 47.0783922,59.4701178 C46.4770327,60.5945622 45.5945622,61.4770327 44.4701178,62.0783922 C43.3456733,62.6797516 42.2303358,63 39.1545962,63 L8.84540376,63 C5.76966417,63 4.65432667,62.6797516 3.52988225,62.0783922 C2.40543783,61.4770327 1.52296727,60.5945622 0.921607809,59.4701178 C0.320248352,58.3456733 1.38426198e-16,57.2303358 -2.38243266e-16,54.1545962 L2.38243266e-16,8.84540376 C-1.38426198e-16,5.76966417 0.320248352,4.65432667 0.921607809,3.52988225 C1.52296727,2.40543783 2.40543783,1.52296727 3.52988225,0.921607809 C4.65432667,0.320248352 5.76966417,-8.46154202e-16 8.84540376,1.45630338e-15 Z" id="path-58"></path>
        <filter x="-2.1%" y="-1.6%" width="104.2%" height="106.3%" filterUnits="objectBoundingBox" id="filter-59">
            <feOffset dx="0" dy="2" in="SourceAlpha" result="shadowOffsetOuter1"></feOffset>
            <feColorMatrix values="0 0 0 0 0.537254902   0 0 0 0 0.541176471   0 0 0 0 0.552941176  0 0 0 1 0" type="matrix" in="shadowOffsetOuter1"></feColorMatrix>
        </filter>
        <path d="M8.84540376,1.45630338e-15 L39.1545962,3.57364899e-16 C42.2303358,-2.07639298e-16 43.3456733,0.320248352 44.4701178,0.921607809 C45.5945622,1.52296727 46.4770327,2.40543783 47.0783922,3.52988225 C47.6797516,4.65432667 48,5.76966417 48,8.84540376 L48,54.1545962 C48,57.2303358 47.6797516,58.3456733 47.0783922,59.4701178 C46.4770327,60.5945622 45.5945622,61.4770327 44.4701178,62.0783922 C43.3456733,62.6797516 42.2303358,63 39.1545962,63 L8.84540376,63 C5.76966417,63 4.65432667,62.6797516 3.52988225,62.0783922 C2.40543783,61.4770327 1.52296727,60.5945622 0.921607809,59.4701178 C0.320248352,58.3456733 1.38426198e-16,57.2303358 -2.38243266e-16,54.1545962 L2.38243266e-16,8.84540376 C-1.38426198e-16,5.76966417 0.320248352,4.65432667 0.921607809,3.52988225 C1.52296727,2.40543783 2.40543783,1.52296727 3.52988225,0.921607809 C4.65432667,0.320248352 5.76966417,-8.46154202e-16 8.84540376,1.45630338e-15 Z" id="path-60"></path>
        <filter x="-2.1%" y="-1.6%" width="104.2%" height="106.3%" filterUnits="objectBoundingBox" id="filter-61">
            <feOffset dx="0" dy="2" in="SourceAlpha" result="shadowOffsetOuter1"></feOffset>
            <feColorMatrix values="0 0 0 0 0.537254902   0 0 0 0 0.541176471   0 0 0 0 0.552941176  0 0 0 1 0" type="matrix" in="shadowOffsetOuter1"></feColorMatrix>
        </filter>
        <path d="M8.84540376,1.45630338e-15 L39.1545962,3.57364899e-16 C42.2303358,-2.07639298e-16 43.3456733,0.320248352 44.4701178,0.921607809 C45.5945622,1.52296727 46.4770327,2.40543783 47.0783922,3.52988225 C47.6797516,4.65432667 48,5.76966417 48,8.84540376 L48,54.1545962 C48,57.2303358 47.6797516,58.3456733 47.0783922,59.4701178 C46.4770327,60.5945622 45.5945622,61.4770327 44.4701178,62.0783922 C43.3456733,62.6797516 42.2303358,63 39.1545962,63 L8.84540376,63 C5.76966417,63 4.65432667,62.6797516 3.52988225,62.0783922 C2.40543783,61.4770327 1.52296727,60.5945622 0.921607809,59.4701178 C0.320248352,58.3456733 1.38426198e-16,57.2303358 -2.38243266e-16,54.1545962 L2.38243266e-16,8.84540376 C-1.38426198e-16,5.76966417 0.320248352,4.65432667 0.921607809,3.52988225 C1.52296727,2.40543783 2.40543783,1.52296727 3.52988225,0.921607809 C4.65432667,0.320248352 5.76966417,-8.46154202e-16 8.84540376,1.45630338e-15 Z" id="path-62"></path>
        <filter x="-2.1%" y="-1.6%" width="104.2%" height="106.3%" filterUnits="objectBoundingBox" id="filter-63">
            <feOffset dx="0" dy="2" in="SourceAlpha" result="shadowOffsetOuter1"></feOffset>
            <feColorMatrix values="0 0 0 0 0.537254902   0 0 0 0 0.541176471   0 0 0 0 0.552941176  0 0 0 1 0" type="matrix" in="shadowOffsetOuter1"></feColorMatrix>
        </filter>
        <path d="M8.84540376,1.45630338e-15 L39.1545962,3.57364899e-16 C42.2303358,-2.07639298e-16 43.3456733,0.320248352 44.4701178,0.921607809 C45.5945622,1.52296727 46.4770327,2.40543783 47.0783922,3.52988225 C47.6797516,4.65432667 48,5.76966417 48,8.84540376 L48,54.1545962 C48,57.2303358 47.6797516,58.3456733 47.0783922,59.4701178 C46.4770327,60.5945622 45.5945622,61.4770327 44.4701178,62.0783922 C43.3456733,62.6797516 42.2303358,63 39.1545962,63 L8.84540376,63 C5.76966417,63 4.65432667,62.6797516 3.52988225,62.0783922 C2.40543783,61.4770327 1.52296727,60.5945622 0.921607809,59.4701178 C0.320248352,58.3456733 1.38426198e-16,57.2303358 -2.38243266e-16,54.1545962 L2.38243266e-16,8.84540376 C-1.38426198e-16,5.76966417 0.320248352,4.65432667 0.921607809,3.52988225 C1.52296727,2.40543783 2.40543783,1.52296727 3.52988225,0.921607809 C4.65432667,0.320248352 5.76966417,-8.46154202e-16 8.84540376,1.45630338e-15 Z" id="path-64"></path>
        <filter x="-2.1%" y="-1.6%" width="104.2%" height="106.3%" filterUnits="objectBoundingBox" id="filter-65">
            <feOffset dx="0" dy="2" in="SourceAlpha" result="shadowOffsetOuter1"></feOffset>
            <feColorMatrix values="0 0 0 0 0.537254902   0 0 0 0 0.541176471   0 0 0 0 0.552941176  0 0 0 1 0" type="matrix" in="shadowOffsetOuter1"></feColorMatrix>
        </filter>
        <linearGradient x1="50%" y1="0%" x2="50%" y2="100%" id="linearGradient-66">
            <stop stop-color="#41BCFF" offset="0%"></stop>
            <stop stop-color="#016BFF" offset="100%"></stop>
        </linearGradient>
    </defs>
    <g id="website" stroke="none" stroke-width="1" fill="none" fill-rule="evenodd">
        <g id="web---desktop" transform="translate(-818.000000, -1055.000000)">
            <g id="1-write" transform="translate(907.000000, 1129.000000)">
                <g id="Group-3">
                    <mask id="mask-2" fill="white">
                        <use xlink:href="#path-1"></use>
                    </mask>
                    <g id="Mask">
                        <use fill="black" fill-opacity="1" filter="url(#filter-3)" xlink:href="#path-1"></use>
                        <use fill="#FFFFFF" fill-rule="evenodd" xlink:href="#path-1"></use>
                    </g>
                    <g id="System/Keyboards/iPhone/Light/Alphabetic" mask="url(#mask-2)">
                        <g transform="translate(0.000000, 422.000000)">
                            <g id="System/Keyboards/iPhone/x/Light/Background" fill-opacity="0.92">
                                <rect id="background" fill="#CDD0D4" x="0" y="0" width="562.5" height="436.5"></rect>
                            </g>
                            <g id="Bars/Home-Indicator/iPhone/Light---Portrait" transform="translate(0.000000, 385.500000)">
                                <rect id="Home-Indicator" fill="#000000" x="180.75" y="31.5" width="201" height="7.5" rx="3.75"></rect>
                            </g>
                            <g id="Keys" stroke-width="1" transform="translate(4.500000, 12.000000)">
                                <path d="M511.75,364.997708 C512.440356,364.997708 513.000001,365.55741 513.000001,366.247838 L512.994992,366.338 L512.9955,369.423169 L512.98,369.423169 C512.983924,375.166123 508.69195,380.00423 502.990004,380.684342 L502.990004,384.484738 L507.700002,384.484738 L507.699679,384.500734 C507.716371,384.500073 507.733148,384.49974 507.750002,384.49974 C508.440358,384.49974 509.000002,385.059442 509.000002,385.74987 C509.000002,386.440298 508.440358,387 507.750002,387 L507.699992,386.997 L507.700002,387 L495.795006,387 C495.780519,386.999726 495.765295,387 495.750006,387 C495.059651,387 494.500007,386.440298 494.500007,385.74987 C494.500007,385.059442 495.059651,384.49974 495.750006,384.49974 L495.794992,384.501 L495.795006,384.484738 L500.515005,384.484738 L500.515005,380.684342 C494.800906,380.020208 490.493052,375.176322 490.5,369.423169 C490.5,369.368163 490.508508,369.318158 490.509508,369.268153 L490.508689,366.395943 C490.502957,366.347373 490.500008,366.29795 490.500008,366.247838 C490.500008,365.55741 491.059652,364.997708 491.750008,364.997708 C492.440364,364.997708 493.000008,365.55741 493.000008,366.247838 L492.993992,366.357 L492.994007,369.813209 L492.987507,369.813209 L492.987507,369.82321 C492.987507,369.868215 492.993507,369.91322 492.994007,369.958225 L492.994007,370.428274 L493.017507,370.428274 C493.389055,374.874289 497.027131,378.339587 501.485504,378.494114 L501.990504,378.494114 C506.450305,378.342134 510.090378,374.875752 510.460501,370.428274 L510.490501,370.428274 L510.490501,366.26284 L510.500091,366.262987 C510.500031,366.257945 510.500001,366.252895 510.500001,366.247838 C510.500001,365.55741 511.059645,364.997708 511.75,364.997708 Z M508.490002,367.317949 C508.490002,368.073028 508.490002,368.868111 508.450002,369.62319 C508.419296,370.304108 508.315364,370.979739 508.140002,371.6384 C507.748698,373.020888 506.914289,374.236617 505.765003,375.09876 C503.407697,376.958866 500.082312,376.958866 497.725006,375.09876 C496.57273,374.239287 495.737289,373.022566 495.349007,371.6384 C495.172839,370.979925 495.069058,370.304187 495.039507,369.62319 C494.996007,368.868111 494.99991,368.073028 494.99991,367.317949 L494.99991,360.997291 C494.99991,360.247213 495.004007,356.931867 494.99991,356.371809 C495.019768,355.686795 495.137634,355.008153 495.350007,354.356599 C496.150466,351.485761 498.76545,349.5 501.745504,349.5 C504.725558,349.5 507.340543,351.485761 508.141002,354.356599 C508.328977,355.01398 508.446308,355.689538 508.491002,356.371809 C508.536002,357.126888 508.491002,360.247213 508.491002,360.997291 L508.491002,367.317949 L508.490002,367.317949 Z M505.990003,368.498072 C505.990003,368.978122 505.980003,369.138139 505.950003,369.618189 C505.932748,370.054107 505.867351,370.486781 505.755003,370.908324 C505.51554,371.793396 504.994226,372.576328 504.270003,373.138556 C502.786089,374.292023 500.70892,374.292023 499.225005,373.138556 C498.497974,372.577979 497.974613,371.794612 497.735006,370.908324 C497.62508,370.486281 497.559722,370.05387 497.540006,369.618189 C497.515006,369.138139 497.510006,368.978122 497.510006,368.498072 C497.510006,361.84738 497.480006,356.916866 497.520006,356.386811 C497.548929,355.950724 497.620947,355.518572 497.735006,355.096676 C497.974613,354.210388 498.497974,353.427021 499.225005,352.866444 C500.70892,351.712977 502.786089,351.712977 504.270003,352.866444 C504.994226,353.428672 505.51554,354.211603 505.755003,355.096676 C505.88202,355.516629 505.962503,355.949271 505.995003,356.386811 C506.030003,356.95687 505.990003,361.827377 505.990003,368.498072 Z" id="Dictation" fill="#50555C"></path>
                                <path d="M53.25,348 C64.4337662,348 73.5,357.066234 73.5,368.25 C73.5,379.433766 64.4337662,388.5 53.25,388.5 C42.0662338,388.5 33,379.433766 33,368.25 C33,357.066234 42.0662338,348 53.25,348 Z M53.25,350.359125 C63.1305937,350.360243 71.1395955,358.370756 71.1388499,368.25135 C71.1381044,378.131944 63.1278939,386.141248 53.2473001,386.140875 C43.3667063,386.140502 35.3571,378.130594 35.3571,368.25 C35.3571,363.504735 37.2424814,358.953892 40.5980802,355.598673 C43.953679,352.243454 48.5047352,350.358722 53.25,350.359125 L53.25,350.359125 Z M46.8439125,359.466562 C46.218008,359.459105 45.6152544,359.702955 45.1706006,360.143517 C44.7259467,360.58408 44.4765353,361.184553 44.4781979,361.8105 C44.4781979,363.117043 45.537369,364.176206 46.8439125,364.176206 C48.150456,364.176206 49.2096271,363.117043 49.2096271,361.8105 C49.2112897,361.184553 48.9618783,360.58408 48.5172244,360.143517 C48.0725706,359.702955 47.469817,359.459105 46.8439125,359.466563 L46.8439125,359.466562 Z M66.7451062,371.738062 C65.6667937,377.565 60.0428625,382.430062 53.2474687,382.430062 C46.5062437,382.430062 40.9152188,377.635875 39.773625,371.87475 C39.5422688,370.437 40.7198063,370.097812 41.829,370.366125 C45.5395938,371.439021 49.3876792,371.960969 53.25,371.91525 C57.10359,371.95993 60.9429322,371.439717 64.6456875,370.371187 C65.724,370.097813 66.8787562,370.406625 66.7451062,371.738062 L66.7451062,371.738062 Z M63.0844125,372.548062 C62.9791125,372.588562 62.8722938,372.618937 62.7644625,372.654375 C62.753325,372.659437 63.109725,372.543 63.0990938,372.548062 C59.8972159,373.42952 56.5874751,373.857254 53.2667063,373.81875 C49.3037813,373.81875 45.759525,373.378312 43.3204125,372.5025 C41.5520813,371.976 41.8912688,374.056687 43.1341125,374.694562 C46.3136347,376.142024 49.7729398,376.871427 53.2662,376.830937 C57.4215,376.830937 61.1242125,375.864 63.5699063,374.613562 C64.7271938,373.869375 64.9560188,371.87475 63.0844125,372.548062 L63.0844125,372.548062 Z M59.66925,359.466562 C59.0432992,359.459107 58.4404946,359.702941 57.9957608,360.143488 C57.5510269,360.584035 57.3015023,361.184507 57.3030375,361.8105 C57.290552,362.664024 57.7387507,363.45811 58.4759134,363.888517 C59.2130761,364.318924 60.1249176,364.318924 60.8620803,363.888517 C61.599243,363.45811 62.0474418,362.664024 62.0349563,361.8105 C62.0364896,361.184596 61.7870343,360.584202 61.3424107,360.14367 C60.8977871,359.703138 60.2951136,359.459243 59.66925,359.466563 L59.66925,359.466562 Z" id="Emoji" fill="#50555C"></path>
                                <g id="System/Keyboards/iPhone/x/Light/Keys/Enter---Gray" transform="translate(421.500000, 243.000000)">
                                    <g id="Rectangle">
                                        <use fill="black" fill-opacity="1" filter="url(#filter-5)" xlink:href="#path-4"></use>
                                        <use fill="#AAADB7" fill-rule="evenodd" xlink:href="#path-4"></use>
                                    </g>
                                    <text id="Label" font-family="SFProText-Regular, SF Pro Text" font-size="24" font-weight="normal" line-spacing="31.5" letter-spacing="-0.479999989" fill="#000000">
                                        <tspan x="50.4311719" y="39.5">Go</tspan>
                                    </text>
                                </g>
                                <g id="System/Keyboards/iPhone/x/Light/Keys/Letter---Small" transform="translate(139.500000, 243.000000)">
                                    <g id="Rectangle">
                                        <use fill="black" fill-opacity="1" filter="url(#filter-7)" xlink:href="#path-6"></use>
                                        <use fill="#FCFCFE" fill-rule="evenodd" xlink:href="#path-6"></use>
                                    </g>
                                    <text id="Label" font-family="SFProText-Regular, SF Pro Text" font-size="24" font-weight="normal" line-spacing="31.5" letter-spacing="-0.479999989" fill="#000000">
                                        <tspan x="103.914844" y="39.5">space</tspan>
                                    </text>
                                </g>
                                <g id="System/Keyboards/iPhone/x/Light/Keys/Letter---Gray" transform="translate(0.000000, 243.000000)">
                                    <g id="Rectangle">
                                        <use fill="black" fill-opacity="1" filter="url(#filter-9)" xlink:href="#path-8"></use>
                                        <use fill="#AAADB7" fill-rule="evenodd" xlink:href="#path-8"></use>
                                    </g>
                                    <text id="Label" font-family="SFProText-Regular, SF Pro Text" font-size="24" font-weight="normal" line-spacing="31.5" letter-spacing="-0.479999989" fill="#000000">
                                        <tspan x="45.6028125" y="39.5">123</tspan>
                                    </text>
                                </g>
                                <g id="Delete" transform="translate(490.500000, 162.000000)">
                                    <g id="System/Keyboards/iPhone/x/Light/Keys/Letter---Gray">
                                        <g id="Rectangle">
                                            <use fill="black" fill-opacity="1" filter="url(#filter-11)" xlink:href="#path-10"></use>
                                            <use fill="#AAADB7" fill-rule="evenodd" xlink:href="#path-10"></use>
                                        </g>
                                        <text id="Label" font-family="SFProText-Regular, SF Pro Text" font-size="24" font-weight="normal" line-spacing="31.5" letter-spacing="-0.479999989"></text>
                                    </g>
                                    <path d="M19.8191993,25.1672935 C19.7968239,25.1877579 19.7529057,25.2302175 19.7044521,25.277948 C19.6693346,25.3125413 19.6412636,25.3405056 19.5831688,25.3986034 L16.3684341,28.6133381 C16.2842478,28.7015049 16.2257766,28.7607162 16.0899182,28.8965746 C16.0141121,28.9723808 15.9584531,29.0306086 15.8386938,29.1578528 C15.6160148,29.3733504 15.3812097,29.6306122 15.161175,29.9021856 C14.9537061,30.1216682 14.7879388,30.3772948 14.6721666,30.6565645 C14.4338124,31.3827385 14.4338124,32.0885608 14.6461315,32.7440934 L14.6745709,32.8204809 C14.7912798,33.0968419 14.9560584,33.3501816 15.1611382,33.5687909 C15.3813664,33.8383749 15.6161491,34.0957467 15.8644413,34.339756 C15.9584531,34.4406907 16.0141121,34.4989185 16.0899182,34.5747247 L16.3684341,34.8532406 L19.2993954,37.7889221 C19.4364565,37.9259836 19.50376,37.9925715 19.5817351,38.0669998 C19.664839,38.1545437 19.7521099,38.2414576 19.8397265,38.3239203 C19.8501735,38.3332295 21.1005866,39.5822732 23.5909658,42.0710517 C23.7063386,42.1864245 23.7994061,42.2770641 24.0087513,42.4791905 C24.0309704,42.5009902 24.0647015,42.5352379 24.075062,42.546084 C24.1289486,42.602802 24.1602046,42.6355699 24.181042,42.6564072 C24.6166782,43.0925749 25.1175049,43.4592179 25.6654212,43.7429757 C26.226818,44.0224274 26.8109852,44.2146613 27.4135588,44.3206741 C27.9828036,44.4137544 28.5466673,44.4636082 29.1119031,44.4717546 C29.2091701,44.4737146 29.2899447,44.4747243 29.4701135,44.476526 C29.6439903,44.4782648 29.7205694,44.479222 29.8147213,44.4812938 L40.9459134,44.4812938 C41.0606725,44.4792251 41.1382766,44.478267 41.3140269,44.4765269 C41.4958627,44.4747266 41.5775791,44.4737177 41.6819546,44.4716712 C42.2495005,44.4616338 42.8173711,44.4101652 43.379261,44.3177064 C43.9951547,44.2135155 44.5876276,44.0179054 45.1406927,43.7368402 C45.6978915,43.4538274 46.2065893,43.0836928 46.6474602,42.6404579 C47.0859674,42.2002333 47.4541213,41.6942577 47.7383777,41.1409685 C48.0189772,40.5792762 48.2118106,39.9895431 48.3155188,39.381196 C48.4097431,38.8125807 48.4597381,38.2419479 48.4657906,37.6700043 C48.4707929,37.5523067 48.4729985,37.4398221 48.476253,37.1908522 C48.4777997,37.0725327 48.4785663,37.0204034 48.4800053,36.9562693 L48.4800053,26.4721707 C48.4785604,26.3904852 48.4777865,26.3386069 48.4762512,26.2224401 C48.4754613,26.1626378 48.4754613,26.1626378 48.4745905,26.1017446 C48.4723301,25.9495487 48.4696381,25.8353516 48.465089,25.721624 C48.4589052,25.1832639 48.4108139,24.6199088 48.3218834,24.0623035 C48.2133728,23.4448353 48.0211388,22.8606681 47.7486024,22.312893 C47.4621368,21.7534697 47.0964137,21.2513111 46.6597204,20.8147732 C46.2244838,20.3761667 45.7190088,20.007512 45.165009,19.7253807 C44.6145629,19.4496482 44.0331036,19.2570749 43.4330986,19.1508115 C42.8576468,19.0591672 42.2928586,19.0111001 41.7268195,19.0042367 C41.5396544,18.9963836 41.373905,18.9947261 41.0072813,18.9947261 C40.887122,18.9925923 40.7466906,18.9912675 40.5887537,18.9906039 C40.4698924,18.9900055 40.3754533,18.9900055 40.1622923,18.9900055 L40.1622923,20.8782491 C40.3728059,20.8782491 40.4654869,20.8783462 40.5808199,20.8788308 C40.7314213,20.8794636 40.8642154,20.8807164 40.9915481,20.8828386 C41.3487489,20.8829697 41.4977068,20.8844593 41.6776379,20.8916565 C42.1783172,20.8980936 42.6516602,20.9383781 43.120201,21.0128756 C43.5243447,21.0845997 43.9318836,21.2195724 44.3137422,21.4108388 C44.6832618,21.5990448 45.0255487,21.8486827 45.322088,22.1475107 C45.6221989,22.4475255 45.8712918,22.7895442 46.0630151,23.1638557 C46.2498263,23.5394751 46.385102,23.9505557 46.4597036,24.374589 C46.5316578,24.8265177 46.5719195,25.2981549 46.5776697,25.770843 C46.5821518,25.8920317 46.5845095,25.9920505 46.5865551,26.1297848 C46.5873889,26.188087 46.5873889,26.188087 46.5881725,26.2473927 C46.5897641,26.3678213 46.5905806,26.4225571 46.5919505,26.4910493 L46.5917617,36.9377607 C46.5905781,36.9888686 46.5897712,37.0437397 46.5881708,37.1661714 C46.5851311,37.3987036 46.5831406,37.5002199 46.578325,37.6230179 C46.5726239,38.1252364 46.5310843,38.5993604 46.4534009,39.0682079 C46.3816114,39.4892605 46.2467731,39.9016302 46.0539636,40.2876823 C45.8635794,40.6581204 45.6107078,41.0056568 45.3091839,41.3083618 C45.0093315,41.6098217 44.6639003,41.8611616 44.2854097,42.0534048 C43.9022693,42.248115 43.4920256,42.3835605 43.0684734,42.4552196 C42.6011273,42.5321116 42.1245616,42.5753049 41.6467484,42.5837567 C41.5486869,42.5856777 41.4710828,42.5866358 41.2953324,42.5883759 C41.1134966,42.5901762 41.0317802,42.5911851 40.9274047,42.5932317 L29.8335999,42.5930502 C29.7499384,42.5911882 29.6691638,42.5901785 29.488995,42.5883768 C29.3151182,42.5866381 29.2385391,42.5856808 29.1443872,42.5837978 C28.6667798,42.5768997 28.195592,42.5352398 27.7293906,42.4590669 C27.3167056,42.3863906 26.905625,42.2511148 26.5201536,42.0593299 C26.158431,41.8718599 25.815345,41.6206951 25.5166385,41.3216243 C25.5137854,41.3187709 25.500581,41.3049278 25.4429098,41.2443671 C25.3696415,41.1676638 25.3379262,41.1349759 25.3014616,41.1025798 C25.1133648,40.9209217 25.0277442,40.8374504 24.9261557,40.7358619 L21.1827128,36.992419 C21.1485272,36.9613158 21.127845,36.9424984 21.1135612,36.9298343 C21.0459157,36.8647559 20.9905854,36.8088943 20.9382732,36.7533126 C20.8301918,36.6485991 20.7709805,36.5901279 20.6351221,36.4542695 L17.7041609,33.5185881 L17.4251081,33.2395348 C17.3671636,33.1815904 17.3205427,33.1328177 17.2137128,33.019311 C16.9812062,32.7898087 16.7861182,32.5750716 16.6036383,32.3498213 L16.5465349,32.2855522 C16.4989427,32.2366648 16.4594348,32.1806162 16.4294139,32.1195203 C16.3567718,31.8677954 16.3570441,31.6005682 16.4302307,31.3489595 C16.4585373,31.2903171 16.4963387,31.2366625 16.5421752,31.190196 L16.6065271,31.1178943 C16.7860143,30.8941163 16.9790945,30.6815891 17.1846744,30.4815163 C17.3205427,30.3384816 17.3671636,30.2897089 17.4251081,30.2317645 C17.5724862,30.0843863 17.6383244,30.0177147 17.7205168,29.9311964 L20.6351221,27.0170298 L20.9183587,26.7337932 C20.9747387,26.6774163 20.9989256,26.6533213 21.0295654,26.6231388 C21.1179604,26.5433653 21.1528823,26.5134315 21.1874334,26.4788803 L24.4451368,23.216456 L24.9261557,22.7354374 C25.0277442,22.6338489 25.1133648,22.5503777 25.3014616,22.3687195 C25.3379262,22.3363234 25.3696415,22.3036355 25.4404699,22.2294871 C25.500581,22.1663715 25.5137854,22.1525284 25.5162318,22.1500819 C25.815345,21.8506042 26.158431,21.5994394 26.5337753,21.4050541 C26.905625,21.2201845 27.3167056,21.0849087 27.7407389,21.0103071 C28.1928648,20.9379501 28.6640421,20.8977276 29.1362602,20.8923497 C29.3431744,20.8844593 29.4921323,20.8829697 29.8335999,20.8829697 C30.0781166,20.8790255 30.2636882,20.8782491 30.6785889,20.8782491 L40.1622923,20.8782491 L40.1622923,18.9900055 L30.6785889,18.9900055 C30.2532212,18.9900055 30.0606167,18.9908114 29.8178667,18.9948572 C29.4669762,18.9947261 29.3012268,18.9963836 29.0877739,19.0049217 C28.5496374,19.0106645 27.9857635,19.0588001 27.4277299,19.148243 C26.8109852,19.256638 26.226818,19.4488719 25.6790429,19.7214084 C25.1175049,20.0120815 24.6166782,20.3787244 24.1806353,20.815299 C24.1602046,20.8357294 24.1289486,20.8684973 24.0771832,20.9229941 C24.0688621,20.9317056 24.0460514,20.9547438 24.0087513,20.9921088 C23.7994061,21.1942352 23.7063386,21.2848748 23.5909658,21.4002476 L23.1094637,21.8817497 L19.9070334,25.0888209 C19.878972,25.1112186 19.8489482,25.1375446 19.8191993,25.1672935 Z M39.7728301,26.5182989 C40.0895754,26.6490838 40.2962059,26.9579536 40.2962059,27.3006375 C40.2962059,27.5290935 40.2043701,27.742521 40.0492958,27.898173 L40.0584389,27.9072358 L36.2400055,31.7280055 L39.9706669,35.4517714 C40.0028935,35.4756177 40.0338179,35.5020336 40.0631595,35.5310192 C40.3060157,35.7727901 40.379126,36.137141 40.2483411,36.4538863 C40.1175562,36.7706317 39.8086864,36.9772621 39.4660025,36.9772621 C39.2375465,36.9772621 39.0241191,36.8854263 38.868467,36.7303521 L38.8594042,36.7394951 L35.0430055,32.9270055 L31.2309002,36.7442157 L31.2188687,36.7331602 C31.1425489,36.8078724 31.0514697,36.8688405 30.9488844,36.9112011 C30.6309125,37.0425014 30.2651455,36.9691207 30.0224243,36.7253333 C29.6923456,36.3938048 29.6923456,35.8578271 30.0224243,35.5262986 C30.0685326,35.4799878 30.1190812,35.4398263 30.172899,35.4060491 L33.8460055,31.7310055 L30.0224243,27.9119564 L30.0344106,27.9008742 C29.9592739,27.8243608 29.8979753,27.7329516 29.8554389,27.6299406 C29.7241386,27.3119687 29.7975193,26.9462018 30.0413067,26.7034805 C30.3728352,26.3734019 30.9088129,26.3734019 31.2403414,26.7034805 C31.2872348,26.7501688 31.3278231,26.8014098 31.3618625,26.8559876 L35.0430055,30.5330055 L38.7600015,26.810783 C38.7865769,26.7732002 38.8165641,26.7372896 38.849963,26.7034805 C39.0917339,26.4606243 39.4560848,26.387514 39.7728301,26.5182989 Z" id="Delete-Button" fill="#000000" fill-rule="nonzero"></path>
                                </g>
                                <g id="Shift" transform="translate(0.000000, 162.000000)">
                                    <g id="System/Keyboards/iPhone/x/Light/Keys/Letter---Large">
                                        <g id="Rectangle">
                                            <use fill="black" fill-opacity="1" filter="url(#filter-13)" xlink:href="#path-12"></use>
                                            <use fill="#FCFCFE" fill-rule="evenodd" xlink:href="#path-12"></use>
                                        </g>
                                        <text id="Symbol" font-family="SFProText-Regular, SF Pro Text" font-size="33.75" font-weight="normal" letter-spacing="-0.832058877"></text>
                                    </g>
                                    <path d="M44.7000485,33.9964387 L38.404475,33.9964387 L38.404475,39.9500897 C38.404475,40.0700625 38.404475,40.1800376 38.404475,40.2950115 C38.404475,40.3949889 38.404475,40.4899673 38.4004759,40.5899447 C38.3977067,40.8043023 38.3791608,41.0181653 38.3449885,41.2297997 C38.3078103,41.4399971 38.2404633,41.6437218 38.1450338,41.8346626 C38.0473676,42.0253713 37.9197794,42.1992018 37.7671194,42.349546 C37.6137575,42.4998383 37.4386737,42.6262222 37.2477371,42.724461 C37.0543414,42.8186045 36.8489877,42.8858784 36.6373754,42.9244157 C36.4251361,42.9576925 36.210827,42.9760667 35.9960207,42.9794032 C35.8960434,42.9794032 35.7990654,42.9844021 35.7010876,42.9844021 L27.6024227,42.9844021 C27.5024453,42.9844021 27.4059672,42.9794032 27.3074895,42.9794032 C27.0926834,42.9760617 26.8783747,42.9576877 26.6661348,42.9244157 C26.4546875,42.8858588 26.2495017,42.8185847 26.056273,42.724461 C25.8653324,42.6262286 25.6902477,42.4998441 25.5368907,42.349546 C25.3841455,42.1992755 25.2565466,42.0254305 25.1589763,41.8346626 C25.0635662,41.6437138 24.9962202,41.439992 24.9590216,41.2297997 C24.9246332,41.0181838 24.9059199,40.8043171 24.9030343,40.5899447 C24.9030343,40.4899673 24.8990352,40.3949889 24.8990352,40.2950115 C24.8990352,40.1800376 24.8990352,40.0700625 24.8990352,39.9500897 L24.8990352,33.9964387 L18.5039843,33.9964387 C17.8571309,33.9964387 17.0273189,32.6017547 17.8041429,31.8269303 C18.4644932,31.1720787 28.8431415,20.8244234 31.0151494,18.6699116 C31.1747535,18.4737679 31.4001951,18.3423047 31.6495056,18.2999954 L31.6665018,18.2999954 C31.8821823,18.3116924 32.0824487,18.4154668 32.2163772,18.5849309 C34.388385,20.7394427 44.8025252,31.1720787 45.4633755,31.8269303 C46.2406994,32.6017547 45.5898468,33.9964387 44.7000485,33.9964387 Z" fill="#000000" fill-rule="nonzero"></path>
                                </g>
                                <g id="System/Keyboards/iPhone/x/Light/Keys/Letter---Large" transform="translate(423.000000, 162.000000)">
                                    <g id="Rectangle">
                                        <use fill="black" fill-opacity="1" filter="url(#filter-15)" xlink:href="#path-14"></use>
                                        <use fill="#FCFCFE" fill-rule="evenodd" xlink:href="#path-14"></use>
                                    </g>
                                    <text id="Symbol" font-family="SFProText-Regular, SF Pro Text" font-size="33.75" font-weight="normal" letter-spacing="-0.832058877" fill="#000000">
                                        <tspan x="10.4168839" y="44">M</tspan>
                                    </text>
                                </g>
                                <g id="System/Keyboards/iPhone/x/Light/Keys/Letter---Large" transform="translate(366.000000, 162.000000)">
                                    <g id="Rectangle">
                                        <use fill="black" fill-opacity="1" filter="url(#filter-17)" xlink:href="#path-16"></use>
                                        <use fill="#FCFCFE" fill-rule="evenodd" xlink:href="#path-16"></use>
                                    </g>
                                    <text id="Symbol" font-family="SFProText-Regular, SF Pro Text" font-size="33.75" font-weight="normal" letter-spacing="-0.832058877" fill="#000000">
                                        <tspan x="12.6416154" y="44">N</tspan>
                                    </text>
                                </g>
                                <g id="System/Keyboards/iPhone/x/Light/Keys/Letter---Large" transform="translate(309.000000, 162.000000)">
                                    <g id="Rectangle">
                                        <use fill="black" fill-opacity="1" filter="url(#filter-19)" xlink:href="#path-18"></use>
                                        <use fill="#FCFCFE" fill-rule="evenodd" xlink:href="#path-18"></use>
                                    </g>
                                    <text id="Symbol" font-family="SFProText-Regular, SF Pro Text" font-size="33.75" font-weight="normal" letter-spacing="-0.832058877" fill="#000000">
                                        <tspan x="14.0753312" y="44">B</tspan>
                                    </text>
                                </g>
                                <g id="System/Keyboards/iPhone/x/Light/Keys/Letter---Large" transform="translate(253.500000, 162.000000)">
                                    <g id="Rectangle">
                                        <use fill="black" fill-opacity="1" filter="url(#filter-21)" xlink:href="#path-20"></use>
                                        <use fill="#FCFCFE" fill-rule="evenodd" xlink:href="#path-20"></use>
                                    </g>
                                    <text id="Symbol" font-family="SFProText-Regular, SF Pro Text" font-size="33.75" font-weight="normal" letter-spacing="-0.832058877" fill="#000000">
                                        <tspan x="13.7951798" y="44">V</tspan>
                                    </text>
                                </g>
                                <g id="System/Keyboards/iPhone/x/Light/Keys/Letter---Large" transform="translate(196.500000, 162.000000)">
                                    <g id="Rectangle">
                                        <use fill="black" fill-opacity="1" filter="url(#filter-23)" xlink:href="#path-22"></use>
                                        <use fill="#FCFCFE" fill-rule="evenodd" xlink:href="#path-22"></use>
                                    </g>
                                    <text id="Symbol" font-family="SFProText-Regular, SF Pro Text" font-size="33.75" font-weight="normal" letter-spacing="-0.832058877" fill="#000000">
                                        <tspan x="13.0865617" y="44">C</tspan>
                                    </text>
                                </g>
                                <g id="System/Keyboards/iPhone/x/Light/Keys/Letter---Large" transform="translate(141.000000, 162.000000)">
                                    <g id="Rectangle">
                                        <use fill="black" fill-opacity="1" filter="url(#filter-25)" xlink:href="#path-24"></use>
                                        <use fill="#FCFCFE" fill-rule="evenodd" xlink:href="#path-24"></use>
                                    </g>
                                    <text id="Symbol" font-family="SFProText-Regular, SF Pro Text" font-size="33.75" font-weight="normal" letter-spacing="-0.832058877" fill="#000000">
                                        <tspan x="13.7127824" y="44">X</tspan>
                                    </text>
                                </g>
                                <g id="System/Keyboards/iPhone/x/Light/Keys/Letter---Large" transform="translate(84.000000, 162.000000)">
                                    <g id="Rectangle">
                                        <use fill="black" fill-opacity="1" filter="url(#filter-27)" xlink:href="#path-26"></use>
                                        <use fill="#FCFCFE" fill-rule="evenodd" xlink:href="#path-26"></use>
                                    </g>
                                    <text id="Symbol" font-family="SFProText-Regular, SF Pro Text" font-size="33.75" font-weight="normal" letter-spacing="-0.832058877" fill="#000000">
                                        <tspan x="14.0011735" y="44">Z</tspan>
                                    </text>
                                </g>
                                <g id="System/Keyboards/iPhone/x/Light/Keys/Letter---Large" transform="translate(478.500000, 81.000000)">
                                    <g id="Rectangle">
                                        <use fill="black" fill-opacity="1" filter="url(#filter-29)" xlink:href="#path-28"></use>
                                        <use fill="#FCFCFE" fill-rule="evenodd" xlink:href="#path-28"></use>
                                    </g>
                                    <text id="Symbol" font-family="SFProText-Regular, SF Pro Text" font-size="33.75" font-weight="normal" letter-spacing="-0.832058877" fill="#000000">
                                        <tspan x="15.5832047" y="44">L</tspan>
                                    </text>
                                </g>
                                <g id="System/Keyboards/iPhone/x/Light/Keys/Letter---Large" transform="translate(421.500000, 81.000000)">
                                    <g id="Rectangle">
                                        <use fill="black" fill-opacity="1" filter="url(#filter-31)" xlink:href="#path-30"></use>
                                        <use fill="#FCFCFE" fill-rule="evenodd" xlink:href="#path-30"></use>
                                    </g>
                                    <text id="Symbol" font-family="SFProText-Regular, SF Pro Text" font-size="33.75" font-weight="normal" letter-spacing="-0.832058877" fill="#000000">
                                        <tspan x="14.050612" y="44">K</tspan>
                                    </text>
                                </g>
                                <g id="System/Keyboards/iPhone/x/Light/Keys/Letter---Large" transform="translate(366.000000, 81.000000)">
                                    <g id="Rectangle">
                                        <use fill="black" fill-opacity="1" filter="url(#filter-33)" xlink:href="#path-32"></use>
                                        <use fill="#FCFCFE" fill-rule="evenodd" xlink:href="#path-32"></use>
                                    </g>
                                    <text id="Symbol" font-family="SFProText-Regular, SF Pro Text" font-size="33.75" font-weight="normal" letter-spacing="-0.832058877" fill="#000000">
                                        <tspan x="16.0858292" y="44">J</tspan>
                                    </text>
                                </g>
                                <g id="System/Keyboards/iPhone/x/Light/Keys/Letter---Large" transform="translate(309.000000, 81.000000)">
                                    <g id="Rectangle">
                                        <use fill="black" fill-opacity="1" filter="url(#filter-35)" xlink:href="#path-34"></use>
                                        <use fill="#FCFCFE" fill-rule="evenodd" xlink:href="#path-34"></use>
                                    </g>
                                    <text id="Symbol" font-family="SFProText-Regular, SF Pro Text" font-size="33.75" font-weight="normal" letter-spacing="-0.832058877" fill="#000000">
                                        <tspan x="12.6416154" y="44">H</tspan>
                                    </text>
                                </g>
                                <g id="System/Keyboards/iPhone/x/Light/Keys/Letter---Large" transform="translate(253.500000, 81.000000)">
                                    <g id="Rectangle">
                                        <use fill="black" fill-opacity="1" filter="url(#filter-37)" xlink:href="#path-36"></use>
                                        <use fill="#FCFCFE" fill-rule="evenodd" xlink:href="#path-36"></use>
                                    </g>
                                    <text id="Symbol" font-family="SFProText-Regular, SF Pro Text" font-size="33.75" font-weight="normal" letter-spacing="-0.832058877" fill="#000000">
                                        <tspan x="12.5674577" y="44">G</tspan>
                                    </text>
                                </g>
                                <g id="System/Keyboards/iPhone/x/Light/Keys/Letter---Large" transform="translate(196.500000, 81.000000)">
                                    <g id="Rectangle">
                                        <use fill="black" fill-opacity="1" filter="url(#filter-39)" xlink:href="#path-38"></use>
                                        <use fill="#FCFCFE" fill-rule="evenodd" xlink:href="#path-38"></use>
                                    </g>
                                    <text id="Symbol" font-family="SFProText-Regular, SF Pro Text" font-size="33.75" font-weight="normal" letter-spacing="-0.832058877" fill="#000000">
                                        <tspan x="15.509047" y="44">F</tspan>
                                    </text>
                                </g>
                                <g id="System/Keyboards/iPhone/x/Light/Keys/Letter---Large" transform="translate(141.000000, 81.000000)">
                                    <g id="Rectangle">
                                        <use fill="black" fill-opacity="1" filter="url(#filter-41)" xlink:href="#path-40"></use>
                                        <use fill="#FCFCFE" fill-rule="evenodd" xlink:href="#path-40"></use>
                                    </g>
                                    <text id="Symbol" font-family="SFProText-Regular, SF Pro Text" font-size="33.75" font-weight="normal" letter-spacing="-0.832058877" fill="#000000">
                                        <tspan x="12.9052873" y="44">D</tspan>
                                    </text>
                                </g>
                                <g id="System/Keyboards/iPhone/x/Light/Keys/Letter---Large" transform="translate(84.000000, 81.000000)">
                                    <g id="Rectangle">
                                        <use fill="black" fill-opacity="1" filter="url(#filter-43)" xlink:href="#path-42"></use>
                                        <use fill="#FCFCFE" fill-rule="evenodd" xlink:href="#path-42"></use>
                                    </g>
                                    <text id="Symbol" font-family="SFProText-Regular, SF Pro Text" font-size="33.75" font-weight="normal" letter-spacing="-0.832058877" fill="#000000">
                                        <tspan x="14.4131608" y="44">S</tspan>
                                    </text>
                                </g>
                                <g id="System/Keyboards/iPhone/x/Light/Keys/Letter---Large" transform="translate(28.500000, 81.000000)">
                                    <g id="Rectangle">
                                        <use fill="black" fill-opacity="1" filter="url(#filter-45)" xlink:href="#path-44"></use>
                                        <use fill="#FCFCFE" fill-rule="evenodd" xlink:href="#path-44"></use>
                                    </g>
                                    <text id="Symbol" font-family="SFProText-Regular, SF Pro Text" font-size="33.75" font-weight="normal" letter-spacing="-0.832058877" fill="#000000">
                                        <tspan x="13.7951798" y="44">A</tspan>
                                    </text>
                                </g>
                                <g id="System/Keyboards/iPhone/x/Light/Keys/Letter---Large" transform="translate(505.500000, 0.000000)">
                                    <g id="Rectangle">
                                        <use fill="black" fill-opacity="1" filter="url(#filter-47)" xlink:href="#path-46"></use>
                                        <use fill="#FCFCFE" fill-rule="evenodd" xlink:href="#path-46"></use>
                                    </g>
                                    <text id="Symbol" font-family="SFProText-Regular, SF Pro Text" font-size="33.75" font-weight="normal" letter-spacing="-0.832058877" fill="#000000">
                                        <tspan x="14.4461198" y="44">P</tspan>
                                    </text>
                                </g>
                                <g id="System/Keyboards/iPhone/x/Light/Keys/Letter---Large" transform="translate(450.000000, 0.000000)">
                                    <g id="Rectangle">
                                        <use fill="black" fill-opacity="1" filter="url(#filter-49)" xlink:href="#path-48"></use>
                                        <use fill="#FCFCFE" fill-rule="evenodd" xlink:href="#path-48"></use>
                                    </g>
                                    <text id="Symbol" font-family="SFProText-Regular, SF Pro Text" font-size="33.75" font-weight="normal" letter-spacing="-0.832058877" fill="#000000">
                                        <tspan x="12.1472306" y="44">O</tspan>
                                    </text>
                                </g>
                                <g id="System/Keyboards/iPhone/x/Light/Keys/Letter---Large" transform="translate(393.000000, 0.000000)">
                                    <g id="Rectangle">
                                        <use fill="black" fill-opacity="1" filter="url(#filter-51)" xlink:href="#path-50"></use>
                                        <use fill="#FCFCFE" fill-rule="evenodd" xlink:href="#path-50"></use>
                                    </g>
                                    <text id="Symbol" font-family="SFProText-Regular, SF Pro Text" font-size="33.75" font-weight="normal" letter-spacing="-0.832058877" fill="#000000">
                                        <tspan x="20.6506486" y="44">I</tspan>
                                    </text>
                                </g>
                                <g id="System/Keyboards/iPhone/x/Light/Keys/Letter---Large" transform="translate(337.500000, 0.000000)">
                                    <g id="Rectangle">
                                        <use fill="black" fill-opacity="1" filter="url(#filter-53)" xlink:href="#path-52"></use>
                                        <use fill="#FCFCFE" fill-rule="evenodd" xlink:href="#path-52"></use>
                                    </g>
                                    <text id="Symbol" font-family="SFProText-Regular, SF Pro Text" font-size="33.75" font-weight="normal" letter-spacing="-0.832058877" fill="#000000">
                                        <tspan x="12.7240128" y="44">U</tspan>
                                    </text>
                                </g>
                                <g id="System/Keyboards/iPhone/x/Light/Keys/Letter---Large" transform="translate(280.500000, 0.000000)">
                                    <g id="Rectangle">
                                        <use fill="black" fill-opacity="1" filter="url(#filter-55)" xlink:href="#path-54"></use>
                                        <use fill="#FCFCFE" fill-rule="evenodd" xlink:href="#path-54"></use>
                                    </g>
                                    <text id="Symbol" font-family="SFProText-Regular, SF Pro Text" font-size="33.75" font-weight="normal" letter-spacing="-0.832058877" fill="#000000">
                                        <tspan x="14.0918107" y="44">Y</tspan>
                                    </text>
                                </g>
                                <g id="System/Keyboards/iPhone/x/Light/Keys/Letter---Large" transform="translate(225.000000, 0.000000)">
                                    <g id="Rectangle">
                                        <use fill="black" fill-opacity="1" filter="url(#filter-57)" xlink:href="#path-56"></use>
                                        <use fill="#FCFCFE" fill-rule="evenodd" xlink:href="#path-56"></use>
                                    </g>
                                    <text id="Symbol" font-family="SFProText-Regular, SF Pro Text" font-size="33.75" font-weight="normal" letter-spacing="-0.832058877" fill="#000000">
                                        <tspan x="14.470839" y="44">T</tspan>
                                    </text>
                                </g>
                                <g id="System/Keyboards/iPhone/x/Light/Keys/Letter---Large" transform="translate(168.000000, 0.000000)">
                                    <g id="Rectangle">
                                        <use fill="black" fill-opacity="1" filter="url(#filter-59)" xlink:href="#path-58"></use>
                                        <use fill="#FCFCFE" fill-rule="evenodd" xlink:href="#path-58"></use>
                                    </g>
                                    <text id="Symbol" font-family="SFProText-Regular, SF Pro Text" font-size="33.75" font-weight="normal" letter-spacing="-0.832058877" fill="#000000">
                                        <tspan x="14.1412492" y="44">R</tspan>
                                    </text>
                                </g>
                                <g id="System/Keyboards/iPhone/x/Light/Keys/Letter---Large" transform="translate(112.500000, 0.000000)">
                                    <g id="Rectangle">
                                        <use fill="black" fill-opacity="1" filter="url(#filter-61)" xlink:href="#path-60"></use>
                                        <use fill="#FCFCFE" fill-rule="evenodd" xlink:href="#path-60"></use>
                                    </g>
                                    <text id="Symbol" font-family="SFProText-Regular, SF Pro Text" font-size="33.75" font-weight="normal" letter-spacing="-0.832058877" fill="#000000">
                                        <tspan x="15.1135392" y="44">E</tspan>
                                    </text>
                                </g>
                                <g id="System/Keyboards/iPhone/x/Light/Keys/Letter---Large" transform="translate(55.500000, 0.000000)">
                                    <g id="Rectangle">
                                        <use fill="black" fill-opacity="1" filter="url(#filter-63)" xlink:href="#path-62"></use>
                                        <use fill="#FCFCFE" fill-rule="evenodd" xlink:href="#path-62"></use>
                                    </g>
                                    <text id="Symbol" font-family="SFProText-Regular, SF Pro Text" font-size="33.75" font-weight="normal" letter-spacing="-0.832058877" fill="#000000">
                                        <tspan x="8.83485268" y="44">W</tspan>
                                    </text>
                                </g>
                                <g id="System/Keyboards/iPhone/x/Light/Keys/Letter---Large">
                                    <g id="Rectangle">
                                        <use fill="black" fill-opacity="1" filter="url(#filter-65)" xlink:href="#path-64"></use>
                                        <use fill="#FCFCFE" fill-rule="evenodd" xlink:href="#path-64"></use>
                                    </g>
                                    <text id="Symbol" font-family="SFProText-Regular, SF Pro Text" font-size="33.75" font-weight="normal" letter-spacing="-0.832058877" fill="#000000">
                                        <tspan x="12.1554704" y="44">Q</tspan>
                                    </text>
                                </g>
                            </g>
                        </g>
                    </g>
                    <polygon id="Rectangle" fill="#EDF3F9" mask="url(#mask-2)" points="0 -0.5 562.5 -0.5 562.5 160.5 0 160.5"></polygon>
                </g>
                <g id="icon-/-circle" transform="translate(24.000000, 70.500000)">
                    <rect id="Rectangle-Copy" fill="url(#linearGradient-66)" x="0" y="0" width="60" height="45" rx="22.5"></rect>
                    <path d="M29.3876689,36.5625 L29.0996495,36.5591926 C21.1547138,36.3918954 14.765625,29.8991048 14.765625,21.9140625 C14.765625,13.8239539 21.3239539,7.265625 29.4140625,7.265625 C37.5041711,7.265625 44.0625,13.8239539 44.0625,21.9140625 L44.0625,21.8876689 L44.0625,36.5625 L29.3876689,36.5625 Z" id="Combined-Shape-Copy-3" fill="#FFFFFF"></path>
                </g>
                <rect id="Rectangle" stroke="#CED5E0" stroke-width="1.5" fill="#FFFFFF" x="188.25" y="68.25" width="349.5" height="52.5" rx="25.5"></rect>
                <text id="" font-family="SFCompactDisplay-Regular, SF Compact Display" font-size="42" font-weight="normal" fill="#007AFF">
                    <tspan x="488.151855" y="107.5"></tspan>
                </text>
                <g id="Group" transform="translate(0.000000, 138.500000)">
                    <path d="M12,0.5 L551,0.5 C557.627417,0.5 563,5.872583 563,12.5 L563,262.5 L563,262.5 L0,262.5 L0,12.5 C-8.11624501e-16,5.872583 5.372583,0.5 12,0.5 Z" id="Rectangle" fill="#FFFFFF"></path>
                    <rect id="Rectangle" fill="#C4C4C6" x="254" y="5.5" width="54" height="4" rx="2"></rect>
                </g>
                <text id="Done" font-family="CircularStd-Book, Circular Std" font-size="27" font-weight="300" fill="#2194FF">
                    <tspan x="473.808" y="208.5">Done</tspan>
                </text>
                <text id="Cancel" font-family="CircularStd-Book, Circular Std" font-size="27" font-weight="300" fill="#2194FF">
                    <tspan x="24" y="208.5">Cancel</tspan>
                </text>
                <text id="New-message" font-family="CircularStd-Book, Circular Std" font-size="27" font-weight="300" fill="#000000">
                    <tspan x="195.7335" y="208.5">New message</tspan>
                </text>
                <rect id="Rectangle-Copy" fill="#E5EBF0" x="0" y="247.5" width="562.5" height="1.5"></rect>
                <rect id="Rectangle" fill="#2194FF" x="283.5" y="270" width="1.5" height="48"></rect>
                <text id="Thats-hilarious-" font-family="CircularStd-Bold, Circular Std" font-size="27" font-weight="bold" line-spacing="36" fill="#000000">
                    <tspan x="24" y="303">Thats hilarious </tspan>
                    <tspan x="218.616" y="303" font-family="AppleColorEmoji, Apple Color Emoji" font-weight="normal"></tspan>
                </text>
            </g>
        </g>
    </g>
</svg>