<?xml version="1.0" encoding="UTF-8"?>
<svg width="741px" height="797px" viewBox="0 0 741 797" version="1.1" xmlns="http://www.w3.org/2000/svg" xmlns:xlink="http://www.w3.org/1999/xlink">
    <!-- Generator: Sketch 64 (93537) - https://sketch.com -->
    <title>edit</title>
    <desc>Created with Sketch.</desc>
    <defs>
        <path d="M72.5,0 L491,0 C530.764502,-0.0581348311 563,32.1773632 563,71.9418652 C563,71.9612513 562.999992,71.9806374 562.941842,71.9999765 L562.558158,547.000023 C562.467875,586.741755 530.241792,618.941818 490.5,619 L72,619 C32.235498,619.058135 4.86974701e-15,586.822637 0,547.058135 C-2.37411286e-18,547.038749 7.82960368e-06,547.019363 0.0581583009,547.000023 L0.441841699,71.9999765 C0.532125087,32.2582448 32.7582083,0.0581818087 72.5,0 Z" id="path-1"></path>
        <filter x="-25.3%" y="-20.6%" width="150.6%" height="146.0%" filterUnits="objectBoundingBox" id="filter-3">
            <feOffset dx="0" dy="15" in="SourceAlpha" result="shadowOffsetOuter1"></feOffset>
            <feGaussianBlur stdDeviation="45" in="shadowOffsetOuter1" result="shadowBlurOuter1"></feGaussianBlur>
            <feColorMatrix values="0 0 0 0 0.858823529   0 0 0 0 0.917647059   0 0 0 0 0.960784314  0 0 0 1 0" type="matrix" in="shadowBlurOuter1"></feColorMatrix>
        </filter>
        <linearGradient x1="50%" y1="0%" x2="50%" y2="100%" id="linearGradient-4">
            <stop stop-color="#41BCFF" offset="0%"></stop>
            <stop stop-color="#016BFF" offset="100%"></stop>
        </linearGradient>
    </defs>
    <g id="website" stroke="none" stroke-width="1" fill="none" fill-rule="evenodd">
        <g id="web---desktop" transform="translate(-818.000000, -3034.000000)">
            <g id="edit" transform="translate(907.000000, 3108.000000)">
                <g id="Group-3">
                    <mask id="mask-2" fill="white">
                        <use xlink:href="#path-1"></use>
                    </mask>
                    <g id="Mask">
                        <use fill="black" fill-opacity="1" filter="url(#filter-3)" xlink:href="#path-1"></use>
                        <use fill="#FFFFFF" fill-rule="evenodd" xlink:href="#path-1"></use>
                    </g>
                    <rect id="Rectangle" fill="#EDF3F9" mask="url(#mask-2)" x="0" y="0.5" width="562.5" height="161"></rect>
                </g>
                <g id="Bars/Home-Indicator/iPhone/Light---Portrait" transform="translate(181.000000, 546.000000)" fill="#000000">
                    <rect id="Home-Indicator" x="0" y="31.5" width="201" height="7.5" rx="3.75"></rect>
                </g>
                <g id="icon-/-circle" transform="translate(24.000000, 71.500000)">
                    <rect id="Rectangle-Copy" fill="url(#linearGradient-4)" x="0" y="0" width="60" height="45" rx="22.5"></rect>
                    <path d="M29.3876689,36.5625 L29.0996495,36.5591926 C21.1547138,36.3918954 14.765625,29.8991048 14.765625,21.9140625 C14.765625,13.8239539 21.3239539,7.265625 29.4140625,7.265625 C37.5041711,7.265625 44.0625,13.8239539 44.0625,21.9140625 L44.0625,21.8876689 L44.0625,36.5625 L29.3876689,36.5625 Z" id="Combined-Shape-Copy-3" fill="#FFFFFF"></path>
                </g>
                <rect id="Rectangle" stroke="#CED5E0" stroke-width="1.5" fill="#FFFFFF" x="188.25" y="69.25" width="349.5" height="52.5" rx="25.5"></rect>
                <path d="M511.510254,114.385742 C522.379395,114.385742 531.382324,105.382812 531.382324,94.4931641 C531.382324,83.6240234 522.358887,74.6210938 511.489746,74.6210938 C500.620605,74.6210938 491.617676,83.6240234 491.617676,94.4931641 C491.617676,105.382812 500.641113,114.385742 511.510254,114.385742 Z" id="Path" fill="#007AFF" fill-rule="nonzero"></path>
                <path d="M511.510254,105.40332 C510.525879,105.40332 509.808105,104.706055 509.808105,103.742188 L509.808105,92.9960938 L509.992676,88.5869141 L507.941895,91.0478516 L505.378418,93.6728516 C505.111816,93.9394531 504.681152,94.1650391 504.209473,94.1650391 C503.286621,94.1650391 502.630371,93.4472656 502.630371,92.5449219 C502.630371,92.09375 502.773926,91.7041016 503.061035,91.3964844 L510.177246,84.2597656 C510.60791,83.8085938 511.018066,83.6240234 511.510254,83.6240234 C512.022949,83.6240234 512.412598,83.8291016 512.843262,84.2597656 L519.938965,91.3964844 C520.226074,91.7041016 520.410645,92.09375 520.410645,92.5449219 C520.410645,93.4472656 519.733887,94.1650391 518.811035,94.1650391 C518.339355,94.1650391 517.908691,93.9599609 517.621582,93.6728516 L515.099121,91.0478516 L513.027832,88.5664062 L513.191895,92.9960938 L513.191895,103.742188 C513.191895,104.706055 512.474121,105.40332 511.510254,105.40332 Z" id="Path" fill="#FFFFFF" fill-rule="nonzero"></path>
                <g id="Group" transform="translate(0.000000, 140.500000)">
                    <path d="M12,0 L550.5,0 C557.127417,-2.99379359e-15 562.5,5.372583 562.5,12 L562.5,383 L562.5,383 L0,383 L0,12 C-8.11624501e-16,5.372583 5.372583,1.21743675e-15 12,0 Z" id="Rectangle" fill="#FFFFFF"></path>
                    <rect id="Rectangle" fill="#C4C4C6" x="253.5" y="7.5" width="54" height="7.5" rx="3.75"></rect>
                </g>
                <rect id="Rectangle-Copy" fill="#E5EBF0" x="0" y="248.5" width="562.5" height="1.5"></rect>
                <rect id="Rectangle-Copy-3" fill="#FFFFFF" x="0" y="250" width="562.5" height="90"></rect>
                <rect id="Rectangle" fill="#E5EBF0" x="0" y="341.5" width="562.5" height="1.5"></rect>
                <rect id="Rectangle-Copy-8" fill="#FFFFFF" x="0" y="343" width="562.5" height="90"></rect>
                <rect id="Rectangle-Copy-9" fill="#FFFFFF" x="0" y="436" width="562.5" height="90"></rect>
                <text id="😂😂" font-family="CircularStd-Bold, Circular Std" font-size="27" font-weight="bold" line-spacing="36" fill="#000000">
                    <tspan x="276.5" y="490"> </tspan>
                    <tspan x="283.169" y="490" font-family="AppleColorEmoji, Apple Color Emoji" font-weight="normal">😂😂</tspan>
                </text>
                <path d="M94.413,305 L94.413,297.062 L102.756,297.062 L102.756,305 L106.509,305 L106.509,285.857 L102.756,285.857 L102.756,293.552 L94.413,293.552 L94.413,285.857 L90.687,285.857 L90.687,305 L94.413,305 Z M112.395,289.556 C113.637,289.556 114.609,288.557 114.609,287.369 C114.609,286.127 113.637,285.128 112.395,285.128 C111.18,285.128 110.181,286.127 110.181,287.369 C110.181,288.557 111.18,289.556 112.395,289.556 Z M114.204,305 L114.204,291.716 L110.613,291.716 L110.613,305 L114.204,305 Z M118.146,309.563 C120.144,309.32 122.898,307.646 122.898,303.677 C122.898,301.922 121.899,300.572 120.225,300.572 C118.821,300.572 117.768,301.544 117.768,302.84 C117.768,304.136 118.686,305.081 120.009,305.081 C120.306,305.081 120.603,305 120.711,304.919 C120.657,306.404 119.361,307.565 118.146,307.835 L118.146,309.563 Z M136.722,305 L136.722,297.197 C136.803,295.739 137.694,294.605 139.206,294.605 C140.934,294.605 141.663,295.766 141.663,297.251 L141.663,305 L145.254,305 L145.254,296.63 C145.254,293.714 143.688,291.365 140.313,291.365 C139.044,291.365 137.586,291.797 136.722,292.823 L136.722,285.452 L133.131,285.452 L133.131,305 L136.722,305 Z M154.866,305.405 C158.835,305.405 161.832,302.435 161.832,298.358 C161.832,294.254 158.835,291.311 154.866,291.311 C150.897,291.311 147.9,294.254 147.9,298.358 C147.9,302.435 150.897,305.405 154.866,305.405 Z M154.866,302.138 C153.111,302.138 151.491,300.842 151.491,298.358 C151.491,295.847 153.111,294.578 154.866,294.578 C156.621,294.578 158.241,295.847 158.241,298.358 C158.241,300.869 156.621,302.138 154.866,302.138 Z M170.607,305 L173.658,295.928 L176.763,305 L180.354,305 L184.512,291.716 L180.948,291.716 L178.491,300.275 L175.629,291.716 L171.849,291.716 L168.96,300.248 L166.503,291.716 L162.723,291.716 L166.962,305 L170.607,305 Z M197.175,305.378 C199.146,305.378 200.415,304.46 201.09,303.407 C201.09,303.92 201.144,304.649 201.225,305 L204.519,305 C204.438,304.541 204.357,303.596 204.357,302.894 L204.357,296.36 C204.357,293.687 202.791,291.311 198.579,291.311 C195.015,291.311 193.098,293.606 192.882,295.685 L196.068,296.36 C196.176,295.199 197.04,294.2 198.606,294.2 C200.118,294.2 200.847,294.983 200.847,295.928 C200.847,296.387 200.604,296.765 199.848,296.873 L196.581,297.359 C194.367,297.683 192.612,299.006 192.612,301.382 C192.612,303.461 194.34,305.378 197.175,305.378 Z M197.931,302.705 C196.77,302.705 196.203,301.949 196.203,301.166 C196.203,300.14 196.932,299.627 197.85,299.492 L200.847,299.033 L200.847,299.627 C200.847,301.976 199.443,302.705 197.931,302.705 Z M211.566,305 L211.566,298.925 C211.566,296.063 213.159,295.172 214.995,295.172 C215.319,295.172 215.67,295.199 216.075,295.28 L216.075,291.662 C215.805,291.635 215.535,291.608 215.238,291.608 C214.104,291.608 212.268,291.932 211.458,293.687 L211.458,291.716 L207.975,291.716 L207.975,305 L211.566,305 Z M224.337,305.405 C227.604,305.405 229.71,303.488 230.385,301.193 L227.388,300.302 C226.956,301.49 226.038,302.327 224.364,302.327 C222.582,302.327 221.097,301.058 221.016,299.303 L230.52,299.303 C230.52,299.249 230.574,298.709 230.574,298.196 C230.574,293.93 228.117,291.311 224.013,291.311 C220.611,291.311 217.479,294.065 217.479,298.304 C217.479,302.786 220.692,305.405 224.337,305.405 Z M227.037,296.846 L221.097,296.846 C221.178,295.631 222.204,294.227 224.067,294.227 C226.119,294.227 226.983,295.523 227.037,296.846 Z M244.668,310.238 L253.011,291.716 L249.177,291.716 L245.91,299.492 L242.373,291.716 L238.35,291.716 L243.993,303.326 L240.861,310.238 L244.668,310.238 Z M260.544,305.405 C264.513,305.405 267.51,302.435 267.51,298.358 C267.51,294.254 264.513,291.311 260.544,291.311 C256.575,291.311 253.578,294.254 253.578,298.358 C253.578,302.435 256.575,305.405 260.544,305.405 Z M260.544,302.138 C258.789,302.138 257.169,300.842 257.169,298.358 C257.169,295.847 258.789,294.578 260.544,294.578 C262.299,294.578 263.919,295.847 263.919,298.358 C263.919,300.869 262.299,302.138 260.544,302.138 Z M275.205,305.351 C276.609,305.351 278.148,304.811 278.877,303.569 C278.877,304.109 278.931,304.73 278.985,305 L282.414,305 C282.36,304.541 282.279,303.623 282.279,302.597 L282.279,291.716 L278.688,291.716 L278.688,299.438 C278.688,300.977 277.77,302.057 276.177,302.057 C274.503,302.057 273.747,300.869 273.747,299.384 L273.747,291.716 L270.156,291.716 L270.156,300.113 C270.156,303.002 271.992,305.351 275.205,305.351 Z M292.377,299.168 L292.377,299.006 C292.377,297.899 292.89,297.062 293.835,296.387 L294.942,295.604 C296.535,294.47 297.615,292.958 297.615,290.825 C297.615,288.098 295.428,285.452 291.243,285.452 C287.247,285.452 285.06,288.26 285.06,291.176 C285.06,291.581 285.087,292.013 285.195,292.391 L288.597,292.526 C288.516,292.283 288.489,291.986 288.489,291.662 C288.489,290.15 289.326,288.611 291.243,288.611 C293.052,288.611 293.943,289.799 293.943,291.041 C293.943,291.851 293.592,292.58 292.782,293.174 L291.486,294.146 C289.947,295.307 289.353,296.63 289.353,298.061 C289.353,298.466 289.407,298.817 289.461,299.168 L292.377,299.168 Z M290.973,305.216 C292.161,305.216 293.133,304.271 293.133,303.083 C293.133,301.895 292.161,300.923 290.973,300.923 C289.785,300.923 288.84,301.895 288.84,303.083 C288.84,304.271 289.785,305.216 290.973,305.216 Z" id="Hi,howareyou?" fill="#000000" fill-rule="nonzero"></path>
                <path d="M94.467,398 L94.467,378.857 L90.687,378.857 L90.687,398 L94.467,398 Z M97.896,386.39 C99.597,386.228 102.081,384.905 102.081,381.287 C102.081,379.856 101.163,378.668 99.732,378.668 C98.463,378.668 97.572,379.586 97.572,380.639 C97.572,381.773 98.328,382.583 99.543,382.583 C99.786,382.583 99.975,382.529 100.11,382.448 C100.056,383.69 98.922,384.581 97.896,384.743 L97.896,386.39 Z M107.751,398 L107.751,390.224 C107.751,388.766 108.669,387.605 110.235,387.605 C111.855,387.605 112.584,388.685 112.584,390.116 L112.584,398 L116.148,398 L116.148,390.224 C116.148,388.793 117.066,387.605 118.605,387.605 C120.252,387.605 120.954,388.685 120.954,390.116 L120.954,398 L124.437,398 L124.437,389.387 C124.437,385.823 122.088,384.338 119.631,384.338 C117.876,384.338 116.472,384.932 115.419,386.552 C114.744,385.121 113.286,384.338 111.477,384.338 C110.019,384.338 108.318,385.04 107.589,386.336 L107.589,384.716 L104.16,384.716 L104.16,398 L107.751,398 Z M140.718,398.405 C144.687,398.405 147.684,395.435 147.684,391.358 C147.684,387.254 144.687,384.311 140.718,384.311 C136.749,384.311 133.752,387.254 133.752,391.358 C133.752,395.435 136.749,398.405 140.718,398.405 Z M140.718,395.138 C138.963,395.138 137.343,393.842 137.343,391.358 C137.343,388.847 138.963,387.578 140.718,387.578 C142.473,387.578 144.093,388.847 144.093,391.358 C144.093,393.869 142.473,395.138 140.718,395.138 Z M154.11,398 L154.11,390.359 C154.11,388.82 155.028,387.605 156.594,387.605 C158.322,387.605 159.051,388.766 159.051,390.251 L159.051,398 L162.642,398 L162.642,389.63 C162.642,386.714 161.13,384.365 157.836,384.365 C156.405,384.365 154.812,384.986 154.002,386.363 L154.002,384.716 L150.519,384.716 L150.519,398 L154.11,398 Z M176.547,398 L176.547,390.224 C176.547,388.766 177.465,387.605 179.031,387.605 C180.651,387.605 181.38,388.685 181.38,390.116 L181.38,398 L184.944,398 L184.944,390.224 C184.944,388.793 185.862,387.605 187.401,387.605 C189.048,387.605 189.75,388.685 189.75,390.116 L189.75,398 L193.233,398 L193.233,389.387 C193.233,385.823 190.884,384.338 188.427,384.338 C186.672,384.338 185.268,384.932 184.215,386.552 C183.54,385.121 182.082,384.338 180.273,384.338 C178.815,384.338 177.114,385.04 176.385,386.336 L176.385,384.716 L172.956,384.716 L172.956,398 L176.547,398 Z M201.225,403.238 L209.568,384.716 L205.734,384.716 L202.467,392.492 L198.93,384.716 L194.907,384.716 L200.55,396.326 L197.418,403.238 L201.225,403.238 Z M224.715,398 L227.766,388.928 L230.871,398 L234.462,398 L238.62,384.716 L235.056,384.716 L232.599,393.275 L229.737,384.716 L225.957,384.716 L223.068,393.248 L220.611,384.716 L216.831,384.716 L221.07,398 L224.715,398 Z M244.56,398.378 C246.531,398.378 247.8,397.46 248.475,396.407 C248.475,396.92 248.529,397.649 248.61,398 L251.904,398 C251.823,397.541 251.742,396.596 251.742,395.894 L251.742,389.36 C251.742,386.687 250.176,384.311 245.964,384.311 C242.4,384.311 240.483,386.606 240.267,388.685 L243.453,389.36 C243.561,388.199 244.425,387.2 245.991,387.2 C247.503,387.2 248.232,387.983 248.232,388.928 C248.232,389.387 247.989,389.765 247.233,389.873 L243.966,390.359 C241.752,390.683 239.997,392.006 239.997,394.382 C239.997,396.461 241.725,398.378 244.56,398.378 Z M245.316,395.705 C244.155,395.705 243.588,394.949 243.588,394.166 C243.588,393.14 244.317,392.627 245.235,392.492 L248.232,392.033 L248.232,392.627 C248.232,394.976 246.828,395.705 245.316,395.705 Z M259.599,403.238 L267.942,384.716 L264.108,384.716 L260.841,392.492 L257.304,384.716 L253.281,384.716 L258.924,396.326 L255.792,403.238 L259.599,403.238 Z" id="I’monmyway" fill="#000000" fill-rule="nonzero"></path>
                <path d="M98.733,490 L98.733,474.394 L104.781,474.394 L104.781,470.857 L88.932,470.857 L88.932,474.394 L94.98,474.394 L94.98,490 L98.733,490 Z M110.802,490 L110.802,482.197 C110.883,480.739 111.774,479.605 113.286,479.605 C115.014,479.605 115.743,480.766 115.743,482.251 L115.743,490 L119.334,490 L119.334,481.63 C119.334,478.714 117.768,476.365 114.393,476.365 C113.124,476.365 111.666,476.797 110.802,477.823 L110.802,470.452 L107.211,470.452 L107.211,490 L110.802,490 Z M126.732,490.378 C128.703,490.378 129.972,489.46 130.647,488.407 C130.647,488.92 130.701,489.649 130.782,490 L134.076,490 C133.995,489.541 133.914,488.596 133.914,487.894 L133.914,481.36 C133.914,478.687 132.348,476.311 128.136,476.311 C124.572,476.311 122.655,478.606 122.439,480.685 L125.625,481.36 C125.733,480.199 126.597,479.2 128.163,479.2 C129.675,479.2 130.404,479.983 130.404,480.928 C130.404,481.387 130.161,481.765 129.405,481.873 L126.138,482.359 C123.924,482.683 122.169,484.006 122.169,486.382 C122.169,488.461 123.897,490.378 126.732,490.378 Z M127.488,487.705 C126.327,487.705 125.76,486.949 125.76,486.166 C125.76,485.14 126.489,484.627 127.407,484.492 L130.404,484.033 L130.404,484.627 C130.404,486.976 129,487.705 127.488,487.705 Z M142.527,490.189 C143.58,490.189 144.228,490 144.552,489.865 L144.552,486.895 C144.363,486.949 143.877,487.003 143.445,487.003 C142.419,487.003 141.879,486.625 141.879,485.464 L141.879,479.902 L144.552,479.902 L144.552,476.716 L141.879,476.716 L141.879,472.747 L138.639,472.747 L138.639,474.61 C138.639,475.798 137.991,476.716 136.587,476.716 L135.912,476.716 L135.912,479.902 L138.315,479.902 L138.315,486.085 C138.315,488.65 139.935,490.189 142.527,490.189 Z M146.577,478.39 C148.278,478.228 150.762,476.905 150.762,473.287 C150.762,471.856 149.844,470.668 148.413,470.668 C147.144,470.668 146.253,471.586 146.253,472.639 C146.253,473.773 147.009,474.583 148.224,474.583 C148.467,474.583 148.656,474.529 148.791,474.448 C148.737,475.69 147.603,476.581 146.577,476.743 L146.577,478.39 Z M156.513,490.405 C159.996,490.405 161.67,488.191 161.67,486.031 C161.67,484.087 160.347,482.494 157.728,481.954 L155.838,481.549 C155.109,481.414 154.623,481.009 154.623,480.361 C154.623,479.605 155.379,479.038 156.324,479.038 C157.836,479.038 158.403,480.037 158.511,480.82 L161.508,480.145 C161.346,478.714 160.077,476.311 156.297,476.311 C153.435,476.311 151.329,478.282 151.329,480.658 C151.329,482.521 152.49,484.06 155.055,484.627 L156.81,485.032 C157.836,485.248 158.241,485.734 158.241,486.328 C158.241,487.03 157.674,487.651 156.486,487.651 C154.92,487.651 154.137,486.679 154.056,485.626 L150.978,486.301 C151.14,487.813 152.517,490.405 156.513,490.405 Z M174.819,490 L174.819,482.197 C174.9,480.739 175.791,479.605 177.303,479.605 C179.031,479.605 179.76,480.766 179.76,482.251 L179.76,490 L183.351,490 L183.351,481.63 C183.351,478.714 181.785,476.365 178.41,476.365 C177.141,476.365 175.683,476.797 174.819,477.823 L174.819,470.452 L171.228,470.452 L171.228,490 L174.819,490 Z M188.778,474.556 C190.02,474.556 190.992,473.557 190.992,472.369 C190.992,471.127 190.02,470.128 188.778,470.128 C187.563,470.128 186.564,471.127 186.564,472.369 C186.564,473.557 187.563,474.556 188.778,474.556 Z M190.587,490 L190.587,476.716 L186.996,476.716 L186.996,490 L190.587,490 Z M198.012,490 L198.012,470.452 L194.421,470.452 L194.421,490 L198.012,490 Z M205.518,490.378 C207.489,490.378 208.758,489.46 209.433,488.407 C209.433,488.92 209.487,489.649 209.568,490 L212.862,490 C212.781,489.541 212.7,488.596 212.7,487.894 L212.7,481.36 C212.7,478.687 211.134,476.311 206.922,476.311 C203.358,476.311 201.441,478.606 201.225,480.685 L204.411,481.36 C204.519,480.199 205.383,479.2 206.949,479.2 C208.461,479.2 209.19,479.983 209.19,480.928 C209.19,481.387 208.947,481.765 208.191,481.873 L204.924,482.359 C202.71,482.683 200.955,484.006 200.955,486.382 C200.955,488.461 202.683,490.378 205.518,490.378 Z M206.274,487.705 C205.113,487.705 204.546,486.949 204.546,486.166 C204.546,485.14 205.275,484.627 206.193,484.492 L209.19,484.033 L209.19,484.627 C209.19,486.976 207.786,487.705 206.274,487.705 Z M219.909,490 L219.909,483.925 C219.909,481.063 221.502,480.172 223.338,480.172 C223.662,480.172 224.013,480.199 224.418,480.28 L224.418,476.662 C224.148,476.635 223.878,476.608 223.581,476.608 C222.447,476.608 220.611,476.932 219.801,478.687 L219.801,476.716 L216.318,476.716 L216.318,490 L219.909,490 Z M228.738,474.556 C229.98,474.556 230.952,473.557 230.952,472.369 C230.952,471.127 229.98,470.128 228.738,470.128 C227.523,470.128 226.524,471.127 226.524,472.369 C226.524,473.557 227.523,474.556 228.738,474.556 Z M230.547,490 L230.547,476.716 L226.956,476.716 L226.956,490 L230.547,490 Z M240.348,490.405 C244.317,490.405 247.314,487.435 247.314,483.358 C247.314,479.254 244.317,476.311 240.348,476.311 C236.379,476.311 233.382,479.254 233.382,483.358 C233.382,487.435 236.379,490.405 240.348,490.405 Z M240.348,487.138 C238.593,487.138 236.973,485.842 236.973,483.358 C236.973,480.847 238.593,479.578 240.348,479.578 C242.103,479.578 243.723,480.847 243.723,483.358 C243.723,485.869 242.103,487.138 240.348,487.138 Z M255.009,490.351 C256.413,490.351 257.952,489.811 258.681,488.569 C258.681,489.109 258.735,489.73 258.789,490 L262.218,490 C262.164,489.541 262.083,488.623 262.083,487.597 L262.083,476.716 L258.492,476.716 L258.492,484.438 C258.492,485.977 257.574,487.057 255.981,487.057 C254.307,487.057 253.551,485.869 253.551,484.384 L253.551,476.716 L249.96,476.716 L249.96,485.113 C249.96,488.002 251.796,490.351 255.009,490.351 Z M270.318,490.405 C273.801,490.405 275.475,488.191 275.475,486.031 C275.475,484.087 274.152,482.494 271.533,481.954 L269.643,481.549 C268.914,481.414 268.428,481.009 268.428,480.361 C268.428,479.605 269.184,479.038 270.129,479.038 C271.641,479.038 272.208,480.037 272.316,480.82 L275.313,480.145 C275.151,478.714 273.882,476.311 270.102,476.311 C267.24,476.311 265.134,478.282 265.134,480.658 C265.134,482.521 266.295,484.06 268.86,484.627 L270.615,485.032 C271.641,485.248 272.046,485.734 272.046,486.328 C272.046,487.03 271.479,487.651 270.291,487.651 C268.725,487.651 267.942,486.679 267.861,485.626 L264.783,486.301 C264.945,487.813 266.322,490.405 270.318,490.405 Z" id="That’shilarious" fill="#000000" fill-rule="nonzero"></path>
                <path d="M44.0214844,313.044922 C53.3378906,313.044922 61.0546875,305.328125 61.0546875,295.994141 C61.0546875,286.677734 53.3203125,278.960938 44.0039062,278.960938 C34.6875,278.960938 26.9707031,286.677734 26.9707031,295.994141 C26.9707031,305.328125 34.7050781,313.044922 44.0214844,313.044922 Z" id="Path" fill="#FF0000" fill-rule="nonzero"></path>
                <path d="M51,297.541016 L37.0253906,297.541016 C36.0234375,297.541016 35.3203125,296.996094 35.3203125,296.029297 C35.3203125,295.044922 35.9882812,294.482422 37.0253906,294.482422 L51,294.482422 C52.0371094,294.482422 52.6875,295.044922 52.6875,296.029297 C52.6875,296.996094 52.0019531,297.541016 51,297.541016 Z" id="Path" fill="#FFFFFF" fill-rule="nonzero"></path>
                <path d="M44.0214844,406.044922 C53.3378906,406.044922 61.0546875,398.328125 61.0546875,388.994141 C61.0546875,379.677734 53.3203125,371.960938 44.0039062,371.960938 C34.6875,371.960938 26.9707031,379.677734 26.9707031,388.994141 C26.9707031,398.328125 34.7050781,406.044922 44.0214844,406.044922 Z" id="Path" fill="#FF0000" fill-rule="nonzero"></path>
                <path d="M51,390.541016 L37.0253906,390.541016 C36.0234375,390.541016 35.3203125,389.996094 35.3203125,389.029297 C35.3203125,388.044922 35.9882812,387.482422 37.0253906,387.482422 L51,387.482422 C52.0371094,387.482422 52.6875,388.044922 52.6875,389.029297 C52.6875,389.996094 52.0019531,390.541016 51,390.541016 Z" id="Path" fill="#FFFFFF" fill-rule="nonzero"></path>
                <path d="M44.0214844,499.044922 C53.3378906,499.044922 61.0546875,491.328125 61.0546875,481.994141 C61.0546875,472.677734 53.3203125,464.960938 44.0039062,464.960938 C34.6875,464.960938 26.9707031,472.677734 26.9707031,481.994141 C26.9707031,491.328125 34.7050781,499.044922 44.0214844,499.044922 Z" id="Path" fill="#FF0000" fill-rule="nonzero"></path>
                <path d="M51,483.541016 L37.0253906,483.541016 C36.0234375,483.541016 35.3203125,482.996094 35.3203125,482.029297 C35.3203125,481.044922 35.9882812,480.482422 37.0253906,480.482422 L51,480.482422 C52.0371094,480.482422 52.6875,481.044922 52.6875,482.029297 C52.6875,482.996094 52.0019531,483.541016 51,483.541016 Z" id="Path" fill="#FFFFFF" fill-rule="nonzero"></path>
                <g id="Group-10" transform="translate(499.839844, 287.328125)" fill="#D1D3DA" fill-rule="nonzero">
                    <path d="M32.4492188,2.70703125 C33.2050781,2.70703125 33.8027344,2.09179688 33.8027344,1.35351562 C33.8027344,0.615234375 33.2050781,0 32.4492188,0 L1.35351562,0 C0.59765625,0 0,0.615234375 0,1.35351562 C0,2.09179688 0.59765625,2.70703125 1.35351562,2.70703125 L32.4492188,2.70703125 Z" id="Path"></path>
                    <path d="M32.4492188,10.0371094 C33.2050781,10.0371094 33.8027344,9.43945312 33.8027344,8.70117188 C33.8027344,7.92773438 33.2050781,7.33007812 32.4492188,7.33007812 L1.35351562,7.33007812 C0.59765625,7.33007812 0,7.92773438 0,8.70117188 C0,9.43945312 0.59765625,10.0371094 1.35351562,10.0371094 L32.4492188,10.0371094 Z" id="Path"></path>
                    <path d="M32.4492188,17.3847656 C33.2050781,17.3847656 33.8027344,16.7871094 33.8027344,16.03125 C33.8027344,15.2753906 33.2050781,14.6777344 32.4492188,14.6777344 L1.35351562,14.6777344 C0.59765625,14.6777344 0,15.2753906 0,16.03125 C0,16.7871094 0.59765625,17.3847656 1.35351562,17.3847656 L32.4492188,17.3847656 Z" id="Path"></path>
                </g>
                <g id="Group-4" transform="translate(499.839844, 380.328125)" fill="#D1D3DA" fill-rule="nonzero">
                    <path d="M32.4492188,2.70703125 C33.2050781,2.70703125 33.8027344,2.09179688 33.8027344,1.35351562 C33.8027344,0.615234375 33.2050781,0 32.4492188,0 L1.35351562,0 C0.59765625,0 0,0.615234375 0,1.35351562 C0,2.09179688 0.59765625,2.70703125 1.35351562,2.70703125 L32.4492188,2.70703125 Z" id="Path"></path>
                    <path d="M32.4492188,10.0371094 C33.2050781,10.0371094 33.8027344,9.43945312 33.8027344,8.70117188 C33.8027344,7.92773438 33.2050781,7.33007812 32.4492188,7.33007812 L1.35351562,7.33007812 C0.59765625,7.33007812 0,7.92773438 0,8.70117188 C0,9.43945312 0.59765625,10.0371094 1.35351562,10.0371094 L32.4492188,10.0371094 Z" id="Path"></path>
                    <path d="M32.4492188,17.3847656 C33.2050781,17.3847656 33.8027344,16.7871094 33.8027344,16.03125 C33.8027344,15.2753906 33.2050781,14.6777344 32.4492188,14.6777344 L1.35351562,14.6777344 C0.59765625,14.6777344 0,15.2753906 0,16.03125 C0,16.7871094 0.59765625,17.3847656 1.35351562,17.3847656 L32.4492188,17.3847656 Z" id="Path"></path>
                </g>
                <g id="Group-2" transform="translate(499.839844, 473.328125)" fill="#D1D3DA" fill-rule="nonzero">
                    <path d="M32.4492188,2.70703125 C33.2050781,2.70703125 33.8027344,2.09179688 33.8027344,1.35351562 C33.8027344,0.615234375 33.2050781,0 32.4492188,0 L1.35351562,0 C0.59765625,0 0,0.615234375 0,1.35351562 C0,2.09179688 0.59765625,2.70703125 1.35351562,2.70703125 L32.4492188,2.70703125 Z" id="Path"></path>
                    <path d="M32.4492188,10.0371094 C33.2050781,10.0371094 33.8027344,9.43945312 33.8027344,8.70117188 C33.8027344,7.92773438 33.2050781,7.33007812 32.4492188,7.33007812 L1.35351562,7.33007812 C0.59765625,7.33007812 0,7.92773438 0,8.70117188 C0,9.43945312 0.59765625,10.0371094 1.35351562,10.0371094 L32.4492188,10.0371094 Z" id="Path"></path>
                    <path d="M32.4492188,17.3847656 C33.2050781,17.3847656 33.8027344,16.7871094 33.8027344,16.03125 C33.8027344,15.2753906 33.2050781,14.6777344 32.4492188,14.6777344 L1.35351562,14.6777344 C0.59765625,14.6777344 0,15.2753906 0,16.03125 C0,16.7871094 0.59765625,17.3847656 1.35351562,17.3847656 L32.4492188,17.3847656 Z" id="Path"></path>
                </g>
                <rect id="Rectangle-Copy-5" fill="#E5EBF0" x="0" y="434.5" width="562.5" height="1.5"></rect>
                <rect id="Rectangle-Copy-10" fill="#E5EBF0" x="0" y="527.5" width="562.5" height="1.5"></rect>
                <rect id="Rectangle-Copy-4" fill="#E5EBF0" x="0" y="341.5" width="562.5" height="1.5"></rect>
                <rect id="Rectangle-Copy-11" fill="#E5EBF0" x="0" y="434.5" width="562.5" height="1.5"></rect>
                <rect id="Rectangle-Copy-12" fill="#E5EBF0" x="0" y="527.5" width="562.5" height="1.5"></rect>
                <path d="M482.88,209.5 C485.454,209.5 487.623,208.6585 489.387,206.9755 C491.151,205.2925 492.033,202.957 492.033,199.969 C492.033,196.963 491.16,194.6095 489.414,192.9085 C487.668,191.2075 485.508,190.357 482.934,190.357 L482.934,190.357 L476.238,190.357 L476.238,209.5 L482.88,209.5 Z M482.799,207.151 L478.884,207.151 L478.884,192.706 L482.853,192.706 C484.725,192.706 486.2685,193.336 487.4835,194.596 C488.6985,195.856 489.306,197.647 489.306,199.969 C489.306,202.273 488.6895,204.046 487.4565,205.288 C486.2235,206.53 484.671,207.151 482.799,207.151 L482.799,207.151 Z M500.97,209.905 C502.914,209.905 504.507,209.2525 505.749,207.9475 C506.991,206.6425 507.612,204.991 507.612,202.993 C507.612,201.013 506.9865,199.3705 505.7355,198.0655 C504.4845,196.7605 502.896,196.108 500.97,196.108 C499.044,196.108 497.451,196.765 496.191,198.079 C494.949,199.375 494.328,201.013 494.328,202.993 C494.328,204.991 494.949,206.6425 496.191,207.9475 C497.433,209.2525 499.026,209.905 500.97,209.905 Z M500.97,207.637 C499.836,207.637 498.873,207.232 498.081,206.422 C497.307,205.594 496.92,204.451 496.92,202.993 C496.92,201.553 497.3115,200.4235 498.0945,199.6045 C498.8775,198.7855 499.836,198.376 500.97,198.376 C502.104,198.376 503.0625,198.7855 503.8455,199.6045 C504.6285,200.4235 505.02,201.553 505.02,202.993 C505.02,204.451 504.6285,205.5895 503.8455,206.4085 C503.0625,207.2275 502.104,207.637 500.97,207.637 Z M513.39,209.5 L513.39,201.994 C513.39,200.968 513.6555,200.1175 514.1865,199.4425 C514.7175,198.7675 515.46,198.43 516.414,198.43 C518.43,198.43 519.438,199.519 519.438,201.697 L519.438,201.697 L519.438,209.5 L521.976,209.5 L521.976,201.265 C521.976,199.753 521.5755,198.52 520.7745,197.566 C519.9735,196.612 518.826,196.135 517.332,196.135 C515.532,196.135 514.2,196.882 513.336,198.376 L513.336,198.376 L513.336,196.513 L510.852,196.513 L510.852,209.5 L513.39,209.5 Z M531.507,209.905 C532.965,209.905 534.207,209.5225 535.233,208.7575 C536.259,207.9925 536.961,207.007 537.339,205.801 L537.339,205.801 L535.152,205.045 C534.576,206.791 533.361,207.664 531.507,207.664 C530.409,207.664 529.4865,207.295 528.7395,206.557 C527.9925,205.819 527.61,204.874 527.592,203.722 L527.592,203.722 L537.366,203.722 C537.402,203.506 537.42,203.236 537.42,202.912 C537.42,200.842 536.871,199.1905 535.773,197.9575 C534.675,196.7245 533.145,196.108 531.183,196.108 C529.491,196.108 528.033,196.756 526.809,198.052 C525.585,199.348 524.973,200.986 524.973,202.966 C524.973,205.09 525.6075,206.7775 526.8765,208.0285 C528.1455,209.2795 529.689,209.905 531.507,209.905 Z M534.774,201.67 L527.673,201.67 C527.727,200.77 528.078,199.9915 528.726,199.3345 C529.374,198.6775 530.202,198.349 531.21,198.349 C532.326,198.349 533.19,198.6595 533.802,199.2805 C534.414,199.9015 534.738,200.698 534.774,201.67 L534.774,201.67 Z" id="Done" fill="#2194FF" fill-rule="nonzero"></path>
                <path d="M34.719,209.905 C36.861,209.905 38.6745,209.3425 40.1595,208.2175 C41.6445,207.0925 42.648,205.603 43.17,203.749 L43.17,203.749 L40.821,202.885 C40.407,204.271 39.678,205.3825 38.634,206.2195 C37.59,207.0565 36.285,207.475 34.719,207.475 C32.847,207.475 31.245,206.809 29.913,205.477 C28.581,204.145 27.915,202.291 27.915,199.915 C27.915,197.539 28.581,195.6895 29.913,194.3665 C31.245,193.0435 32.847,192.382 34.719,192.382 C36.285,192.382 37.581,192.7735 38.607,193.5565 C39.633,194.3395 40.326,195.451 40.686,196.891 L40.686,196.891 L43.143,196.027 C42.657,194.155 41.6715,192.6745 40.1865,191.5855 C38.7015,190.4965 36.879,189.952 34.719,189.952 C33.099,189.952 31.578,190.3255 30.156,191.0725 C28.734,191.8195 27.555,192.967 26.619,194.515 C25.683,196.063 25.215,197.863 25.215,199.915 C25.215,202.975 26.1465,205.405 28.0095,207.205 C29.8725,209.005 32.109,209.905 34.719,209.905 Z M49.407,209.905 C50.451,209.905 51.3195,209.689 52.0125,209.257 C52.7055,208.825 53.232,208.321 53.592,207.745 C53.592,208.375 53.637,208.96 53.727,209.5 L53.727,209.5 L56.211,209.5 C56.103,208.852 56.049,208.141 56.049,207.367 L56.049,207.367 L56.049,200.86 C56.049,199.474 55.608,198.3355 54.726,197.4445 C53.844,196.5535 52.485,196.108 50.649,196.108 C49.245,196.108 48.039,196.4995 47.031,197.2825 C46.023,198.0655 45.456,199.078 45.33,200.32 L45.33,200.32 L47.76,200.887 C47.85,200.095 48.147,199.4605 48.651,198.9835 C49.155,198.5065 49.839,198.268 50.703,198.268 C51.639,198.268 52.341,198.484 52.809,198.916 C53.277,199.348 53.511,199.906 53.511,200.59 C53.511,201.148 53.178,201.472 52.512,201.562 L52.512,201.562 L49.002,202.075 C47.814,202.237 46.86,202.6555 46.14,203.3305 C45.42,204.0055 45.06,204.901 45.06,206.017 C45.06,207.079 45.465,207.9925 46.275,208.7575 C47.085,209.5225 48.129,209.905 49.407,209.905 Z M49.758,207.772 C49.128,207.772 48.6195,207.583 48.2325,207.205 C47.8455,206.827 47.652,206.386 47.652,205.882 C47.652,205.324 47.823,204.883 48.165,204.559 C48.507,204.235 48.966,204.028 49.542,203.938 L49.542,203.938 L53.511,203.344 L53.511,203.938 C53.511,205.27 53.169,206.242 52.485,206.854 C51.801,207.466 50.892,207.772 49.758,207.772 Z M62.529,209.5 L62.529,201.994 C62.529,200.968 62.7945,200.1175 63.3255,199.4425 C63.8565,198.7675 64.599,198.43 65.553,198.43 C67.569,198.43 68.577,199.519 68.577,201.697 L68.577,201.697 L68.577,209.5 L71.115,209.5 L71.115,201.265 C71.115,199.753 70.7145,198.52 69.9135,197.566 C69.1125,196.612 67.965,196.135 66.471,196.135 C64.671,196.135 63.339,196.882 62.475,198.376 L62.475,198.376 L62.475,196.513 L59.991,196.513 L59.991,209.5 L62.529,209.5 Z M80.646,209.905 C82.194,209.905 83.4675,209.5 84.4665,208.69 C85.4655,207.88 86.145,206.935 86.505,205.855 L86.505,205.855 L84.264,204.883 C84.066,205.585 83.6835,206.206 83.1165,206.746 C82.5495,207.286 81.726,207.556 80.646,207.556 C79.53,207.556 78.5895,207.151 77.8245,206.341 C77.0595,205.531 76.677,204.415 76.677,202.993 C76.677,201.553 77.0595,200.437 77.8245,199.645 C78.5895,198.853 79.521,198.457 80.619,198.457 C81.627,198.457 82.41,198.727 82.968,199.267 C83.526,199.807 83.904,200.455 84.102,201.211 L84.102,201.211 L86.397,200.239 C86.091,199.105 85.4475,198.133 84.4665,197.323 C83.4855,196.513 82.203,196.108 80.619,196.108 C78.747,196.108 77.19,196.7515 75.948,198.0385 C74.706,199.3255 74.085,200.977 74.085,202.993 C74.085,204.973 74.706,206.62 75.948,207.934 C77.19,209.248 78.756,209.905 80.646,209.905 Z M94.821,209.905 C96.279,209.905 97.521,209.5225 98.547,208.7575 C99.573,207.9925 100.275,207.007 100.653,205.801 L100.653,205.801 L98.466,205.045 C97.89,206.791 96.675,207.664 94.821,207.664 C93.723,207.664 92.8005,207.295 92.0535,206.557 C91.3065,205.819 90.924,204.874 90.906,203.722 L90.906,203.722 L100.68,203.722 C100.716,203.506 100.734,203.236 100.734,202.912 C100.734,200.842 100.185,199.1905 99.087,197.9575 C97.989,196.7245 96.459,196.108 94.497,196.108 C92.805,196.108 91.347,196.756 90.123,198.052 C88.899,199.348 88.287,200.986 88.287,202.966 C88.287,205.09 88.9215,206.7775 90.1905,208.0285 C91.4595,209.2795 93.003,209.905 94.821,209.905 Z M98.088,201.67 L90.987,201.67 C91.041,200.77 91.392,199.9915 92.04,199.3345 C92.688,198.6775 93.516,198.349 94.524,198.349 C95.64,198.349 96.504,198.6595 97.116,199.2805 C97.728,199.9015 98.052,200.698 98.088,201.67 L98.088,201.67 Z M106.512,209.5 L106.512,189.952 L103.974,189.952 L103.974,209.5 L106.512,209.5 Z" id="Cancel" fill="#2194FF" fill-rule="nonzero"></path>
                <path d="M208.2345,209.5 L208.2345,207.043 L199.2435,207.043 L199.2435,201.184 L207.3975,201.184 L207.3975,198.7 L199.2435,198.7 L199.2435,192.814 L208.2345,192.814 L208.2345,190.357 L196.5975,190.357 L196.5975,209.5 L208.2345,209.5 Z M216.5505,209.851 C217.5045,209.851 218.328,209.6305 219.021,209.1895 C219.714,208.7485 220.2315,208.195 220.5735,207.529 L220.5735,207.529 L220.5735,207.745 C220.5735,208.411 220.6185,208.996 220.7085,209.5 L220.7085,209.5 L223.1655,209.5 C223.0755,208.78 223.0305,207.979 223.0305,207.097 L223.0305,207.097 L223.0305,189.952 L220.5195,189.952 L220.5195,198.349 C220.2675,197.737 219.8085,197.2195 219.1425,196.7965 C218.4765,196.3735 217.6125,196.162 216.5505,196.162 C214.7505,196.162 213.2745,196.8235 212.1225,198.1465 C210.9705,199.4695 210.3945,201.076 210.3945,202.966 C210.3945,204.946 210.957,206.5885 212.082,207.8935 C213.207,209.1985 214.6965,209.851 216.5505,209.851 Z M216.7935,207.61 C215.6055,207.61 214.674,207.178 213.999,206.314 C213.324,205.45 212.9865,204.334 212.9865,202.966 C212.9865,201.616 213.3375,200.518 214.0395,199.672 C214.7415,198.826 215.6685,198.403 216.8205,198.403 C217.9725,198.403 218.8815,198.817 219.5475,199.645 C220.2135,200.473 220.5465,201.562 220.5465,202.912 C220.5465,204.28 220.2045,205.405 219.5205,206.287 C218.8365,207.169 217.9275,207.61 216.7935,207.61 Z M228.5925,193.408 C229.0965,193.408 229.5285,193.2325 229.8885,192.8815 C230.2485,192.5305 230.4285,192.103 230.4285,191.599 C230.4285,191.077 230.2485,190.6405 229.8885,190.2895 C229.5285,189.9385 229.0965,189.763 228.5925,189.763 C228.0885,189.763 227.661,189.943 227.31,190.303 C226.959,190.663 226.7835,191.095 226.7835,191.599 C226.7835,192.103 226.9545,192.535 227.2965,192.895 C227.6565,193.237 228.0885,193.408 228.5925,193.408 Z M229.8615,209.5 L229.8615,196.513 L227.3505,196.513 L227.3505,209.5 L229.8615,209.5 Z M238.6635,209.635 C239.3835,209.635 239.9595,209.554 240.3915,209.392 L240.3915,209.392 L240.3915,207.232 C240.1035,207.304 239.7705,207.34 239.3925,207.34 C238.7445,207.34 238.281,207.196 238.002,206.908 C237.723,206.62 237.5835,206.17 237.5835,205.558 L237.5835,205.558 L237.5835,198.808 L240.3915,198.808 L240.3915,196.513 L237.5835,196.513 L237.5835,192.409 L235.2615,192.409 L235.2615,194.515 C235.2615,195.109 235.095,195.5905 234.762,195.9595 C234.429,196.3285 233.9295,196.513 233.2635,196.513 L233.2635,196.513 L232.5615,196.513 L232.5615,198.808 L235.0455,198.808 L235.0455,205.936 C235.0455,207.106 235.3695,208.015 236.0175,208.663 C236.6655,209.311 237.5475,209.635 238.6635,209.635 Z M253.0275,209.5 L253.0275,201.67 C253.0275,200.698 253.3065,199.906 253.8645,199.294 C254.4225,198.682 255.1515,198.376 256.0515,198.376 C256.9695,198.376 257.658,198.646 258.117,199.186 C258.576,199.726 258.8055,200.446 258.8055,201.346 L258.8055,201.346 L258.8055,209.5 L261.3435,209.5 L261.3435,201.643 C261.3435,200.707 261.6225,199.9285 262.1805,199.3075 C262.7385,198.6865 263.4585,198.376 264.3405,198.376 C265.2585,198.376 265.947,198.646 266.406,199.186 C266.865,199.726 267.0945,200.446 267.0945,201.346 L267.0945,201.346 L267.0945,209.5 L269.6055,209.5 L269.6055,201.076 C269.6055,199.474 269.169,198.25 268.296,197.404 C267.423,196.558 266.3655,196.135 265.1235,196.135 C263.1255,196.135 261.6765,196.954 260.7765,198.592 C260.4345,197.782 259.9125,197.17 259.2105,196.756 C258.5085,196.342 257.7345,196.135 256.8885,196.135 C256.0965,196.135 255.3405,196.315 254.6205,196.675 C253.9005,197.035 253.3425,197.557 252.9465,198.241 L252.9465,198.241 L252.9465,196.513 L250.5165,196.513 L250.5165,209.5 L253.0275,209.5 Z M279.1365,209.905 C280.5945,209.905 281.8365,209.5225 282.8625,208.7575 C283.8885,207.9925 284.5905,207.007 284.9685,205.801 L284.9685,205.801 L282.7815,205.045 C282.2055,206.791 280.9905,207.664 279.1365,207.664 C278.0385,207.664 277.116,207.295 276.369,206.557 C275.622,205.819 275.2395,204.874 275.2215,203.722 L275.2215,203.722 L284.9955,203.722 C285.0315,203.506 285.0495,203.236 285.0495,202.912 C285.0495,200.842 284.5005,199.1905 283.4025,197.9575 C282.3045,196.7245 280.7745,196.108 278.8125,196.108 C277.1205,196.108 275.6625,196.756 274.4385,198.052 C273.2145,199.348 272.6025,200.986 272.6025,202.966 C272.6025,205.09 273.237,206.7775 274.506,208.0285 C275.775,209.2795 277.3185,209.905 279.1365,209.905 Z M282.4035,201.67 L275.3025,201.67 C275.3565,200.77 275.7075,199.9915 276.3555,199.3345 C277.0035,198.6775 277.8315,198.349 278.8395,198.349 C279.9555,198.349 280.8195,198.6595 281.4315,199.2805 C282.0435,199.9015 282.3675,200.698 282.4035,201.67 L282.4035,201.67 Z M292.3665,209.905 C293.8605,209.905 295.026,209.491 295.863,208.663 C296.7,207.835 297.1185,206.908 297.1185,205.882 C297.1185,204.91 296.808,204.0865 296.187,203.4115 C295.566,202.7365 294.6795,202.273 293.5275,202.021 L293.5275,202.021 L291.4215,201.562 C290.4315,201.346 289.9365,200.824 289.9365,199.996 C289.9365,199.528 290.139,199.123 290.544,198.781 C290.949,198.439 291.4665,198.268 292.0965,198.268 C292.5825,198.268 293.0055,198.3445 293.3655,198.4975 C293.7255,198.6505 294,198.853 294.189,199.105 C294.378,199.357 294.5175,199.5865 294.6075,199.7935 C294.6975,200.0005 294.7605,200.212 294.7965,200.428 L294.7965,200.428 L297.0375,199.591 C296.9475,199.231 296.8125,198.88 296.6325,198.538 C296.4525,198.196 296.1825,197.827 295.8225,197.431 C295.4625,197.035 294.9585,196.7155 294.3105,196.4725 C293.6625,196.2295 292.9245,196.108 292.0965,196.108 C290.8365,196.108 289.752,196.513 288.843,197.323 C287.934,198.133 287.4795,199.096 287.4795,200.212 C287.4795,201.13 287.7675,201.913 288.3435,202.561 C288.9195,203.209 289.7115,203.641 290.7195,203.857 L290.7195,203.857 L292.9335,204.343 C294.0495,204.595 294.6075,205.153 294.6075,206.017 C294.6075,206.503 294.4095,206.9125 294.0135,207.2455 C293.6175,207.5785 293.0775,207.745 292.3935,207.745 C291.5115,207.745 290.8095,207.5155 290.2875,207.0565 C289.7655,206.5975 289.4595,206.017 289.3695,205.315 L289.3695,205.315 L287.0745,206.125 C287.2005,207.043 287.7135,207.9025 288.6135,208.7035 C289.5135,209.5045 290.7645,209.905 292.3665,209.905 Z M304.5705,209.905 C306.0645,209.905 307.23,209.491 308.067,208.663 C308.904,207.835 309.3225,206.908 309.3225,205.882 C309.3225,204.91 309.012,204.0865 308.391,203.4115 C307.77,202.7365 306.8835,202.273 305.7315,202.021 L305.7315,202.021 L303.6255,201.562 C302.6355,201.346 302.1405,200.824 302.1405,199.996 C302.1405,199.528 302.343,199.123 302.748,198.781 C303.153,198.439 303.6705,198.268 304.3005,198.268 C304.7865,198.268 305.2095,198.3445 305.5695,198.4975 C305.9295,198.6505 306.204,198.853 306.393,199.105 C306.582,199.357 306.7215,199.5865 306.8115,199.7935 C306.9015,200.0005 306.9645,200.212 307.0005,200.428 L307.0005,200.428 L309.2415,199.591 C309.1515,199.231 309.0165,198.88 308.8365,198.538 C308.6565,198.196 308.3865,197.827 308.0265,197.431 C307.6665,197.035 307.1625,196.7155 306.5145,196.4725 C305.8665,196.2295 305.1285,196.108 304.3005,196.108 C303.0405,196.108 301.956,196.513 301.047,197.323 C300.138,198.133 299.6835,199.096 299.6835,200.212 C299.6835,201.13 299.9715,201.913 300.5475,202.561 C301.1235,203.209 301.9155,203.641 302.9235,203.857 L302.9235,203.857 L305.1375,204.343 C306.2535,204.595 306.8115,205.153 306.8115,206.017 C306.8115,206.503 306.6135,206.9125 306.2175,207.2455 C305.8215,207.5785 305.2815,207.745 304.5975,207.745 C303.7155,207.745 303.0135,207.5155 302.4915,207.0565 C301.9695,206.5975 301.6635,206.017 301.5735,205.315 L301.5735,205.315 L299.2785,206.125 C299.4045,207.043 299.9175,207.9025 300.8175,208.7035 C301.7175,209.5045 302.9685,209.905 304.5705,209.905 Z M315.9645,209.905 C317.0085,209.905 317.877,209.689 318.57,209.257 C319.263,208.825 319.7895,208.321 320.1495,207.745 C320.1495,208.375 320.1945,208.96 320.2845,209.5 L320.2845,209.5 L322.7685,209.5 C322.6605,208.852 322.6065,208.141 322.6065,207.367 L322.6065,207.367 L322.6065,200.86 C322.6065,199.474 322.1655,198.3355 321.2835,197.4445 C320.4015,196.5535 319.0425,196.108 317.2065,196.108 C315.8025,196.108 314.5965,196.4995 313.5885,197.2825 C312.5805,198.0655 312.0135,199.078 311.8875,200.32 L311.8875,200.32 L314.3175,200.887 C314.4075,200.095 314.7045,199.4605 315.2085,198.9835 C315.7125,198.5065 316.3965,198.268 317.2605,198.268 C318.1965,198.268 318.8985,198.484 319.3665,198.916 C319.8345,199.348 320.0685,199.906 320.0685,200.59 C320.0685,201.148 319.7355,201.472 319.0695,201.562 L319.0695,201.562 L315.5595,202.075 C314.3715,202.237 313.4175,202.6555 312.6975,203.3305 C311.9775,204.0055 311.6175,204.901 311.6175,206.017 C311.6175,207.079 312.0225,207.9925 312.8325,208.7575 C313.6425,209.5225 314.6865,209.905 315.9645,209.905 Z M316.3155,207.772 C315.6855,207.772 315.177,207.583 314.79,207.205 C314.403,206.827 314.2095,206.386 314.2095,205.882 C314.2095,205.324 314.3805,204.883 314.7225,204.559 C315.0645,204.235 315.5235,204.028 316.0995,203.938 L316.0995,203.938 L320.0685,203.344 L320.0685,203.938 C320.0685,205.27 319.7265,206.242 319.0425,206.854 C318.3585,207.466 317.4495,207.772 316.3155,207.772 Z M331.5975,215.035 C332.7675,215.035 333.789,214.855 334.662,214.495 C335.535,214.135 336.2145,213.64 336.7005,213.01 C337.1865,212.38 337.542,211.6915 337.767,210.9445 C337.992,210.1975 338.1045,209.392 338.1045,208.528 L338.1045,208.528 L338.1045,196.513 L335.5935,196.513 L335.5935,198.322 C334.9095,196.954 333.5775,196.27 331.5975,196.27 C329.8515,196.27 328.4205,196.8775 327.3045,198.0925 C326.1885,199.3075 325.6305,200.806 325.6305,202.588 C325.6305,204.424 326.193,205.9315 327.318,207.1105 C328.443,208.2895 329.8695,208.879 331.5975,208.879 C332.5335,208.879 333.348,208.681 334.041,208.285 C334.734,207.889 335.2425,207.376 335.5665,206.746 L335.5665,206.746 L335.5665,208.609 C335.5665,211.417 334.2435,212.821 331.5975,212.821 C330.6255,212.821 329.8155,212.5195 329.1675,211.9165 C328.5195,211.3135 328.1505,210.553 328.0605,209.635 L328.0605,209.635 L325.6035,210.202 C325.7655,211.606 326.4045,212.7625 327.5205,213.6715 C328.6365,214.5805 329.9955,215.035 331.5975,215.035 Z M331.9755,206.746 C330.8235,206.746 329.91,206.3725 329.235,205.6255 C328.56,204.8785 328.2225,203.866 328.2225,202.588 C328.2225,201.328 328.569,200.32 329.262,199.564 C329.955,198.808 330.8595,198.43 331.9755,198.43 C333.0735,198.43 333.9645,198.8125 334.6485,199.5775 C335.3325,200.3425 335.6745,201.346 335.6745,202.588 C335.6745,203.83 335.3325,204.8335 334.6485,205.5985 C333.9645,206.3635 333.0735,206.746 331.9755,206.746 Z M347.6355,209.905 C349.0935,209.905 350.3355,209.5225 351.3615,208.7575 C352.3875,207.9925 353.0895,207.007 353.4675,205.801 L353.4675,205.801 L351.2805,205.045 C350.7045,206.791 349.4895,207.664 347.6355,207.664 C346.5375,207.664 345.615,207.295 344.868,206.557 C344.121,205.819 343.7385,204.874 343.7205,203.722 L343.7205,203.722 L353.4945,203.722 C353.5305,203.506 353.5485,203.236 353.5485,202.912 C353.5485,200.842 352.9995,199.1905 351.9015,197.9575 C350.8035,196.7245 349.2735,196.108 347.3115,196.108 C345.6195,196.108 344.1615,196.756 342.9375,198.052 C341.7135,199.348 341.1015,200.986 341.1015,202.966 C341.1015,205.09 341.736,206.7775 343.005,208.0285 C344.274,209.2795 345.8175,209.905 347.6355,209.905 Z M350.9025,201.67 L343.8015,201.67 C343.8555,200.77 344.2065,199.9915 344.8545,199.3345 C345.5025,198.6775 346.3305,198.349 347.3385,198.349 C348.4545,198.349 349.3185,198.6595 349.9305,199.2805 C350.5425,199.9015 350.8665,200.698 350.9025,201.67 L350.9025,201.67 Z M360.8655,209.905 C362.3595,209.905 363.525,209.491 364.362,208.663 C365.199,207.835 365.6175,206.908 365.6175,205.882 C365.6175,204.91 365.307,204.0865 364.686,203.4115 C364.065,202.7365 363.1785,202.273 362.0265,202.021 L362.0265,202.021 L359.9205,201.562 C358.9305,201.346 358.4355,200.824 358.4355,199.996 C358.4355,199.528 358.638,199.123 359.043,198.781 C359.448,198.439 359.9655,198.268 360.5955,198.268 C361.0815,198.268 361.5045,198.3445 361.8645,198.4975 C362.2245,198.6505 362.499,198.853 362.688,199.105 C362.877,199.357 363.0165,199.5865 363.1065,199.7935 C363.1965,200.0005 363.2595,200.212 363.2955,200.428 L363.2955,200.428 L365.5365,199.591 C365.4465,199.231 365.3115,198.88 365.1315,198.538 C364.9515,198.196 364.6815,197.827 364.3215,197.431 C363.9615,197.035 363.4575,196.7155 362.8095,196.4725 C362.1615,196.2295 361.4235,196.108 360.5955,196.108 C359.3355,196.108 358.251,196.513 357.342,197.323 C356.433,198.133 355.9785,199.096 355.9785,200.212 C355.9785,201.13 356.2665,201.913 356.8425,202.561 C357.4185,203.209 358.2105,203.641 359.2185,203.857 L359.2185,203.857 L361.4325,204.343 C362.5485,204.595 363.1065,205.153 363.1065,206.017 C363.1065,206.503 362.9085,206.9125 362.5125,207.2455 C362.1165,207.5785 361.5765,207.745 360.8925,207.745 C360.0105,207.745 359.3085,207.5155 358.7865,207.0565 C358.2645,206.5975 357.9585,206.017 357.8685,205.315 L357.8685,205.315 L355.5735,206.125 C355.6995,207.043 356.2125,207.9025 357.1125,208.7035 C358.0125,209.5045 359.2635,209.905 360.8655,209.905 Z" id="Editmessages" fill="#000000" fill-rule="nonzero"></path>
            </g>
        </g>
    </g>
</svg>