<?xml version="1.0" encoding="UTF-8"?>
<svg width="913px" height="929px" viewBox="0 0 913 929" version="1.1" xmlns="http://www.w3.org/2000/svg" xmlns:xlink="http://www.w3.org/1999/xlink">
    <!-- Generator: Sketch 64 (93537) - https://sketch.com -->
    <title>hero</title>
    <desc>Created with Sketch.</desc>
    <defs>
        <rect id="path-1" x="226" y="125" width="532.5" height="700" rx="48"></rect>
        <filter x="-26.8%" y="-18.2%" width="153.5%" height="140.7%" filterUnits="objectBoundingBox" id="filter-3">
            <feOffset dx="0" dy="15" in="SourceAlpha" result="shadowOffsetOuter1"></feOffset>
            <feGaussianBlur stdDeviation="45" in="shadowOffsetOuter1" result="shadowBlurOuter1"></feGaussianBlur>
            <feColorMatrix values="0 0 0 0 0.721367979   0 0 0 0 0.778010434   0 0 0 0 0.819548234  0 0 0 1 0" type="matrix" in="shadowBlurOuter1"></feColorMatrix>
        </filter>
        <linearGradient x1="50%" y1="0%" x2="50%" y2="100%" id="linearGradient-4">
            <stop stop-color="#41BCFF" offset="0%"></stop>
            <stop stop-color="#016BFF" offset="100%"></stop>
        </linearGradient>
    </defs>
    <g id="website" stroke="none" stroke-width="1" fill="none" fill-rule="evenodd">
        <g id="web---desktop" transform="translate(-60.000000, -186.000000)">
            <g id="hero" transform="translate(60.000000, 186.000000)">
                <g>
                    <rect id="Rectangle-Copy-34" fill="#026CFF" x="531" y="412" width="361" height="70" rx="35"></rect>
                    <rect id="Rectangle-Copy-33" fill="#026CFF" x="86" y="377" width="372" height="70" rx="35"></rect>
                    <rect id="Rectangle-Copy-3" fill="#026CFF" x="119" y="67" width="246" height="70" rx="35"></rect>
                    <rect id="Rectangle-Copy-26" fill="#026CFF" x="513" y="0" width="172" height="70" rx="35"></rect>
                    <rect id="Rectangle-Copy-36" fill="#026CFF" x="607" y="106" width="306" height="70" rx="35"></rect>
                    <rect id="Rectangle-Copy-35" fill="#026CFF" x="498" y="256" width="361" height="70" rx="35"></rect>
                    <text id="😂😂😂" font-family="AppleColorEmoji, Apple Color Emoji" font-size="40" font-weight="normal" fill="#262D3C">
                        <tspan x="539" y="49">😂😂😂</tspan>
                    </text>
                    <rect id="Rectangle-Copy-31" fill="#026CFF" x="0" y="196" width="372" height="70" rx="35"></rect>
                    <path d="M730.76,462 L730.76,450.4 C730.76,448.96 731.173333,447.786667 732,446.88 C732.826667,445.973333 733.906667,445.52 735.24,445.52 C736.6,445.52 737.62,445.92 738.3,446.72 C738.98,447.52 739.32,448.586667 739.32,449.92 L739.32,449.92 L739.32,462 L743.08,462 L743.08,450.36 C743.08,448.973333 743.493333,447.82 744.32,446.9 C745.146667,445.98 746.213333,445.52 747.52,445.52 C748.88,445.52 749.9,445.92 750.58,446.72 C751.26,447.52 751.6,448.586667 751.6,449.92 L751.6,449.92 L751.6,462 L755.32,462 L755.32,449.52 C755.32,447.146667 754.673333,445.333333 753.38,444.08 C752.086667,442.826667 750.52,442.2 748.68,442.2 C745.72,442.2 743.573333,443.413333 742.24,445.84 C741.733333,444.64 740.96,443.733333 739.92,443.12 C738.88,442.506667 737.733333,442.2 736.48,442.2 C735.306667,442.2 734.186667,442.466667 733.12,443 C732.053333,443.533333 731.226667,444.306667 730.64,445.32 L730.64,445.32 L730.64,442.76 L727.04,442.76 L727.04,462 L730.76,462 Z M766.12,470.04 L778.64,442.76 L774.6,442.76 L768.84,456.04 L762.84,442.76 L758.52,442.76 L766.8,459.88 L762,470.04 L766.12,470.04 Z M799.92,462 L804.92,447.36 L810.04,462 L813.92,462 L820.16,442.76 L816.2,442.76 L811.96,457.24 L806.96,442.76 L803.08,442.76 L798.08,457.24 L793.76,442.76 L789.64,442.76 L795.96,462 L799.92,462 Z M829,462.6 C830.546667,462.6 831.833333,462.28 832.86,461.64 C833.886667,461 834.666667,460.253333 835.2,459.4 C835.2,460.333333 835.266667,461.2 835.4,462 L835.4,462 L839.08,462 C838.92,461.04 838.84,459.986667 838.84,458.84 L838.84,458.84 L838.84,449.2 C838.84,447.146667 838.186667,445.46 836.88,444.14 C835.573333,442.82 833.56,442.16 830.84,442.16 C828.76,442.16 826.973333,442.74 825.48,443.9 C823.986667,445.06 823.146667,446.56 822.96,448.4 L822.96,448.4 L826.56,449.24 C826.693333,448.066667 827.133333,447.126667 827.88,446.42 C828.626667,445.713333 829.64,445.36 830.92,445.36 C832.306667,445.36 833.346667,445.68 834.04,446.32 C834.733333,446.96 835.08,447.786667 835.08,448.8 C835.08,449.626667 834.586667,450.106667 833.6,450.24 L833.6,450.24 L828.4,451 C826.64,451.24 825.226667,451.86 824.16,452.86 C823.093333,453.86 822.56,455.186667 822.56,456.84 C822.56,458.413333 823.16,459.766667 824.36,460.9 C825.56,462.033333 827.106667,462.6 829,462.6 Z M829.52,459.44 C828.586667,459.44 827.833333,459.16 827.26,458.6 C826.686667,458.04 826.4,457.386667 826.4,456.64 C826.4,455.813333 826.653333,455.16 827.16,454.68 C827.666667,454.2 828.346667,453.893333 829.2,453.76 L829.2,453.76 L835.08,452.88 L835.08,453.76 C835.08,455.733333 834.573333,457.173333 833.56,458.08 C832.546667,458.986667 831.2,459.44 829.52,459.44 Z M849.08,470.04 L861.6,442.76 L857.56,442.76 L851.8,456.04 L845.8,442.76 L841.48,442.76 L849.76,459.88 L844.96,470.04 L849.08,470.04 Z" id="myway" fill="#FFFFFF" fill-rule="nonzero"></path>
                    <path d="M132.04,427.6 C134.466667,427.6 136.746667,427.04 138.88,425.92 C141.013333,424.8 142.78,423.093333 144.18,420.8 C145.58,418.506667 146.28,415.84 146.28,412.8 C146.28,410.506667 145.873333,408.413333 145.06,406.52 C144.246667,404.626667 143.166667,403.073333 141.82,401.86 C140.473333,400.646667 138.96,399.706667 137.28,399.04 C135.6,398.373333 133.853333,398.04 132.04,398.04 C130.226667,398.04 128.48,398.373333 126.8,399.04 C125.12,399.706667 123.606667,400.646667 122.26,401.86 C120.913333,403.073333 119.833333,404.626667 119.02,406.52 C118.206667,408.413333 117.8,410.506667 117.8,412.8 C117.8,415.84 118.5,418.506667 119.9,420.8 C121.3,423.093333 123.066667,424.8 125.2,425.92 C127.333333,427.04 129.613333,427.6 132.04,427.6 Z M132.04,424 C129.213333,424 126.8,423.013333 124.8,421.04 C122.8,419.066667 121.8,416.32 121.8,412.8 C121.8,409.28 122.8,406.546667 124.8,404.6 C126.8,402.626667 129.213333,401.64 132.04,401.64 C134.866667,401.64 137.28,402.62 139.28,404.58 C141.28,406.54 142.28,409.28 142.28,412.8 C142.28,416.32 141.28,419.066667 139.28,421.04 C137.28,423.013333 134.866667,424 132.04,424 Z M155.56,427 L155.56,404.92 L165.16,427 L168.76,427 L178.44,404.92 L178.44,427 L182.32,427 L182.32,398.64 L177.08,398.64 L167,421.72 L157,398.64 L151.68,398.64 L151.68,427 L155.56,427 Z M201.48,427.6 C203.693333,427.6 205.586667,427.146667 207.16,426.24 C208.733333,425.333333 209.866667,424.253333 210.56,423 L210.56,423 L210.92,427 L214.08,427 L214.08,413.12 L200.52,413.12 L200.52,416.64 L210.36,416.64 C210.306667,417.44 210.113333,418.24 209.78,419.04 C209.446667,419.84 208.953333,420.633333 208.3,421.42 C207.646667,422.206667 206.74,422.84 205.58,423.32 C204.42,423.8 203.093333,424.04 201.6,424.04 C198.88,424.04 196.553333,423.06 194.62,421.1 C192.686667,419.14 191.72,416.373333 191.72,412.8 C191.72,409.253333 192.706667,406.506667 194.68,404.56 C196.653333,402.613333 199.013333,401.64 201.76,401.64 C203.946667,401.64 205.833333,402.206667 207.42,403.34 C209.006667,404.473333 210.12,406.066667 210.76,408.12 L210.76,408.12 L214.32,406.6 C213.493333,404.013333 211.953333,401.94 209.7,400.38 C207.446667,398.82 204.8,398.04 201.76,398.04 C199.36,398.04 197.113333,398.586667 195.02,399.68 C192.926667,400.773333 191.186667,402.466667 189.8,404.76 C188.413333,407.053333 187.72,409.733333 187.72,412.8 C187.72,415.866667 188.38,418.546667 189.7,420.84 C191.02,423.133333 192.706667,424.833333 194.76,425.94 C196.813333,427.046667 199.053333,427.6 201.48,427.6 Z M224.08,418.88 L225.08,398.64 L220.36,398.64 L221.4,418.88 L224.08,418.88 Z M222.72,427.2 C223.44,427.2 224.06,426.946667 224.58,426.44 C225.1,425.933333 225.36,425.32 225.36,424.6 C225.36,423.88 225.1,423.26 224.58,422.74 C224.06,422.22 223.44,421.96 222.72,421.96 C222,421.96 221.386667,422.22 220.88,422.74 C220.373333,423.26 220.12,423.88 220.12,424.6 C220.12,425.32 220.373333,425.933333 220.88,426.44 C221.386667,426.946667 222,427.2 222.72,427.2 Z" id="OMG!" fill="#FFFFFF" fill-rule="nonzero"></path>
                    <path d="M646.72,156.6 C649.28,156.6 651.34,155.726667 652.9,153.98 C654.46,152.233333 655.24,150.08 655.24,147.52 L655.24,147.52 L655.24,127.64 L651.32,127.64 L651.32,147.8 C651.32,149.426667 650.906667,150.693333 650.08,151.6 C649.253333,152.506667 648.12,152.96 646.68,152.96 C645.186667,152.96 644,152.506667 643.12,151.6 C642.24,150.693333 641.8,149.333333 641.8,147.52 L641.8,147.52 L641.8,144.84 L637.88,145.72 L637.88,147.56 C637.88,150.306667 638.666667,152.5 640.24,154.14 C641.813333,155.78 643.973333,156.6 646.72,156.6 Z M668.64,156.6 C669.84,156.6 670.96,156.353333 672,155.86 C673.04,155.366667 673.813333,154.64 674.32,153.68 C674.32,154.64 674.373333,155.413333 674.48,156 L674.48,156 L678.08,156 C677.946667,154.88 677.88,153.693333 677.88,152.44 L677.88,152.44 L677.88,136.76 L674.12,136.76 L674.12,148.36 C674.12,149.853333 673.733333,151.046667 672.96,151.94 C672.186667,152.833333 671.053333,153.28 669.56,153.28 C668.066667,153.28 666.966667,152.813333 666.26,151.88 C665.553333,150.946667 665.2,149.76 665.2,148.32 L665.2,148.32 L665.2,136.76 L661.44,136.76 L661.44,148.88 C661.44,151.12 662.093333,152.966667 663.4,154.42 C664.706667,155.873333 666.453333,156.6 668.64,156.6 Z M690.32,156.6 C692.533333,156.6 694.26,155.986667 695.5,154.76 C696.74,153.533333 697.36,152.16 697.36,150.64 C697.36,149.2 696.9,147.98 695.98,146.98 C695.06,145.98 693.746667,145.293333 692.04,144.92 L692.04,144.92 L688.92,144.24 C687.453333,143.92 686.72,143.146667 686.72,141.92 C686.72,141.226667 687.02,140.626667 687.62,140.12 C688.22,139.613333 688.986667,139.36 689.92,139.36 C690.64,139.36 691.266667,139.473333 691.8,139.7 C692.333333,139.926667 692.74,140.226667 693.02,140.6 C693.3,140.973333 693.506667,141.313333 693.64,141.62 C693.773333,141.926667 693.866667,142.24 693.92,142.56 L693.92,142.56 L697.24,141.32 C697.106667,140.786667 696.906667,140.266667 696.64,139.76 C696.373333,139.253333 695.973333,138.706667 695.44,138.12 C694.906667,137.533333 694.16,137.06 693.2,136.7 C692.24,136.34 691.146667,136.16 689.92,136.16 C688.053333,136.16 686.446667,136.76 685.1,137.96 C683.753333,139.16 683.08,140.586667 683.08,142.24 C683.08,143.6 683.506667,144.76 684.36,145.72 C685.213333,146.68 686.386667,147.32 687.88,147.64 L687.88,147.64 L691.16,148.36 C692.813333,148.733333 693.64,149.56 693.64,150.84 C693.64,151.56 693.346667,152.166667 692.76,152.66 C692.173333,153.153333 691.373333,153.4 690.36,153.4 C689.053333,153.4 688.013333,153.06 687.24,152.38 C686.466667,151.7 686.013333,150.84 685.88,149.8 L685.88,149.8 L682.48,151 C682.666667,152.36 683.426667,153.633333 684.76,154.82 C686.093333,156.006667 687.946667,156.6 690.32,156.6 Z M709,156.2 C710.066667,156.2 710.92,156.08 711.56,155.84 L711.56,155.84 L711.56,152.64 C711.133333,152.746667 710.64,152.8 710.08,152.8 C709.12,152.8 708.433333,152.586667 708.02,152.16 C707.606667,151.733333 707.4,151.066667 707.4,150.16 L707.4,150.16 L707.4,140.16 L711.56,140.16 L711.56,136.76 L707.4,136.76 L707.4,130.68 L703.96,130.68 L703.96,133.8 C703.96,134.68 703.713333,135.393333 703.22,135.94 C702.726667,136.486667 701.986667,136.76 701,136.76 L701,136.76 L699.96,136.76 L699.96,140.16 L703.64,140.16 L703.64,150.72 C703.64,152.453333 704.12,153.8 705.08,154.76 C706.04,155.72 707.346667,156.2 709,156.2 Z M730.32,156 L730.32,127.04 L726.56,127.04 L726.56,156 L730.32,156 Z M744.84,156.6 C747,156.6 748.84,156.033333 750.36,154.9 C751.88,153.766667 752.92,152.306667 753.48,150.52 L753.48,150.52 L750.24,149.4 C749.386667,151.986667 747.586667,153.28 744.84,153.28 C743.213333,153.28 741.846667,152.733333 740.74,151.64 C739.633333,150.546667 739.066667,149.146667 739.04,147.44 L739.04,147.44 L753.52,147.44 C753.573333,147.12 753.6,146.72 753.6,146.24 C753.6,143.173333 752.786667,140.726667 751.16,138.9 C749.533333,137.073333 747.266667,136.16 744.36,136.16 C741.853333,136.16 739.693333,137.12 737.88,139.04 C736.066667,140.96 735.16,143.386667 735.16,146.32 C735.16,149.466667 736.1,151.966667 737.98,153.82 C739.86,155.673333 742.146667,156.6 744.84,156.6 Z M749.68,144.4 L739.16,144.4 C739.24,143.066667 739.76,141.913333 740.72,140.94 C741.68,139.966667 742.906667,139.48 744.4,139.48 C746.053333,139.48 747.333333,139.94 748.24,140.86 C749.146667,141.78 749.626667,142.96 749.68,144.4 L749.68,144.4 Z M763.44,156 L763.44,140.16 L768.08,140.16 L768.08,136.76 L763.44,136.76 L763.44,133.72 C763.44,132.52 763.74,131.673333 764.34,131.18 C764.94,130.686667 765.653333,130.44 766.48,130.44 C767.173333,130.44 767.72,130.52 768.12,130.68 L768.12,130.68 L768.12,127.32 C767.773333,127.053333 767.026667,126.92 765.88,126.92 C764.066667,126.92 762.56,127.506667 761.36,128.68 C760.16,129.853333 759.56,131.466667 759.56,133.52 L759.56,133.52 L759.56,136.76 L756,136.76 L756,140.16 L759.56,140.16 L759.56,156 L763.44,156 Z M778.76,156.2 C779.826667,156.2 780.68,156.08 781.32,155.84 L781.32,155.84 L781.32,152.64 C780.893333,152.746667 780.4,152.8 779.84,152.8 C778.88,152.8 778.193333,152.586667 777.78,152.16 C777.366667,151.733333 777.16,151.066667 777.16,150.16 L777.16,150.16 L777.16,140.16 L781.32,140.16 L781.32,136.76 L777.16,136.76 L777.16,130.68 L773.72,130.68 L773.72,133.8 C773.72,134.68 773.473333,135.393333 772.98,135.94 C772.486667,136.486667 771.746667,136.76 770.76,136.76 L770.76,136.76 L769.72,136.76 L769.72,140.16 L773.4,140.16 L773.4,150.72 C773.4,152.453333 773.88,153.8 774.84,154.76 C775.8,155.72 777.106667,156.2 778.76,156.2 Z M804,156 L809,141.36 L814.12,156 L818,156 L824.24,136.76 L820.28,136.76 L816.04,151.24 L811.04,136.76 L807.16,136.76 L802.16,151.24 L797.84,136.76 L793.72,136.76 L800.04,156 L804,156 Z M835.88,156.6 C838.76,156.6 841.12,155.633333 842.96,153.7 C844.8,151.766667 845.72,149.32 845.72,146.36 C845.72,143.426667 844.793333,140.993333 842.94,139.06 C841.086667,137.126667 838.733333,136.16 835.88,136.16 C833.026667,136.16 830.666667,137.133333 828.8,139.08 C826.96,141 826.04,143.426667 826.04,146.36 C826.04,149.32 826.96,151.766667 828.8,153.7 C830.64,155.633333 833,156.6 835.88,156.6 Z M835.88,153.24 C834.2,153.24 832.773333,152.64 831.6,151.44 C830.453333,150.213333 829.88,148.52 829.88,146.36 C829.88,144.226667 830.46,142.553333 831.62,141.34 C832.78,140.126667 834.2,139.52 835.88,139.52 C837.56,139.52 838.98,140.126667 840.14,141.34 C841.3,142.553333 841.88,144.226667 841.88,146.36 C841.88,148.52 841.3,150.206667 840.14,151.42 C838.98,152.633333 837.56,153.24 835.88,153.24 Z M854.28,156 L854.28,146.36 C854.28,142.413333 856.04,140.44 859.56,140.44 C860.093333,140.44 860.64,140.48 861.2,140.56 L861.2,140.56 L861.2,136.56 C860.8,136.48 860.386667,136.44 859.96,136.44 C857.293333,136.44 855.373333,137.666667 854.2,140.12 L854.2,140.12 L854.2,136.76 L850.52,136.76 L850.52,156 L854.28,156 Z M868.92,156 L868.92,150.2 L871.6,147.52 L877.88,156 L882.6,156 L874.24,144.88 L882.44,136.76 L877.24,136.76 L868.92,145.28 L868.92,127.04 L865.2,127.04 L865.2,156 L868.92,156 Z" id="Justleftwork" fill="#FFFFFF" fill-rule="nonzero"></path>
                    <path d="M719.68,306.2 C720.746667,306.2 721.6,306.08 722.24,305.84 L722.24,305.84 L722.24,302.64 C721.813333,302.746667 721.32,302.8 720.76,302.8 C719.8,302.8 719.113333,302.586667 718.7,302.16 C718.286667,301.733333 718.08,301.066667 718.08,300.16 L718.08,300.16 L718.08,290.16 L722.24,290.16 L722.24,286.76 L718.08,286.76 L718.08,280.68 L714.64,280.68 L714.64,283.8 C714.64,284.68 714.393333,285.393333 713.9,285.94 C713.406667,286.486667 712.666667,286.76 711.68,286.76 L711.68,286.76 L710.64,286.76 L710.64,290.16 L714.32,290.16 L714.32,300.72 C714.32,302.453333 714.8,303.8 715.76,304.76 C716.72,305.72 718.026667,306.2 719.68,306.2 Z M731,306 L731,294.68 C731.053333,293.186667 731.466667,291.966667 732.24,291.02 C733.013333,290.073333 734.093333,289.6 735.48,289.6 C738.466667,289.6 739.96,291.213333 739.96,294.44 L739.96,294.44 L739.96,306 L743.72,306 L743.72,293.8 C743.72,291.56 743.126667,289.733333 741.94,288.32 C740.753333,286.906667 739.053333,286.2 736.84,286.2 C734.226667,286.2 732.28,287.133333 731,289 L731,289 L731,277.04 L727.24,277.04 L727.24,306 L731,306 Z M754.96,306.6 C756.506667,306.6 757.793333,306.28 758.82,305.64 C759.846667,305 760.626667,304.253333 761.16,303.4 C761.16,304.333333 761.226667,305.2 761.36,306 L761.36,306 L765.04,306 C764.88,305.04 764.8,303.986667 764.8,302.84 L764.8,302.84 L764.8,293.2 C764.8,291.146667 764.146667,289.46 762.84,288.14 C761.533333,286.82 759.52,286.16 756.8,286.16 C754.72,286.16 752.933333,286.74 751.44,287.9 C749.946667,289.06 749.106667,290.56 748.92,292.4 L748.92,292.4 L752.52,293.24 C752.653333,292.066667 753.093333,291.126667 753.84,290.42 C754.586667,289.713333 755.6,289.36 756.88,289.36 C758.266667,289.36 759.306667,289.68 760,290.32 C760.693333,290.96 761.04,291.786667 761.04,292.8 C761.04,293.626667 760.546667,294.106667 759.56,294.24 L759.56,294.24 L754.36,295 C752.6,295.24 751.186667,295.86 750.12,296.86 C749.053333,297.86 748.52,299.186667 748.52,300.84 C748.52,302.413333 749.12,303.766667 750.32,304.9 C751.52,306.033333 753.066667,306.6 754.96,306.6 Z M755.48,303.44 C754.546667,303.44 753.793333,303.16 753.22,302.6 C752.646667,302.04 752.36,301.386667 752.36,300.64 C752.36,299.813333 752.613333,299.16 753.12,298.68 C753.626667,298.2 754.306667,297.893333 755.16,297.76 L755.16,297.76 L761.04,296.88 L761.04,297.76 C761.04,299.733333 760.533333,301.173333 759.52,302.08 C758.506667,302.986667 757.16,303.44 755.48,303.44 Z M774.4,306 L774.4,294.88 C774.4,293.36 774.793333,292.1 775.58,291.1 C776.366667,290.1 777.466667,289.6 778.88,289.6 C781.866667,289.6 783.36,291.213333 783.36,294.44 L783.36,294.44 L783.36,306 L787.12,306 L787.12,293.8 C787.12,291.56 786.526667,289.733333 785.34,288.32 C784.153333,286.906667 782.453333,286.2 780.24,286.2 C777.573333,286.2 775.6,287.306667 774.32,289.52 L774.32,289.52 L774.32,286.76 L770.64,286.76 L770.64,306 L774.4,306 Z M796.84,306 L796.84,300.2 L799.52,297.52 L805.8,306 L810.52,306 L802.16,294.88 L810.36,286.76 L805.16,286.76 L796.84,295.28 L796.84,277.04 L793.12,277.04 L793.12,306 L796.84,306 Z M820.16,306.6 C822.373333,306.6 824.1,305.986667 825.34,304.76 C826.58,303.533333 827.2,302.16 827.2,300.64 C827.2,299.2 826.74,297.98 825.82,296.98 C824.9,295.98 823.586667,295.293333 821.88,294.92 L821.88,294.92 L818.76,294.24 C817.293333,293.92 816.56,293.146667 816.56,291.92 C816.56,291.226667 816.86,290.626667 817.46,290.12 C818.06,289.613333 818.826667,289.36 819.76,289.36 C820.48,289.36 821.106667,289.473333 821.64,289.7 C822.173333,289.926667 822.58,290.226667 822.86,290.6 C823.14,290.973333 823.346667,291.313333 823.48,291.62 C823.613333,291.926667 823.706667,292.24 823.76,292.56 L823.76,292.56 L827.08,291.32 C826.946667,290.786667 826.746667,290.266667 826.48,289.76 C826.213333,289.253333 825.813333,288.706667 825.28,288.12 C824.746667,287.533333 824,287.06 823.04,286.7 C822.08,286.34 820.986667,286.16 819.76,286.16 C817.893333,286.16 816.286667,286.76 814.94,287.96 C813.593333,289.16 812.92,290.586667 812.92,292.24 C812.92,293.6 813.346667,294.76 814.2,295.72 C815.053333,296.68 816.226667,297.32 817.72,297.64 L817.72,297.64 L821,298.36 C822.653333,298.733333 823.48,299.56 823.48,300.84 C823.48,301.56 823.186667,302.166667 822.6,302.66 C822.013333,303.153333 821.213333,303.4 820.2,303.4 C818.893333,303.4 817.853333,303.06 817.08,302.38 C816.306667,301.7 815.853333,300.84 815.72,299.8 L815.72,299.8 L812.32,301 C812.506667,302.36 813.266667,303.633333 814.6,304.82 C815.933333,306.006667 817.786667,306.6 820.16,306.6 Z" id="thanks" fill="#FFFFFF" fill-rule="nonzero"></path>
                    <path d="M37.52,246 L37.52,233.4 L52,233.4 L52,246 L55.92,246 L55.92,217.64 L52,217.64 L52,229.76 L37.52,229.76 L37.52,217.64 L33.6,217.64 L33.6,246 L37.52,246 Z M64.56,222.16 C65.3066667,222.16 65.9466667,221.9 66.48,221.38 C67.0133333,220.86 67.28,220.226667 67.28,219.48 C67.28,218.706667 67.0133333,218.06 66.48,217.54 C65.9466667,217.02 65.3066667,216.76 64.56,216.76 C63.8133333,216.76 63.18,217.026667 62.66,217.56 C62.14,218.093333 61.88,218.733333 61.88,219.48 C61.88,220.226667 62.1333333,220.866667 62.64,221.4 C63.1733333,221.906667 63.8133333,222.16 64.56,222.16 Z M66.44,246 L66.44,226.76 L62.72,226.76 L62.72,246 L66.44,246 Z M72.68,252.36 C74.1733333,252.173333 75.5333333,251.426667 76.76,250.12 C77.9866667,248.813333 78.6,246.96 78.6,244.56 C78.6,243.36 78.2866667,242.426667 77.66,241.76 C77.0333333,241.093333 76.2666667,240.76 75.36,240.76 C74.5333333,240.76 73.84,241.026667 73.28,241.56 C72.72,242.093333 72.44,242.72 72.44,243.44 C72.44,244.266667 72.6933333,244.926667 73.2,245.42 C73.7066667,245.913333 74.3466667,246.16 75.12,246.16 C75.52,246.16 75.8133333,246.093333 76,245.96 C75.9733333,246.946667 75.6533333,247.86 75.04,248.7 C74.4266667,249.54 73.64,250.066667 72.68,250.28 L72.68,250.28 L72.68,252.36 Z M98.36,246 L98.36,234.68 C98.4133333,233.186667 98.8266667,231.966667 99.6,231.02 C100.373333,230.073333 101.453333,229.6 102.84,229.6 C105.826667,229.6 107.32,231.213333 107.32,234.44 L107.32,234.44 L107.32,246 L111.08,246 L111.08,233.8 C111.08,231.56 110.486667,229.733333 109.3,228.32 C108.113333,226.906667 106.413333,226.2 104.2,226.2 C101.586667,226.2 99.64,227.133333 98.36,229 L98.36,229 L98.36,217.04 L94.6,217.04 L94.6,246 L98.36,246 Z M125.32,246.6 C128.2,246.6 130.56,245.633333 132.4,243.7 C134.24,241.766667 135.16,239.32 135.16,236.36 C135.16,233.426667 134.233333,230.993333 132.38,229.06 C130.526667,227.126667 128.173333,226.16 125.32,226.16 C122.466667,226.16 120.106667,227.133333 118.24,229.08 C116.4,231 115.48,233.426667 115.48,236.36 C115.48,239.32 116.4,241.766667 118.24,243.7 C120.08,245.633333 122.44,246.6 125.32,246.6 Z M125.32,243.24 C123.64,243.24 122.213333,242.64 121.04,241.44 C119.893333,240.213333 119.32,238.52 119.32,236.36 C119.32,234.226667 119.9,232.553333 121.06,231.34 C122.22,230.126667 123.64,229.52 125.32,229.52 C127,229.52 128.42,230.126667 129.58,231.34 C130.74,232.553333 131.32,234.226667 131.32,236.36 C131.32,238.52 130.74,240.206667 129.58,241.42 C128.42,242.633333 127,243.24 125.32,243.24 Z M147.24,246 L152.24,231.36 L157.36,246 L161.24,246 L167.48,226.76 L163.52,226.76 L159.28,241.24 L154.28,226.76 L150.4,226.76 L145.4,241.24 L141.08,226.76 L136.96,226.76 L143.28,246 L147.24,246 Z M186.52,246.6 C188.066667,246.6 189.353333,246.28 190.38,245.64 C191.406667,245 192.186667,244.253333 192.72,243.4 C192.72,244.333333 192.786667,245.2 192.92,246 L192.92,246 L196.6,246 C196.44,245.04 196.36,243.986667 196.36,242.84 L196.36,242.84 L196.36,233.2 C196.36,231.146667 195.706667,229.46 194.4,228.14 C193.093333,226.82 191.08,226.16 188.36,226.16 C186.28,226.16 184.493333,226.74 183,227.9 C181.506667,229.06 180.666667,230.56 180.48,232.4 L180.48,232.4 L184.08,233.24 C184.213333,232.066667 184.653333,231.126667 185.4,230.42 C186.146667,229.713333 187.16,229.36 188.44,229.36 C189.826667,229.36 190.866667,229.68 191.56,230.32 C192.253333,230.96 192.6,231.786667 192.6,232.8 C192.6,233.626667 192.106667,234.106667 191.12,234.24 L191.12,234.24 L185.92,235 C184.16,235.24 182.746667,235.86 181.68,236.86 C180.613333,237.86 180.08,239.186667 180.08,240.84 C180.08,242.413333 180.68,243.766667 181.88,244.9 C183.08,246.033333 184.626667,246.6 186.52,246.6 Z M187.04,243.44 C186.106667,243.44 185.353333,243.16 184.78,242.6 C184.206667,242.04 183.92,241.386667 183.92,240.64 C183.92,239.813333 184.173333,239.16 184.68,238.68 C185.186667,238.2 185.866667,237.893333 186.72,237.76 L186.72,237.76 L192.6,236.88 L192.6,237.76 C192.6,239.733333 192.093333,241.173333 191.08,242.08 C190.066667,242.986667 188.72,243.44 187.04,243.44 Z M205.96,246 L205.96,236.36 C205.96,232.413333 207.72,230.44 211.24,230.44 C211.773333,230.44 212.32,230.48 212.88,230.56 L212.88,230.56 L212.88,226.56 C212.48,226.48 212.066667,226.44 211.64,226.44 C208.973333,226.44 207.053333,227.666667 205.88,230.12 L205.88,230.12 L205.88,226.76 L202.2,226.76 L202.2,246 L205.96,246 Z M224.8,246.6 C226.96,246.6 228.8,246.033333 230.32,244.9 C231.84,243.766667 232.88,242.306667 233.44,240.52 L233.44,240.52 L230.2,239.4 C229.346667,241.986667 227.546667,243.28 224.8,243.28 C223.173333,243.28 221.806667,242.733333 220.7,241.64 C219.593333,240.546667 219.026667,239.146667 219,237.44 L219,237.44 L233.48,237.44 C233.533333,237.12 233.56,236.72 233.56,236.24 C233.56,233.173333 232.746667,230.726667 231.12,228.9 C229.493333,227.073333 227.226667,226.16 224.32,226.16 C221.813333,226.16 219.653333,227.12 217.84,229.04 C216.026667,230.96 215.12,233.386667 215.12,236.32 C215.12,239.466667 216.06,241.966667 217.94,243.82 C219.82,245.673333 222.106667,246.6 224.8,246.6 Z M229.64,234.4 L219.12,234.4 C219.2,233.066667 219.72,231.913333 220.68,230.94 C221.64,229.966667 222.866667,229.48 224.36,229.48 C226.013333,229.48 227.293333,229.94 228.2,230.86 C229.106667,231.78 229.586667,232.96 229.64,234.4 L229.64,234.4 Z M253.16,254.04 L265.68,226.76 L261.64,226.76 L255.88,240.04 L249.88,226.76 L245.56,226.76 L253.84,243.88 L249.04,254.04 L253.16,254.04 Z M276.72,246.6 C279.6,246.6 281.96,245.633333 283.8,243.7 C285.64,241.766667 286.56,239.32 286.56,236.36 C286.56,233.426667 285.633333,230.993333 283.78,229.06 C281.926667,227.126667 279.573333,226.16 276.72,226.16 C273.866667,226.16 271.506667,227.133333 269.64,229.08 C267.8,231 266.88,233.426667 266.88,236.36 C266.88,239.32 267.8,241.766667 269.64,243.7 C271.48,245.633333 273.84,246.6 276.72,246.6 Z M276.72,243.24 C275.04,243.24 273.613333,242.64 272.44,241.44 C271.293333,240.213333 270.72,238.52 270.72,236.36 C270.72,234.226667 271.3,232.553333 272.46,231.34 C273.62,230.126667 275.04,229.52 276.72,229.52 C278.4,229.52 279.82,230.126667 280.98,231.34 C282.14,232.553333 282.72,234.226667 282.72,236.36 C282.72,238.52 282.14,240.206667 280.98,241.42 C279.82,242.633333 278.4,243.24 276.72,243.24 Z M298.16,246.6 C299.36,246.6 300.48,246.353333 301.52,245.86 C302.56,245.366667 303.333333,244.64 303.84,243.68 C303.84,244.64 303.893333,245.413333 304,246 L304,246 L307.6,246 C307.466667,244.88 307.4,243.693333 307.4,242.44 L307.4,242.44 L307.4,226.76 L303.64,226.76 L303.64,238.36 C303.64,239.853333 303.253333,241.046667 302.48,241.94 C301.706667,242.833333 300.573333,243.28 299.08,243.28 C297.586667,243.28 296.486667,242.813333 295.78,241.88 C295.073333,240.946667 294.72,239.76 294.72,238.32 L294.72,238.32 L294.72,226.76 L290.96,226.76 L290.96,238.88 C290.96,241.12 291.613333,242.966667 292.92,244.42 C294.226667,245.873333 295.973333,246.6 298.16,246.6 Z M321.96,237.88 C321.933333,237.613333 321.92,237.36 321.92,237.12 C321.92,235.36 322.506667,234.08 323.68,233.28 L323.68,233.28 L325.52,232.04 C328.24,230.2 329.6,227.88 329.6,225.08 C329.6,222.92 328.806667,221.04 327.22,219.44 C325.633333,217.84 323.506667,217.04 320.84,217.04 C318.893333,217.04 317.226667,217.48 315.84,218.36 C314.453333,219.24 313.466667,220.28 312.88,221.48 C312.293333,222.68 312,223.933333 312,225.24 C312,225.96 312.08,226.6 312.24,227.16 L312.24,227.16 L316.12,227.64 C315.933333,227.133333 315.84,226.48 315.84,225.68 C315.84,224.293333 316.266667,223.093333 317.12,222.08 C317.973333,221.066667 319.213333,220.56 320.84,220.56 C322.36,220.56 323.533333,221 324.36,221.88 C325.186667,222.76 325.6,223.84 325.6,225.12 C325.6,226.773333 324.893333,228.08 323.48,229.04 L323.48,229.04 L321.72,230.24 C319.506667,231.733333 318.4,233.813333 318.4,236.48 C318.4,237.093333 318.413333,237.56 318.44,237.88 L318.44,237.88 L321.96,237.88 Z M320.16,246.2 C320.88,246.2 321.5,245.946667 322.02,245.44 C322.54,244.933333 322.8,244.32 322.8,243.6 C322.8,242.88 322.54,242.26 322.02,241.74 C321.5,241.22 320.88,240.96 320.16,240.96 C319.44,240.96 318.826667,241.22 318.32,241.74 C317.813333,242.26 317.56,242.88 317.56,243.6 C317.56,244.32 317.813333,244.933333 318.32,245.44 C318.826667,245.946667 319.44,246.2 320.16,246.2 Z" id="Hi,howareyou?" fill="#FFFFFF" fill-rule="nonzero"></path>
                    <path d="M162.8,117 L162.8,92.28 L172.28,92.28 L172.28,88.64 L149.4,88.64 L149.4,92.28 L158.88,92.28 L158.88,117 L162.8,117 Z M179.64,117 L179.64,105.68 C179.693333,104.186667 180.106667,102.966667 180.88,102.02 C181.653333,101.073333 182.733333,100.6 184.12,100.6 C187.106667,100.6 188.6,102.213333 188.6,105.44 L188.6,105.44 L188.6,117 L192.36,117 L192.36,104.8 C192.36,102.56 191.766667,100.733333 190.58,99.32 C189.393333,97.9066667 187.693333,97.2 185.48,97.2 C182.866667,97.2 180.92,98.1333333 179.64,100 L179.64,100 L179.64,88.04 L175.88,88.04 L175.88,117 L179.64,117 Z M203.6,117.6 C205.146667,117.6 206.433333,117.28 207.46,116.64 C208.486667,116 209.266667,115.253333 209.8,114.4 C209.8,115.333333 209.866667,116.2 210,117 L210,117 L213.68,117 C213.52,116.04 213.44,114.986667 213.44,113.84 L213.44,113.84 L213.44,104.2 C213.44,102.146667 212.786667,100.46 211.48,99.14 C210.173333,97.82 208.16,97.16 205.44,97.16 C203.36,97.16 201.573333,97.74 200.08,98.9 C198.586667,100.06 197.746667,101.56 197.56,103.4 L197.56,103.4 L201.16,104.24 C201.293333,103.066667 201.733333,102.126667 202.48,101.42 C203.226667,100.713333 204.24,100.36 205.52,100.36 C206.906667,100.36 207.946667,100.68 208.64,101.32 C209.333333,101.96 209.68,102.786667 209.68,103.8 C209.68,104.626667 209.186667,105.106667 208.2,105.24 L208.2,105.24 L203,106 C201.24,106.24 199.826667,106.86 198.76,107.86 C197.693333,108.86 197.16,110.186667 197.16,111.84 C197.16,113.413333 197.76,114.766667 198.96,115.9 C200.16,117.033333 201.706667,117.6 203.6,117.6 Z M204.12,114.44 C203.186667,114.44 202.433333,114.16 201.86,113.6 C201.286667,113.04 201,112.386667 201,111.64 C201,110.813333 201.253333,110.16 201.76,109.68 C202.266667,109.2 202.946667,108.893333 203.8,108.76 L203.8,108.76 L209.68,107.88 L209.68,108.76 C209.68,110.733333 209.173333,112.173333 208.16,113.08 C207.146667,113.986667 205.8,114.44 204.12,114.44 Z M223.04,117 L223.04,105.88 C223.04,104.36 223.433333,103.1 224.22,102.1 C225.006667,101.1 226.106667,100.6 227.52,100.6 C230.506667,100.6 232,102.213333 232,105.44 L232,105.44 L232,117 L235.76,117 L235.76,104.8 C235.76,102.56 235.166667,100.733333 233.98,99.32 C232.793333,97.9066667 231.093333,97.2 228.88,97.2 C226.213333,97.2 224.24,98.3066667 222.96,100.52 L222.96,100.52 L222.96,97.76 L219.28,97.76 L219.28,117 L223.04,117 Z M245.48,117 L245.48,111.2 L248.16,108.52 L254.44,117 L259.16,117 L250.8,105.88 L259,97.76 L253.8,97.76 L245.48,106.28 L245.48,88.04 L241.76,88.04 L241.76,117 L245.48,117 Z M277.56,125.04 L290.08,97.76 L286.04,97.76 L280.28,111.04 L274.28,97.76 L269.96,97.76 L278.24,114.88 L273.44,125.04 L277.56,125.04 Z M301.12,117.6 C304,117.6 306.36,116.633333 308.2,114.7 C310.04,112.766667 310.96,110.32 310.96,107.36 C310.96,104.426667 310.033333,101.993333 308.18,100.06 C306.326667,98.1266667 303.973333,97.16 301.12,97.16 C298.266667,97.16 295.906667,98.1333333 294.04,100.08 C292.2,102 291.28,104.426667 291.28,107.36 C291.28,110.32 292.2,112.766667 294.04,114.7 C295.88,116.633333 298.24,117.6 301.12,117.6 Z M301.12,114.24 C299.44,114.24 298.013333,113.64 296.84,112.44 C295.693333,111.213333 295.12,109.52 295.12,107.36 C295.12,105.226667 295.7,103.553333 296.86,102.34 C298.02,101.126667 299.44,100.52 301.12,100.52 C302.8,100.52 304.22,101.126667 305.38,102.34 C306.54,103.553333 307.12,105.226667 307.12,107.36 C307.12,109.52 306.54,111.206667 305.38,112.42 C304.22,113.633333 302.8,114.24 301.12,114.24 Z M322.56,117.6 C323.76,117.6 324.88,117.353333 325.92,116.86 C326.96,116.366667 327.733333,115.64 328.24,114.68 C328.24,115.64 328.293333,116.413333 328.4,117 L328.4,117 L332,117 C331.866667,115.88 331.8,114.693333 331.8,113.44 L331.8,113.44 L331.8,97.76 L328.04,97.76 L328.04,109.36 C328.04,110.853333 327.653333,112.046667 326.88,112.94 C326.106667,113.833333 324.973333,114.28 323.48,114.28 C321.986667,114.28 320.886667,113.813333 320.18,112.88 C319.473333,111.946667 319.12,110.76 319.12,109.32 L319.12,109.32 L319.12,97.76 L315.36,97.76 L315.36,109.88 C315.36,112.12 316.013333,113.966667 317.32,115.42 C318.626667,116.873333 320.373333,117.6 322.56,117.6 Z" id="Thankyou" fill="#FFFFFF" fill-rule="nonzero"></path>
                    <mask id="mask-2" fill="white">
                        <use xlink:href="#path-1"></use>
                    </mask>
                    <g id="Mask">
                        <use fill="black" fill-opacity="1" filter="url(#filter-3)" xlink:href="#path-1"></use>
                        <use fill="#EDF3F9" fill-rule="evenodd" xlink:href="#path-1"></use>
                    </g>
                    <g id="Group-9" mask="url(#mask-2)">
                        <g transform="translate(226.000000, 109.000000)">
                            <rect id="Rectangle" fill="#E8EFF9" fill-rule="evenodd" x="0" y="0.677333333" width="533" height="391"></rect>
                            <rect id="Rectangle" fill="#FFFFFF" fill-rule="evenodd" x="0" y="311.464" width="533" height="403.658667" rx="40"></rect>
                            <rect id="Rectangle" fill="#C4C4C6" fill-rule="evenodd" x="241" y="325" width="51" height="7" rx="3.5"></rect>
                            <g id="Bars/Home-Indicator/iPhone/Light---Portrait" fill="none" transform="translate(171.981333, 666.797333)" fill-rule="evenodd">
                                <rect id="Home-Indicator" fill="#000000" x="4.26325641e-14" y="29.848" width="190.458667" height="7.10666667" rx="3.55333333"></rect>
                            </g>
                            <path d="M48.3364375,389.264458 C60.1068542,389.264458 69.8563125,379.515 69.8563125,367.722375 C69.8563125,355.951958 60.0846458,346.2025 48.3142292,346.2025 C36.5438125,346.2025 26.7943542,355.951958 26.7943542,367.722375 C26.7943542,379.515 36.5660208,389.264458 48.3364375,389.264458 Z" id="Path" fill="#869FB7" fill-rule="nonzero"></path>
                            <path d="M37.7430625,370.898167 C36.0330208,370.898167 34.6116875,369.432417 34.6116875,367.744583 C34.6116875,366.05675 36.0108125,364.568792 37.7430625,364.568792 C39.4531042,364.568792 40.9188542,366.05675 40.9188542,367.744583 C40.9188542,369.432417 39.4531042,370.898167 37.7430625,370.898167 Z" id="Path" fill="#FFFFFF" fill-rule="nonzero"></path>
                            <path d="M48.3142292,370.898167 C46.6263958,370.898167 45.1606458,369.432417 45.1606458,367.744583 C45.1606458,366.05675 46.5819792,364.568792 48.3142292,364.568792 C50.0020625,364.568792 51.4678125,366.05675 51.4678125,367.744583 C51.4678125,369.432417 50.0020625,370.898167 48.3142292,370.898167 Z" id="Path" fill="#FFFFFF" fill-rule="nonzero"></path>
                            <path d="M58.8631875,370.898167 C57.1753542,370.898167 55.7096042,369.432417 55.7096042,367.744583 C55.7096042,366.05675 57.1531458,364.568792 58.8631875,364.568792 C60.5954375,364.568792 62.0167708,366.05675 62.0167708,367.744583 C62.0167708,369.432417 60.5954375,370.898167 58.8631875,370.898167 Z" id="Path" fill="#FFFFFF" fill-rule="nonzero"></path>
                            <path d="M484.685771,389.264458 C496.456188,389.264458 506.205646,379.515 506.205646,367.722375 C506.205646,355.951958 496.433979,346.2025 484.663563,346.2025 C472.893146,346.2025 463.143688,355.951958 463.143688,367.722375 C463.143688,379.515 472.915354,389.264458 484.685771,389.264458 Z" id="Path" fill="url(#linearGradient-4)" fill-rule="nonzero"></path>
                            <path d="M484.641354,378.1825 C483.419896,378.1825 482.731438,377.294167 482.731438,376.0505 L482.731438,369.6545 L476.002313,369.6545 C474.714229,369.6545 473.825896,368.966042 473.825896,367.766792 C473.825896,366.523125 474.669813,365.812458 476.002313,365.812458 L482.731438,365.812458 L482.731438,359.038917 C482.731438,357.773042 483.419896,356.906917 484.641354,356.906917 C485.840604,356.906917 486.595688,357.750833 486.595688,359.038917 L486.595688,365.812458 L493.347021,365.812458 C494.657313,365.812458 495.479021,366.523125 495.479021,367.766792 C495.479021,368.966042 494.612896,369.6545 493.347021,369.6545 L486.595688,369.6545 L486.595688,376.0505 C486.595688,377.338583 485.840604,378.1825 484.641354,378.1825 Z" id="Path" fill="#FFFFFF" fill-rule="nonzero"></path>
                        </g>
                    </g>
                </g>
                <rect id="Rectangle" fill="#007AFF" x="424" y="233" width="314" height="51" rx="25.5"></rect>
                <text id="😂😂" font-family="AppleColorEmoji, Apple Color Emoji" font-size="27" font-weight="normal" line-spacing="36" fill="#FFFFFF">
                    <tspan x="647.5" y="267">😂😂</tspan>
                </text>
                <path d="M463.7025,267 L463.7025,250.314 L470.1015,250.314 L470.1015,247.857 L454.6575,247.857 L454.6575,250.314 L461.0565,250.314 L461.0565,267 L463.7025,267 Z M475.0695,267 L475.0695,259.359 C475.1055,258.351 475.3845,257.5275 475.9065,256.8885 C476.4285,256.2495 477.1575,255.93 478.0935,255.93 C480.1095,255.93 481.1175,257.019 481.1175,259.197 L481.1175,259.197 L481.1175,267 L483.6555,267 L483.6555,258.765 C483.6555,257.253 483.255,256.02 482.454,255.066 C481.653,254.112 480.5055,253.635 479.0115,253.635 C477.2475,253.635 475.9335,254.265 475.0695,255.525 L475.0695,255.525 L475.0695,247.452 L472.5315,247.452 L472.5315,267 L475.0695,267 Z M491.2425,267.405 C492.2865,267.405 493.155,267.189 493.848,266.757 C494.541,266.325 495.0675,265.821 495.4275,265.245 C495.4275,265.875 495.4725,266.46 495.5625,267 L495.5625,267 L498.0465,267 C497.9385,266.352 497.8845,265.641 497.8845,264.867 L497.8845,264.867 L497.8845,258.36 C497.8845,256.974 497.4435,255.8355 496.5615,254.9445 C495.6795,254.0535 494.3205,253.608 492.4845,253.608 C491.0805,253.608 489.8745,253.9995 488.8665,254.7825 C487.8585,255.5655 487.2915,256.578 487.1655,257.82 L487.1655,257.82 L489.5955,258.387 C489.6855,257.595 489.9825,256.9605 490.4865,256.4835 C490.9905,256.0065 491.6745,255.768 492.5385,255.768 C493.4745,255.768 494.1765,255.984 494.6445,256.416 C495.1125,256.848 495.3465,257.406 495.3465,258.09 C495.3465,258.648 495.0135,258.972 494.3475,259.062 L494.3475,259.062 L490.8375,259.575 C489.6495,259.737 488.6955,260.1555 487.9755,260.8305 C487.2555,261.5055 486.8955,262.401 486.8955,263.517 C486.8955,264.579 487.3005,265.4925 488.1105,266.2575 C488.9205,267.0225 489.9645,267.405 491.2425,267.405 Z M491.5935,265.272 C490.9635,265.272 490.455,265.083 490.068,264.705 C489.681,264.327 489.4875,263.886 489.4875,263.382 C489.4875,262.824 489.6585,262.383 490.0005,262.059 C490.3425,261.735 490.8015,261.528 491.3775,261.438 L491.3775,261.438 L495.3465,260.844 L495.3465,261.438 C495.3465,262.77 495.0045,263.742 494.3205,264.354 C493.6365,264.966 492.7275,265.272 491.5935,265.272 Z M506.3085,267.135 C507.0285,267.135 507.6045,267.054 508.0365,266.892 L508.0365,266.892 L508.0365,264.732 C507.7485,264.804 507.4155,264.84 507.0375,264.84 C506.3895,264.84 505.926,264.696 505.647,264.408 C505.368,264.12 505.2285,263.67 505.2285,263.058 L505.2285,263.058 L505.2285,256.308 L508.0365,256.308 L508.0365,254.013 L505.2285,254.013 L505.2285,249.909 L502.9065,249.909 L502.9065,252.015 C502.9065,252.609 502.74,253.0905 502.407,253.4595 C502.074,253.8285 501.5745,254.013 500.9085,254.013 L500.9085,254.013 L500.2065,254.013 L500.2065,256.308 L502.6905,256.308 L502.6905,263.436 C502.6905,264.606 503.0145,265.515 503.6625,266.163 C504.3105,266.811 505.1925,267.135 506.3085,267.135 Z M509.8185,254.904 C510.7725,254.796 511.632,254.328 512.397,253.5 C513.162,252.672 513.5445,251.502 513.5445,249.99 C513.5445,249.234 513.3465,248.649 512.9505,248.235 C512.5545,247.821 512.0685,247.614 511.4925,247.614 C510.9705,247.614 510.534,247.7805 510.183,248.1135 C509.832,248.4465 509.6565,248.838 509.6565,249.288 C509.6565,249.81 509.8185,250.2285 510.1425,250.5435 C510.4665,250.8585 510.8715,251.016 511.3575,251.016 C511.5915,251.016 511.7715,250.971 511.8975,250.881 C511.8795,251.511 511.677,252.0915 511.29,252.6225 C510.903,253.1535 510.4125,253.482 509.8185,253.608 L509.8185,253.608 L509.8185,254.904 Z M519.3765,267.405 C520.8705,267.405 522.036,266.991 522.873,266.163 C523.71,265.335 524.1285,264.408 524.1285,263.382 C524.1285,262.41 523.818,261.5865 523.197,260.9115 C522.576,260.2365 521.6895,259.773 520.5375,259.521 L520.5375,259.521 L518.4315,259.062 C517.4415,258.846 516.9465,258.324 516.9465,257.496 C516.9465,257.028 517.149,256.623 517.554,256.281 C517.959,255.939 518.4765,255.768 519.1065,255.768 C519.5925,255.768 520.0155,255.8445 520.3755,255.9975 C520.7355,256.1505 521.01,256.353 521.199,256.605 C521.388,256.857 521.5275,257.0865 521.6175,257.2935 C521.7075,257.5005 521.7705,257.712 521.8065,257.928 L521.8065,257.928 L524.0475,257.091 C523.9575,256.731 523.8225,256.38 523.6425,256.038 C523.4625,255.696 523.1925,255.327 522.8325,254.931 C522.4725,254.535 521.9685,254.2155 521.3205,253.9725 C520.6725,253.7295 519.9345,253.608 519.1065,253.608 C517.8465,253.608 516.762,254.013 515.853,254.823 C514.944,255.633 514.4895,256.596 514.4895,257.712 C514.4895,258.63 514.7775,259.413 515.3535,260.061 C515.9295,260.709 516.7215,261.141 517.7295,261.357 L517.7295,261.357 L519.9435,261.843 C521.0595,262.095 521.6175,262.653 521.6175,263.517 C521.6175,264.003 521.4195,264.4125 521.0235,264.7455 C520.6275,265.0785 520.0875,265.245 519.4035,265.245 C518.5215,265.245 517.8195,265.0155 517.2975,264.5565 C516.7755,264.0975 516.4695,263.517 516.3795,262.815 L516.3795,262.815 L514.0845,263.625 C514.2105,264.543 514.7235,265.4025 515.6235,266.2035 C516.5235,267.0045 517.7745,267.405 519.3765,267.405 Z M536.7915,267 L536.7915,259.359 C536.8275,258.351 537.1065,257.5275 537.6285,256.8885 C538.1505,256.2495 538.8795,255.93 539.8155,255.93 C541.8315,255.93 542.8395,257.019 542.8395,259.197 L542.8395,259.197 L542.8395,267 L545.3775,267 L545.3775,258.765 C545.3775,257.253 544.977,256.02 544.176,255.066 C543.375,254.112 542.2275,253.635 540.7335,253.635 C538.9695,253.635 537.6555,254.265 536.7915,255.525 L536.7915,255.525 L536.7915,247.452 L534.2535,247.452 L534.2535,267 L536.7915,267 Z M550.6695,250.908 C551.1735,250.908 551.6055,250.7325 551.9655,250.3815 C552.3255,250.0305 552.5055,249.603 552.5055,249.099 C552.5055,248.577 552.3255,248.1405 551.9655,247.7895 C551.6055,247.4385 551.1735,247.263 550.6695,247.263 C550.1655,247.263 549.738,247.443 549.387,247.803 C549.036,248.163 548.8605,248.595 548.8605,249.099 C548.8605,249.603 549.0315,250.035 549.3735,250.395 C549.7335,250.737 550.1655,250.908 550.6695,250.908 Z M551.9385,267 L551.9385,254.013 L549.4275,254.013 L549.4275,267 L551.9385,267 Z M558.7965,267 L558.7965,247.452 L556.2585,247.452 L556.2585,267 L558.7965,267 Z M566.6535,267.405 C567.6975,267.405 568.566,267.189 569.259,266.757 C569.952,266.325 570.4785,265.821 570.8385,265.245 C570.8385,265.875 570.8835,266.46 570.9735,267 L570.9735,267 L573.4575,267 C573.3495,266.352 573.2955,265.641 573.2955,264.867 L573.2955,264.867 L573.2955,258.36 C573.2955,256.974 572.8545,255.8355 571.9725,254.9445 C571.0905,254.0535 569.7315,253.608 567.8955,253.608 C566.4915,253.608 565.2855,253.9995 564.2775,254.7825 C563.2695,255.5655 562.7025,256.578 562.5765,257.82 L562.5765,257.82 L565.0065,258.387 C565.0965,257.595 565.3935,256.9605 565.8975,256.4835 C566.4015,256.0065 567.0855,255.768 567.9495,255.768 C568.8855,255.768 569.5875,255.984 570.0555,256.416 C570.5235,256.848 570.7575,257.406 570.7575,258.09 C570.7575,258.648 570.4245,258.972 569.7585,259.062 L569.7585,259.062 L566.2485,259.575 C565.0605,259.737 564.1065,260.1555 563.3865,260.8305 C562.6665,261.5055 562.3065,262.401 562.3065,263.517 C562.3065,264.579 562.7115,265.4925 563.5215,266.2575 C564.3315,267.0225 565.3755,267.405 566.6535,267.405 Z M567.0045,265.272 C566.3745,265.272 565.866,265.083 565.479,264.705 C565.092,264.327 564.8985,263.886 564.8985,263.382 C564.8985,262.824 565.0695,262.383 565.4115,262.059 C565.7535,261.735 566.2125,261.528 566.7885,261.438 L566.7885,261.438 L570.7575,260.844 L570.7575,261.438 C570.7575,262.77 570.4155,263.742 569.7315,264.354 C569.0475,264.966 568.1385,265.272 567.0045,265.272 Z M579.7755,267 L579.7755,260.493 C579.7755,257.829 580.9635,256.497 583.3395,256.497 C583.6995,256.497 584.0685,256.524 584.4465,256.578 L584.4465,256.578 L584.4465,253.878 C584.1765,253.824 583.8975,253.797 583.6095,253.797 C581.8095,253.797 580.5135,254.625 579.7215,256.281 L579.7215,256.281 L579.7215,254.013 L577.2375,254.013 L577.2375,267 L579.7755,267 Z M588.3885,250.908 C588.8925,250.908 589.3245,250.7325 589.6845,250.3815 C590.0445,250.0305 590.2245,249.603 590.2245,249.099 C590.2245,248.577 590.0445,248.1405 589.6845,247.7895 C589.3245,247.4385 588.8925,247.263 588.3885,247.263 C587.8845,247.263 587.457,247.443 587.106,247.803 C586.755,248.163 586.5795,248.595 586.5795,249.099 C586.5795,249.603 586.7505,250.035 587.0925,250.395 C587.4525,250.737 587.8845,250.908 588.3885,250.908 Z M589.6575,267 L589.6575,254.013 L587.1465,254.013 L587.1465,267 L589.6575,267 Z M599.5395,267.405 C601.4835,267.405 603.0765,266.7525 604.3185,265.4475 C605.5605,264.1425 606.1815,262.491 606.1815,260.493 C606.1815,258.513 605.556,256.8705 604.305,255.5655 C603.054,254.2605 601.4655,253.608 599.5395,253.608 C597.6135,253.608 596.0205,254.265 594.7605,255.579 C593.5185,256.875 592.8975,258.513 592.8975,260.493 C592.8975,262.491 593.5185,264.1425 594.7605,265.4475 C596.0025,266.7525 597.5955,267.405 599.5395,267.405 Z M599.5395,265.137 C598.4055,265.137 597.4425,264.732 596.6505,263.922 C595.8765,263.094 595.4895,261.951 595.4895,260.493 C595.4895,259.053 595.881,257.9235 596.664,257.1045 C597.447,256.2855 598.4055,255.876 599.5395,255.876 C600.6735,255.876 601.632,256.2855 602.415,257.1045 C603.198,257.9235 603.5895,259.053 603.5895,260.493 C603.5895,261.951 603.198,263.0895 602.415,263.9085 C601.632,264.7275 600.6735,265.137 599.5395,265.137 Z M614.0115,267.405 C614.8215,267.405 615.5775,267.2385 616.2795,266.9055 C616.9815,266.5725 617.5035,266.082 617.8455,265.434 C617.8455,266.082 617.8815,266.604 617.9535,267 L617.9535,267 L620.3835,267 C620.2935,266.244 620.2485,265.443 620.2485,264.597 L620.2485,264.597 L620.2485,254.013 L617.7105,254.013 L617.7105,261.843 C617.7105,262.851 617.4495,263.6565 616.9275,264.2595 C616.4055,264.8625 615.6405,265.164 614.6325,265.164 C613.6245,265.164 612.882,264.849 612.405,264.219 C611.928,263.589 611.6895,262.788 611.6895,261.816 L611.6895,261.816 L611.6895,254.013 L609.1515,254.013 L609.1515,262.194 C609.1515,263.706 609.5925,264.9525 610.4745,265.9335 C611.3565,266.9145 612.5355,267.405 614.0115,267.405 Z M628.6455,267.405 C630.1395,267.405 631.305,266.991 632.142,266.163 C632.979,265.335 633.3975,264.408 633.3975,263.382 C633.3975,262.41 633.087,261.5865 632.466,260.9115 C631.845,260.2365 630.9585,259.773 629.8065,259.521 L629.8065,259.521 L627.7005,259.062 C626.7105,258.846 626.2155,258.324 626.2155,257.496 C626.2155,257.028 626.418,256.623 626.823,256.281 C627.228,255.939 627.7455,255.768 628.3755,255.768 C628.8615,255.768 629.2845,255.8445 629.6445,255.9975 C630.0045,256.1505 630.279,256.353 630.468,256.605 C630.657,256.857 630.7965,257.0865 630.8865,257.2935 C630.9765,257.5005 631.0395,257.712 631.0755,257.928 L631.0755,257.928 L633.3165,257.091 C633.2265,256.731 633.0915,256.38 632.9115,256.038 C632.7315,255.696 632.4615,255.327 632.1015,254.931 C631.7415,254.535 631.2375,254.2155 630.5895,253.9725 C629.9415,253.7295 629.2035,253.608 628.3755,253.608 C627.1155,253.608 626.031,254.013 625.122,254.823 C624.213,255.633 623.7585,256.596 623.7585,257.712 C623.7585,258.63 624.0465,259.413 624.6225,260.061 C625.1985,260.709 625.9905,261.141 626.9985,261.357 L626.9985,261.357 L629.2125,261.843 C630.3285,262.095 630.8865,262.653 630.8865,263.517 C630.8865,264.003 630.6885,264.4125 630.2925,264.7455 C629.8965,265.0785 629.3565,265.245 628.6725,265.245 C627.7905,265.245 627.0885,265.0155 626.5665,264.5565 C626.0445,264.0975 625.7385,263.517 625.6485,262.815 L625.6485,262.815 L623.3535,263.625 C623.4795,264.543 623.9925,265.4025 624.8925,266.2035 C625.7925,267.0045 627.0435,267.405 628.6455,267.405 Z" id="That’shilarious" fill="#FFFFFF" fill-rule="nonzero"></path>
                <g id="AGAIN!!-Why-do-these" transform="translate(275.000000, 125.000000)">
                    <path d="M0,0 L380,0 L380,40.5 C380,60.382251 363.882251,76.5 344,76.5 L36,76.5 C16.117749,76.5 2.4348735e-15,60.382251 0,40.5 L0,0 L0,0 Z" id="Rectangle" fill="#FFFFFF"></path>
                    <path d="M17.76,29 L19.56,24.248 L27.096,24.248 L28.944,29 L31.488,29 L24.72,11.984 L22.008,11.984 L15.24,29 L17.76,29 Z M26.256,22.064 L20.4,22.064 L23.304,14.432 L26.256,22.064 Z M40.464,29.36 C41.792,29.36 42.928,29.088 43.872,28.544 C44.816,28 45.496,27.352 45.912,26.6 L45.912,26.6 L46.128,29 L48.024,29 L48.024,20.672 L39.888,20.672 L39.888,22.784 L45.792,22.784 C45.76,23.264 45.644,23.744 45.444,24.224 C45.244,24.704 44.948,25.18 44.556,25.652 C44.164,26.124 43.62,26.504 42.924,26.792 C42.228,27.08 41.432,27.224 40.536,27.224 C38.904,27.224 37.508,26.636 36.348,25.46 C35.188,24.284 34.608,22.624 34.608,20.48 C34.608,18.352 35.2,16.704 36.384,15.536 C37.568,14.368 38.984,13.784 40.632,13.784 C41.944,13.784 43.076,14.124 44.028,14.804 C44.98,15.484 45.648,16.44 46.032,17.672 L46.032,17.672 L48.168,16.76 C47.672,15.208 46.748,13.964 45.396,13.028 C44.044,12.092 42.456,11.624 40.632,11.624 C39.192,11.624 37.844,11.952 36.588,12.608 C35.332,13.264 34.288,14.28 33.456,15.656 C32.624,17.032 32.208,18.64 32.208,20.48 C32.208,22.32 32.604,23.928 33.396,25.304 C34.188,26.68 35.2,27.7 36.432,28.364 C37.664,29.028 39.008,29.36 40.464,29.36 Z M52.248,29 L54.048,24.248 L61.584,24.248 L63.432,29 L65.976,29 L59.208,11.984 L56.496,11.984 L49.728,29 L52.248,29 Z M60.744,22.064 L54.888,22.064 L57.792,14.432 L60.744,22.064 Z M70.776,29 L70.776,11.984 L68.376,11.984 L68.376,29 L70.776,29 Z M77.448,29 L77.448,15.128 L86.64,29 L89.088,29 L89.088,11.984 L86.736,11.984 L86.736,25.04 L78.24,11.984 L75.096,11.984 L75.096,29 L77.448,29 Z M95.784,24.128 L96.384,11.984 L93.552,11.984 L94.176,24.128 L95.784,24.128 Z M94.968,29.12 C95.4,29.12 95.772,28.968 96.084,28.664 C96.396,28.36 96.552,27.992 96.552,27.56 C96.552,27.128 96.396,26.756 96.084,26.444 C95.772,26.132 95.4,25.976 94.968,25.976 C94.536,25.976 94.168,26.132 93.864,26.444 C93.56,26.756 93.408,27.128 93.408,27.56 C93.408,27.992 93.56,28.36 93.864,28.664 C94.168,28.968 94.536,29.12 94.968,29.12 Z M103.248,24.128 L103.848,11.984 L101.016,11.984 L101.64,24.128 L103.248,24.128 Z M102.432,29.12 C102.864,29.12 103.236,28.968 103.548,28.664 C103.86,28.36 104.016,27.992 104.016,27.56 C104.016,27.128 103.86,26.756 103.548,26.444 C103.236,26.132 102.864,25.976 102.432,25.976 C102,25.976 101.632,26.132 101.328,26.444 C101.024,26.756 100.872,27.128 100.872,27.56 C100.872,27.992 101.024,28.36 101.328,28.664 C101.632,28.968 102,29.12 102.432,29.12 Z M119.808,29 L124.2,15.2 L128.64,29 L131.064,29 L135.912,11.984 L133.488,11.984 L129.816,25.448 L125.448,11.984 L122.976,11.984 L118.704,25.304 L114.96,11.984 L112.536,11.984 L117.456,29 L119.808,29 Z M140.448,29 L140.448,22.208 C140.48,21.312 140.728,20.58 141.192,20.012 C141.656,19.444 142.304,19.16 143.136,19.16 C144.928,19.16 145.824,20.128 145.824,22.064 L145.824,22.064 L145.824,29 L148.08,29 L148.08,21.68 C148.08,20.336 147.724,19.24 147.012,18.392 C146.3,17.544 145.28,17.12 143.952,17.12 C142.384,17.12 141.216,17.68 140.448,18.8 L140.448,18.8 L140.448,11.624 L138.192,11.624 L138.192,29 L140.448,29 Z M154.56,33.824 L162.072,17.456 L159.648,17.456 L156.192,25.424 L152.592,17.456 L150,17.456 L154.968,27.728 L152.088,33.824 L154.56,33.824 Z M174.744,29.312 C175.592,29.312 176.324,29.116 176.94,28.724 C177.556,28.332 178.016,27.84 178.32,27.248 L178.32,27.248 L178.32,27.44 C178.32,28.032 178.36,28.552 178.44,29 L178.44,29 L180.624,29 C180.544,28.36 180.504,27.648 180.504,26.864 L180.504,26.864 L180.504,11.624 L178.272,11.624 L178.272,19.088 C178.048,18.544 177.64,18.084 177.048,17.708 C176.456,17.332 175.688,17.144 174.744,17.144 C173.144,17.144 171.832,17.732 170.808,18.908 C169.784,20.084 169.272,21.512 169.272,23.192 C169.272,24.952 169.772,26.412 170.772,27.572 C171.772,28.732 173.096,29.312 174.744,29.312 Z M174.96,27.32 C173.904,27.32 173.076,26.936 172.476,26.168 C171.876,25.4 171.576,24.408 171.576,23.192 C171.576,21.992 171.888,21.016 172.512,20.264 C173.136,19.512 173.96,19.136 174.984,19.136 C176.008,19.136 176.816,19.504 177.408,20.24 C178,20.976 178.296,21.944 178.296,23.144 C178.296,24.36 177.992,25.36 177.384,26.144 C176.776,26.928 175.968,27.32 174.96,27.32 Z M189.288,29.36 C191.016,29.36 192.432,28.78 193.536,27.62 C194.64,26.46 195.192,24.992 195.192,23.216 C195.192,21.456 194.636,19.996 193.524,18.836 C192.412,17.676 191,17.096 189.288,17.096 C187.576,17.096 186.16,17.68 185.04,18.848 C183.936,20 183.384,21.456 183.384,23.216 C183.384,24.992 183.936,26.46 185.04,27.62 C186.144,28.78 187.56,29.36 189.288,29.36 Z M189.288,27.344 C188.28,27.344 187.424,26.984 186.72,26.264 C186.032,25.528 185.688,24.512 185.688,23.216 C185.688,21.936 186.036,20.932 186.732,20.204 C187.428,19.476 188.28,19.112 189.288,19.112 C190.296,19.112 191.148,19.476 191.844,20.204 C192.54,20.932 192.888,21.936 192.888,23.216 C192.888,24.512 192.54,25.524 191.844,26.252 C191.148,26.98 190.296,27.344 189.288,27.344 Z M208.056,29.12 C208.696,29.12 209.208,29.048 209.592,28.904 L209.592,28.904 L209.592,26.984 C209.336,27.048 209.04,27.08 208.704,27.08 C208.128,27.08 207.716,26.952 207.468,26.696 C207.22,26.44 207.096,26.04 207.096,25.496 L207.096,25.496 L207.096,19.496 L209.592,19.496 L209.592,17.456 L207.096,17.456 L207.096,13.808 L205.032,13.808 L205.032,15.68 C205.032,16.208 204.884,16.636 204.588,16.964 C204.292,17.292 203.848,17.456 203.256,17.456 L203.256,17.456 L202.632,17.456 L202.632,19.496 L204.84,19.496 L204.84,25.832 C204.84,26.872 205.128,27.68 205.704,28.256 C206.28,28.832 207.064,29.12 208.056,29.12 Z M214.848,29 L214.848,22.208 C214.88,21.312 215.128,20.58 215.592,20.012 C216.056,19.444 216.704,19.16 217.536,19.16 C219.328,19.16 220.224,20.128 220.224,22.064 L220.224,22.064 L220.224,29 L222.48,29 L222.48,21.68 C222.48,20.336 222.124,19.24 221.412,18.392 C220.7,17.544 219.68,17.12 218.352,17.12 C216.784,17.12 215.616,17.68 214.848,18.8 L214.848,18.8 L214.848,11.624 L212.592,11.624 L212.592,29 L214.848,29 Z M230.952,29.36 C232.248,29.36 233.352,29.02 234.264,28.34 C235.176,27.66 235.8,26.784 236.136,25.712 L236.136,25.712 L234.192,25.04 C233.68,26.592 232.6,27.368 230.952,27.368 C229.976,27.368 229.156,27.04 228.492,26.384 C227.828,25.728 227.488,24.888 227.472,23.864 L227.472,23.864 L236.16,23.864 C236.192,23.672 236.208,23.432 236.208,23.144 C236.208,21.304 235.72,19.836 234.744,18.74 C233.768,17.644 232.408,17.096 230.664,17.096 C229.16,17.096 227.864,17.672 226.776,18.824 C225.688,19.976 225.144,21.432 225.144,23.192 C225.144,25.08 225.708,26.58 226.836,27.692 C227.964,28.804 229.336,29.36 230.952,29.36 Z M233.856,22.04 L227.544,22.04 C227.592,21.24 227.904,20.548 228.48,19.964 C229.056,19.38 229.792,19.088 230.688,19.088 C231.68,19.088 232.448,19.364 232.992,19.916 C233.536,20.468 233.824,21.176 233.856,22.04 L233.856,22.04 Z M242.712,29.36 C244.04,29.36 245.076,28.992 245.82,28.256 C246.564,27.52 246.936,26.696 246.936,25.784 C246.936,24.92 246.66,24.188 246.108,23.588 C245.556,22.988 244.768,22.576 243.744,22.352 L243.744,22.352 L241.872,21.944 C240.992,21.752 240.552,21.288 240.552,20.552 C240.552,20.136 240.732,19.776 241.092,19.472 C241.452,19.168 241.912,19.016 242.472,19.016 C242.904,19.016 243.28,19.084 243.6,19.22 C243.92,19.356 244.164,19.536 244.332,19.76 C244.5,19.984 244.624,20.188 244.704,20.372 C244.784,20.556 244.84,20.744 244.872,20.936 L244.872,20.936 L246.864,20.192 C246.784,19.872 246.664,19.56 246.504,19.256 C246.344,18.952 246.104,18.624 245.784,18.272 C245.464,17.92 245.016,17.636 244.44,17.42 C243.864,17.204 243.208,17.096 242.472,17.096 C241.352,17.096 240.388,17.456 239.58,18.176 C238.772,18.896 238.368,19.752 238.368,20.744 C238.368,21.56 238.624,22.256 239.136,22.832 C239.648,23.408 240.352,23.792 241.248,23.984 L241.248,23.984 L243.216,24.416 C244.208,24.64 244.704,25.136 244.704,25.904 C244.704,26.336 244.528,26.7 244.176,26.996 C243.824,27.292 243.344,27.44 242.736,27.44 C241.952,27.44 241.328,27.236 240.864,26.828 C240.4,26.42 240.128,25.904 240.048,25.28 L240.048,25.28 L238.008,26 C238.12,26.816 238.576,27.58 239.376,28.292 C240.176,29.004 241.288,29.36 242.712,29.36 Z M254.688,29.36 C255.984,29.36 257.088,29.02 258,28.34 C258.912,27.66 259.536,26.784 259.872,25.712 L259.872,25.712 L257.928,25.04 C257.416,26.592 256.336,27.368 254.688,27.368 C253.712,27.368 252.892,27.04 252.228,26.384 C251.564,25.728 251.224,24.888 251.208,23.864 L251.208,23.864 L259.896,23.864 C259.928,23.672 259.944,23.432 259.944,23.144 C259.944,21.304 259.456,19.836 258.48,18.74 C257.504,17.644 256.144,17.096 254.4,17.096 C252.896,17.096 251.6,17.672 250.512,18.824 C249.424,19.976 248.88,21.432 248.88,23.192 C248.88,25.08 249.444,26.58 250.572,27.692 C251.7,28.804 253.072,29.36 254.688,29.36 Z M257.592,22.04 L251.28,22.04 C251.328,21.24 251.64,20.548 252.216,19.964 C252.792,19.38 253.528,19.088 254.424,19.088 C255.416,19.088 256.184,19.364 256.728,19.916 C257.272,20.468 257.56,21.176 257.592,22.04 L257.592,22.04 Z M272.808,29.12 C273.448,29.12 273.96,29.048 274.344,28.904 L274.344,28.904 L274.344,26.984 C274.088,27.048 273.792,27.08 273.456,27.08 C272.88,27.08 272.468,26.952 272.22,26.696 C271.972,26.44 271.848,26.04 271.848,25.496 L271.848,25.496 L271.848,19.496 L274.344,19.496 L274.344,17.456 L271.848,17.456 L271.848,13.808 L269.784,13.808 L269.784,15.68 C269.784,16.208 269.636,16.636 269.34,16.964 C269.044,17.292 268.6,17.456 268.008,17.456 L268.008,17.456 L267.384,17.456 L267.384,19.496 L269.592,19.496 L269.592,25.832 C269.592,26.872 269.88,27.68 270.456,28.256 C271.032,28.832 271.816,29.12 272.808,29.12 Z M279.6,29 L279.6,22.208 C279.632,21.312 279.88,20.58 280.344,20.012 C280.808,19.444 281.456,19.16 282.288,19.16 C284.08,19.16 284.976,20.128 284.976,22.064 L284.976,22.064 L284.976,29 L287.232,29 L287.232,21.68 C287.232,20.336 286.876,19.24 286.164,18.392 C285.452,17.544 284.432,17.12 283.104,17.12 C281.536,17.12 280.368,17.68 279.6,18.8 L279.6,18.8 L279.6,11.624 L277.344,11.624 L277.344,29 L279.6,29 Z M291.936,14.696 C292.384,14.696 292.768,14.54 293.088,14.228 C293.408,13.916 293.568,13.536 293.568,13.088 C293.568,12.624 293.408,12.236 293.088,11.924 C292.768,11.612 292.384,11.456 291.936,11.456 C291.488,11.456 291.108,11.616 290.796,11.936 C290.484,12.256 290.328,12.64 290.328,13.088 C290.328,13.536 290.48,13.92 290.784,14.24 C291.104,14.544 291.488,14.696 291.936,14.696 Z M293.064,29 L293.064,17.456 L290.832,17.456 L290.832,29 L293.064,29 Z M299.16,29 L299.16,22.328 C299.16,21.416 299.396,20.66 299.868,20.06 C300.34,19.46 301,19.16 301.848,19.16 C303.64,19.16 304.536,20.128 304.536,22.064 L304.536,22.064 L304.536,29 L306.792,29 L306.792,21.68 C306.792,20.336 306.436,19.24 305.724,18.392 C305.012,17.544 303.992,17.12 302.664,17.12 C301.064,17.12 299.88,17.784 299.112,19.112 L299.112,19.112 L299.112,17.456 L296.904,17.456 L296.904,29 L299.16,29 Z M314.88,33.92 C315.92,33.92 316.828,33.76 317.604,33.44 C318.38,33.12 318.984,32.68 319.416,32.12 C319.848,31.56 320.164,30.948 320.364,30.284 C320.564,29.62 320.664,28.904 320.664,28.136 L320.664,28.136 L320.664,17.456 L318.432,17.456 L318.432,19.064 C317.824,17.848 316.64,17.24 314.88,17.24 C313.328,17.24 312.056,17.78 311.064,18.86 C310.072,19.94 309.576,21.272 309.576,22.856 C309.576,24.488 310.076,25.828 311.076,26.876 C312.076,27.924 313.344,28.448 314.88,28.448 C315.712,28.448 316.436,28.272 317.052,27.92 C317.668,27.568 318.12,27.112 318.408,26.552 L318.408,26.552 L318.408,28.208 C318.408,30.704 317.232,31.952 314.88,31.952 C314.016,31.952 313.296,31.684 312.72,31.148 C312.144,30.612 311.816,29.936 311.736,29.12 L311.736,29.12 L309.552,29.624 C309.696,30.872 310.264,31.9 311.256,32.708 C312.248,33.516 313.456,33.92 314.88,33.92 Z M315.216,26.552 C314.192,26.552 313.38,26.22 312.78,25.556 C312.18,24.892 311.88,23.992 311.88,22.856 C311.88,21.736 312.188,20.84 312.804,20.168 C313.42,19.496 314.224,19.16 315.216,19.16 C316.192,19.16 316.984,19.5 317.592,20.18 C318.2,20.86 318.504,21.752 318.504,22.856 C318.504,23.96 318.2,24.852 317.592,25.532 C316.984,26.212 316.192,26.552 315.216,26.552 Z M327.888,29.36 C329.216,29.36 330.252,28.992 330.996,28.256 C331.74,27.52 332.112,26.696 332.112,25.784 C332.112,24.92 331.836,24.188 331.284,23.588 C330.732,22.988 329.944,22.576 328.92,22.352 L328.92,22.352 L327.048,21.944 C326.168,21.752 325.728,21.288 325.728,20.552 C325.728,20.136 325.908,19.776 326.268,19.472 C326.628,19.168 327.088,19.016 327.648,19.016 C328.08,19.016 328.456,19.084 328.776,19.22 C329.096,19.356 329.34,19.536 329.508,19.76 C329.676,19.984 329.8,20.188 329.88,20.372 C329.96,20.556 330.016,20.744 330.048,20.936 L330.048,20.936 L332.04,20.192 C331.96,19.872 331.84,19.56 331.68,19.256 C331.52,18.952 331.28,18.624 330.96,18.272 C330.64,17.92 330.192,17.636 329.616,17.42 C329.04,17.204 328.384,17.096 327.648,17.096 C326.528,17.096 325.564,17.456 324.756,18.176 C323.948,18.896 323.544,19.752 323.544,20.744 C323.544,21.56 323.8,22.256 324.312,22.832 C324.824,23.408 325.528,23.792 326.424,23.984 L326.424,23.984 L328.392,24.416 C329.384,24.64 329.88,25.136 329.88,25.904 C329.88,26.336 329.704,26.7 329.352,26.996 C329,27.292 328.52,27.44 327.912,27.44 C327.128,27.44 326.504,27.236 326.04,26.828 C325.576,26.42 325.304,25.904 325.224,25.28 L325.224,25.28 L323.184,26 C323.296,26.816 323.752,27.58 324.552,28.292 C325.352,29.004 326.464,29.36 327.888,29.36 Z M20.064,59.36 C20.992,59.36 21.764,59.168 22.38,58.784 C22.996,58.4 23.464,57.952 23.784,57.44 C23.784,58 23.824,58.52 23.904,59 L23.904,59 L26.112,59 C26.016,58.424 25.968,57.792 25.968,57.104 L25.968,57.104 L25.968,51.32 C25.968,50.088 25.576,49.076 24.792,48.284 C24.008,47.492 22.8,47.096 21.168,47.096 C19.92,47.096 18.848,47.444 17.952,48.14 C17.056,48.836 16.552,49.736 16.44,50.84 L16.44,50.84 L18.6,51.344 C18.68,50.64 18.944,50.076 19.392,49.652 C19.84,49.228 20.448,49.016 21.216,49.016 C22.048,49.016 22.672,49.208 23.088,49.592 C23.504,49.976 23.712,50.472 23.712,51.08 C23.712,51.576 23.416,51.864 22.824,51.944 L22.824,51.944 L19.704,52.4 C18.648,52.544 17.8,52.916 17.16,53.516 C16.52,54.116 16.2,54.912 16.2,55.904 C16.2,56.848 16.56,57.66 17.28,58.34 C18,59.02 18.928,59.36 20.064,59.36 Z M20.376,57.464 C19.816,57.464 19.364,57.296 19.02,56.96 C18.676,56.624 18.504,56.232 18.504,55.784 C18.504,55.288 18.656,54.896 18.96,54.608 C19.264,54.32 19.672,54.136 20.184,54.056 L20.184,54.056 L23.712,53.528 L23.712,54.056 C23.712,55.24 23.408,56.104 22.8,56.648 C22.192,57.192 21.384,57.464 20.376,57.464 Z M31.728,59 L31.728,41.624 L29.472,41.624 L29.472,59 L31.728,59 Z M40.176,59 L43.176,50.216 L46.248,59 L48.576,59 L52.32,47.456 L49.944,47.456 L47.4,56.144 L44.4,47.456 L42.072,47.456 L39.072,56.144 L36.48,47.456 L34.008,47.456 L37.8,59 L40.176,59 Z M57.624,59.36 C58.552,59.36 59.324,59.168 59.94,58.784 C60.556,58.4 61.024,57.952 61.344,57.44 C61.344,58 61.384,58.52 61.464,59 L61.464,59 L63.672,59 C63.576,58.424 63.528,57.792 63.528,57.104 L63.528,57.104 L63.528,51.32 C63.528,50.088 63.136,49.076 62.352,48.284 C61.568,47.492 60.36,47.096 58.728,47.096 C57.48,47.096 56.408,47.444 55.512,48.14 C54.616,48.836 54.112,49.736 54,50.84 L54,50.84 L56.16,51.344 C56.24,50.64 56.504,50.076 56.952,49.652 C57.4,49.228 58.008,49.016 58.776,49.016 C59.608,49.016 60.232,49.208 60.648,49.592 C61.064,49.976 61.272,50.472 61.272,51.08 C61.272,51.576 60.976,51.864 60.384,51.944 L60.384,51.944 L57.264,52.4 C56.208,52.544 55.36,52.916 54.72,53.516 C54.08,54.116 53.76,54.912 53.76,55.904 C53.76,56.848 54.12,57.66 54.84,58.34 C55.56,59.02 56.488,59.36 57.624,59.36 Z M57.936,57.464 C57.376,57.464 56.924,57.296 56.58,56.96 C56.236,56.624 56.064,56.232 56.064,55.784 C56.064,55.288 56.216,54.896 56.52,54.608 C56.824,54.32 57.232,54.136 57.744,54.056 L57.744,54.056 L61.272,53.528 L61.272,54.056 C61.272,55.24 60.968,56.104 60.36,56.648 C59.752,57.192 58.944,57.464 57.936,57.464 Z M69.672,63.824 L77.184,47.456 L74.76,47.456 L71.304,55.424 L67.704,47.456 L65.112,47.456 L70.08,57.728 L67.2,63.824 L69.672,63.824 Z M82.728,59.36 C84.056,59.36 85.092,58.992 85.836,58.256 C86.58,57.52 86.952,56.696 86.952,55.784 C86.952,54.92 86.676,54.188 86.124,53.588 C85.572,52.988 84.784,52.576 83.76,52.352 L83.76,52.352 L81.888,51.944 C81.008,51.752 80.568,51.288 80.568,50.552 C80.568,50.136 80.748,49.776 81.108,49.472 C81.468,49.168 81.928,49.016 82.488,49.016 C82.92,49.016 83.296,49.084 83.616,49.22 C83.936,49.356 84.18,49.536 84.348,49.76 C84.516,49.984 84.64,50.188 84.72,50.372 C84.8,50.556 84.856,50.744 84.888,50.936 L84.888,50.936 L86.88,50.192 C86.8,49.872 86.68,49.56 86.52,49.256 C86.36,48.952 86.12,48.624 85.8,48.272 C85.48,47.92 85.032,47.636 84.456,47.42 C83.88,47.204 83.224,47.096 82.488,47.096 C81.368,47.096 80.404,47.456 79.596,48.176 C78.788,48.896 78.384,49.752 78.384,50.744 C78.384,51.56 78.64,52.256 79.152,52.832 C79.664,53.408 80.368,53.792 81.264,53.984 L81.264,53.984 L83.232,54.416 C84.224,54.64 84.72,55.136 84.72,55.904 C84.72,56.336 84.544,56.7 84.192,56.996 C83.84,57.292 83.36,57.44 82.752,57.44 C81.968,57.44 81.344,57.236 80.88,56.828 C80.416,56.42 80.144,55.904 80.064,55.28 L80.064,55.28 L78.024,56 C78.136,56.816 78.592,57.58 79.392,58.292 C80.192,59.004 81.304,59.36 82.728,59.36 Z M98.208,59 L98.208,52.208 C98.24,51.312 98.488,50.58 98.952,50.012 C99.416,49.444 100.064,49.16 100.896,49.16 C102.688,49.16 103.584,50.128 103.584,52.064 L103.584,52.064 L103.584,59 L105.84,59 L105.84,51.68 C105.84,50.336 105.484,49.24 104.772,48.392 C104.06,47.544 103.04,47.12 101.712,47.12 C100.144,47.12 98.976,47.68 98.208,48.8 L98.208,48.8 L98.208,41.624 L95.952,41.624 L95.952,59 L98.208,59 Z M112.584,59.36 C113.512,59.36 114.284,59.168 114.9,58.784 C115.516,58.4 115.984,57.952 116.304,57.44 C116.304,58 116.344,58.52 116.424,59 L116.424,59 L118.632,59 C118.536,58.424 118.488,57.792 118.488,57.104 L118.488,57.104 L118.488,51.32 C118.488,50.088 118.096,49.076 117.312,48.284 C116.528,47.492 115.32,47.096 113.688,47.096 C112.44,47.096 111.368,47.444 110.472,48.14 C109.576,48.836 109.072,49.736 108.96,50.84 L108.96,50.84 L111.12,51.344 C111.2,50.64 111.464,50.076 111.912,49.652 C112.36,49.228 112.968,49.016 113.736,49.016 C114.568,49.016 115.192,49.208 115.608,49.592 C116.024,49.976 116.232,50.472 116.232,51.08 C116.232,51.576 115.936,51.864 115.344,51.944 L115.344,51.944 L112.224,52.4 C111.168,52.544 110.32,52.916 109.68,53.516 C109.04,54.116 108.72,54.912 108.72,55.904 C108.72,56.848 109.08,57.66 109.8,58.34 C110.52,59.02 111.448,59.36 112.584,59.36 Z M112.896,57.464 C112.336,57.464 111.884,57.296 111.54,56.96 C111.196,56.624 111.024,56.232 111.024,55.784 C111.024,55.288 111.176,54.896 111.48,54.608 C111.784,54.32 112.192,54.136 112.704,54.056 L112.704,54.056 L116.232,53.528 L116.232,54.056 C116.232,55.24 115.928,56.104 115.32,56.648 C114.712,57.192 113.904,57.464 112.896,57.464 Z M124.224,63.56 L124.224,57.44 C124.56,57.984 125.056,58.432 125.712,58.784 C126.368,59.136 127.12,59.312 127.968,59.312 C129.616,59.312 130.924,58.736 131.892,57.584 C132.86,56.432 133.344,54.976 133.344,53.216 C133.344,51.472 132.876,50.032 131.94,48.896 C131.004,47.76 129.704,47.192 128.04,47.192 C127.144,47.192 126.36,47.384 125.688,47.768 C125.016,48.152 124.512,48.648 124.176,49.256 L124.176,49.256 L124.176,47.456 L121.992,47.456 L121.992,63.56 L124.224,63.56 Z M127.632,57.296 C126.608,57.296 125.78,56.916 125.148,56.156 C124.516,55.396 124.2,54.416 124.2,53.216 C124.2,52.048 124.516,51.084 125.148,50.324 C125.78,49.564 126.608,49.184 127.632,49.184 C128.672,49.184 129.5,49.564 130.116,50.324 C130.732,51.084 131.04,52.048 131.04,53.216 C131.04,54.416 130.728,55.396 130.104,56.156 C129.48,56.916 128.656,57.296 127.632,57.296 Z M138.456,63.56 L138.456,57.44 C138.792,57.984 139.288,58.432 139.944,58.784 C140.6,59.136 141.352,59.312 142.2,59.312 C143.848,59.312 145.156,58.736 146.124,57.584 C147.092,56.432 147.576,54.976 147.576,53.216 C147.576,51.472 147.108,50.032 146.172,48.896 C145.236,47.76 143.936,47.192 142.272,47.192 C141.376,47.192 140.592,47.384 139.92,47.768 C139.248,48.152 138.744,48.648 138.408,49.256 L138.408,49.256 L138.408,47.456 L136.224,47.456 L136.224,63.56 L138.456,63.56 Z M141.864,57.296 C140.84,57.296 140.012,56.916 139.38,56.156 C138.748,55.396 138.432,54.416 138.432,53.216 C138.432,52.048 138.748,51.084 139.38,50.324 C140.012,49.564 140.84,49.184 141.864,49.184 C142.904,49.184 143.732,49.564 144.348,50.324 C144.964,51.084 145.272,52.048 145.272,53.216 C145.272,54.416 144.96,55.396 144.336,56.156 C143.712,56.916 142.888,57.296 141.864,57.296 Z M155.328,59.36 C156.624,59.36 157.728,59.02 158.64,58.34 C159.552,57.66 160.176,56.784 160.512,55.712 L160.512,55.712 L158.568,55.04 C158.056,56.592 156.976,57.368 155.328,57.368 C154.352,57.368 153.532,57.04 152.868,56.384 C152.204,55.728 151.864,54.888 151.848,53.864 L151.848,53.864 L160.536,53.864 C160.568,53.672 160.584,53.432 160.584,53.144 C160.584,51.304 160.096,49.836 159.12,48.74 C158.144,47.644 156.784,47.096 155.04,47.096 C153.536,47.096 152.24,47.672 151.152,48.824 C150.064,49.976 149.52,51.432 149.52,53.192 C149.52,55.08 150.084,56.58 151.212,57.692 C152.34,58.804 153.712,59.36 155.328,59.36 Z M158.232,52.04 L151.92,52.04 C151.968,51.24 152.28,50.548 152.856,49.964 C153.432,49.38 154.168,49.088 155.064,49.088 C156.056,49.088 156.824,49.364 157.368,49.916 C157.912,50.468 158.2,51.176 158.232,52.04 L158.232,52.04 Z M165.72,59 L165.72,52.328 C165.72,51.416 165.956,50.66 166.428,50.06 C166.9,49.46 167.56,49.16 168.408,49.16 C170.2,49.16 171.096,50.128 171.096,52.064 L171.096,52.064 L171.096,59 L173.352,59 L173.352,51.68 C173.352,50.336 172.996,49.24 172.284,48.392 C171.572,47.544 170.552,47.12 169.224,47.12 C167.624,47.12 166.44,47.784 165.672,49.112 L165.672,49.112 L165.672,47.456 L163.464,47.456 L163.464,59 L165.72,59 Z M186.936,59.12 C187.576,59.12 188.088,59.048 188.472,58.904 L188.472,58.904 L188.472,56.984 C188.216,57.048 187.92,57.08 187.584,57.08 C187.008,57.08 186.596,56.952 186.348,56.696 C186.1,56.44 185.976,56.04 185.976,55.496 L185.976,55.496 L185.976,49.496 L188.472,49.496 L188.472,47.456 L185.976,47.456 L185.976,43.808 L183.912,43.808 L183.912,45.68 C183.912,46.208 183.764,46.636 183.468,46.964 C183.172,47.292 182.728,47.456 182.136,47.456 L182.136,47.456 L181.512,47.456 L181.512,49.496 L183.72,49.496 L183.72,55.832 C183.72,56.872 184.008,57.68 184.584,58.256 C185.16,58.832 185.944,59.12 186.936,59.12 Z M196.296,59.36 C198.024,59.36 199.44,58.78 200.544,57.62 C201.648,56.46 202.2,54.992 202.2,53.216 C202.2,51.456 201.644,49.996 200.532,48.836 C199.42,47.676 198.008,47.096 196.296,47.096 C194.584,47.096 193.168,47.68 192.048,48.848 C190.944,50 190.392,51.456 190.392,53.216 C190.392,54.992 190.944,56.46 192.048,57.62 C193.152,58.78 194.568,59.36 196.296,59.36 Z M196.296,57.344 C195.288,57.344 194.432,56.984 193.728,56.264 C193.04,55.528 192.696,54.512 192.696,53.216 C192.696,51.936 193.044,50.932 193.74,50.204 C194.436,49.476 195.288,49.112 196.296,49.112 C197.304,49.112 198.156,49.476 198.852,50.204 C199.548,50.932 199.896,51.936 199.896,53.216 C199.896,54.512 199.548,55.524 198.852,56.252 C198.156,56.98 197.304,57.344 196.296,57.344 Z M213.312,59 L213.312,52.04 C213.312,51.176 213.56,50.472 214.056,49.928 C214.552,49.384 215.2,49.112 216,49.112 C216.816,49.112 217.428,49.352 217.836,49.832 C218.244,50.312 218.448,50.952 218.448,51.752 L218.448,51.752 L218.448,59 L220.704,59 L220.704,52.016 C220.704,51.184 220.952,50.492 221.448,49.94 C221.944,49.388 222.584,49.112 223.368,49.112 C224.184,49.112 224.796,49.352 225.204,49.832 C225.612,50.312 225.816,50.952 225.816,51.752 L225.816,51.752 L225.816,59 L228.048,59 L228.048,51.512 C228.048,50.088 227.66,49 226.884,48.248 C226.108,47.496 225.168,47.12 224.064,47.12 C222.288,47.12 221,47.848 220.2,49.304 C219.896,48.584 219.432,48.04 218.808,47.672 C218.184,47.304 217.496,47.12 216.744,47.12 C216.04,47.12 215.368,47.28 214.728,47.6 C214.088,47.92 213.592,48.384 213.24,48.992 L213.24,48.992 L213.24,47.456 L211.08,47.456 L211.08,59 L213.312,59 Z M236.52,59.36 C237.816,59.36 238.92,59.02 239.832,58.34 C240.744,57.66 241.368,56.784 241.704,55.712 L241.704,55.712 L239.76,55.04 C239.248,56.592 238.168,57.368 236.52,57.368 C235.544,57.368 234.724,57.04 234.06,56.384 C233.396,55.728 233.056,54.888 233.04,53.864 L233.04,53.864 L241.728,53.864 C241.76,53.672 241.776,53.432 241.776,53.144 C241.776,51.304 241.288,49.836 240.312,48.74 C239.336,47.644 237.976,47.096 236.232,47.096 C234.728,47.096 233.432,47.672 232.344,48.824 C231.256,49.976 230.712,51.432 230.712,53.192 C230.712,55.08 231.276,56.58 232.404,57.692 C233.532,58.804 234.904,59.36 236.52,59.36 Z M239.424,52.04 L233.112,52.04 C233.16,51.24 233.472,50.548 234.048,49.964 C234.624,49.38 235.36,49.088 236.256,49.088 C237.248,49.088 238.016,49.364 238.56,49.916 C239.104,50.468 239.392,51.176 239.424,52.04 L239.424,52.04 Z M248.952,54.128 C248.936,53.968 248.928,53.816 248.928,53.672 C248.928,52.616 249.28,51.848 249.984,51.368 L249.984,51.368 L251.088,50.624 C252.72,49.52 253.536,48.128 253.536,46.448 C253.536,45.152 253.06,44.024 252.108,43.064 C251.156,42.104 249.88,41.624 248.28,41.624 C247.112,41.624 246.112,41.888 245.28,42.416 C244.448,42.944 243.856,43.568 243.504,44.288 C243.152,45.008 242.976,45.76 242.976,46.544 C242.976,46.976 243.024,47.36 243.12,47.696 L243.12,47.696 L245.448,47.984 C245.336,47.68 245.28,47.288 245.28,46.808 C245.28,45.976 245.536,45.256 246.048,44.648 C246.56,44.04 247.304,43.736 248.28,43.736 C249.192,43.736 249.896,44 250.392,44.528 C250.888,45.056 251.136,45.704 251.136,46.472 C251.136,47.464 250.712,48.248 249.864,48.824 L249.864,48.824 L248.808,49.544 C247.48,50.44 246.816,51.688 246.816,53.288 C246.816,53.656 246.824,53.936 246.84,54.128 L246.84,54.128 L248.952,54.128 Z M247.872,59.12 C248.304,59.12 248.676,58.968 248.988,58.664 C249.3,58.36 249.456,57.992 249.456,57.56 C249.456,57.128 249.3,56.756 248.988,56.444 C248.676,56.132 248.304,55.976 247.872,55.976 C247.44,55.976 247.072,56.132 246.768,56.444 C246.464,56.756 246.312,57.128 246.312,57.56 C246.312,57.992 246.464,58.36 246.768,58.664 C247.072,58.968 247.44,59.12 247.872,59.12 Z M261.192,54.128 C261.176,53.968 261.168,53.816 261.168,53.672 C261.168,52.616 261.52,51.848 262.224,51.368 L262.224,51.368 L263.328,50.624 C264.96,49.52 265.776,48.128 265.776,46.448 C265.776,45.152 265.3,44.024 264.348,43.064 C263.396,42.104 262.12,41.624 260.52,41.624 C259.352,41.624 258.352,41.888 257.52,42.416 C256.688,42.944 256.096,43.568 255.744,44.288 C255.392,45.008 255.216,45.76 255.216,46.544 C255.216,46.976 255.264,47.36 255.36,47.696 L255.36,47.696 L257.688,47.984 C257.576,47.68 257.52,47.288 257.52,46.808 C257.52,45.976 257.776,45.256 258.288,44.648 C258.8,44.04 259.544,43.736 260.52,43.736 C261.432,43.736 262.136,44 262.632,44.528 C263.128,45.056 263.376,45.704 263.376,46.472 C263.376,47.464 262.952,48.248 262.104,48.824 L262.104,48.824 L261.048,49.544 C259.72,50.44 259.056,51.688 259.056,53.288 C259.056,53.656 259.064,53.936 259.08,54.128 L259.08,54.128 L261.192,54.128 Z M260.112,59.12 C260.544,59.12 260.916,58.968 261.228,58.664 C261.54,58.36 261.696,57.992 261.696,57.56 C261.696,57.128 261.54,56.756 261.228,56.444 C260.916,56.132 260.544,55.976 260.112,55.976 C259.68,55.976 259.312,56.132 259.008,56.444 C258.704,56.756 258.552,57.128 258.552,57.56 C258.552,57.992 258.704,58.36 259.008,58.664 C259.312,58.968 259.68,59.12 260.112,59.12 Z" id="AGAIN!!Whydothesethingsalwayshappentome??" fill="#000000" fill-rule="nonzero"></path>
                </g>
                <path d="M300.5,314 L345.5,314 C359.583261,314 371,325.416739 371,339.5 C371,353.583261 359.583261,365 345.5,365 L300.5,365 C286.416739,365 275,353.583261 275,339.5 C275,325.416739 286.416739,314 300.5,314 Z" id="Rectangle-Copy" fill="#FFFFFF"></path>
                <circle id="Oval" fill="#869FB7" opacity="0.5" cx="321.5" cy="339.5" r="7.5"></circle>
                <circle id="Oval-Copy" fill="#869FB7" opacity="0.800000012" cx="344.5" cy="339.5" r="7.5"></circle>
                <circle id="Oval-Copy-2" fill="#869FB7" opacity="0.200000003" cx="299.5" cy="339.5" r="7.5"></circle>
                <rect id="Rectangle" fill="#2194FF" x="251" y="523" width="480.2" height="67.2" rx="16.8"></rect>
                <rect id="Rectangle" fill="#2194FF" x="251" y="612" width="480.2" height="67.2" rx="16.8"></rect>
                <rect id="Rectangle" fill="#2194FF" x="251" y="702" width="480.2" height="67.2" rx="16.8"></rect>
                <path d="M399.3286,565.4 L399.3286,557.9912 L407.1154,557.9912 L407.1154,565.4 L410.6182,565.4 L410.6182,547.5332 L407.1154,547.5332 L407.1154,554.7152 L399.3286,554.7152 L399.3286,547.5332 L395.851,547.5332 L395.851,565.4 L399.3286,565.4 Z M416.1118,550.9856 C417.271,550.9856 418.1782,550.0532 418.1782,548.9444 C418.1782,547.7852 417.271,546.8528 416.1118,546.8528 C414.9778,546.8528 414.0454,547.7852 414.0454,548.9444 C414.0454,550.0532 414.9778,550.9856 416.1118,550.9856 Z M417.8002,565.4 L417.8002,553.0016 L414.4486,553.0016 L414.4486,565.4 L417.8002,565.4 Z M421.4794,569.6588 C423.3442,569.432 425.9146,567.8696 425.9146,564.1652 C425.9146,562.5272 424.9822,561.2672 423.4198,561.2672 C422.1094,561.2672 421.1266,562.1744 421.1266,563.384 C421.1266,564.5936 421.9834,565.4756 423.2182,565.4756 C423.4954,565.4756 423.7726,565.4 423.8734,565.3244 C423.823,566.7104 422.6134,567.794 421.4794,568.046 L421.4794,569.6588 Z M438.817,565.4 L438.817,558.1172 C438.8926,556.7564 439.7242,555.698 441.1354,555.698 C442.7482,555.698 443.4286,556.7816 443.4286,558.1676 L443.4286,565.4 L446.7802,565.4 L446.7802,557.588 C446.7802,554.8664 445.3186,552.674 442.1686,552.674 C440.9842,552.674 439.6234,553.0772 438.817,554.0348 L438.817,547.1552 L435.4654,547.1552 L435.4654,565.4 L438.817,565.4 Z M455.7514,565.778 C459.4558,565.778 462.253,563.006 462.253,559.2008 C462.253,555.3704 459.4558,552.6236 455.7514,552.6236 C452.047,552.6236 449.2498,555.3704 449.2498,559.2008 C449.2498,563.006 452.047,565.778 455.7514,565.778 Z M455.7514,562.7288 C454.1134,562.7288 452.6014,561.5192 452.6014,559.2008 C452.6014,556.8572 454.1134,555.6728 455.7514,555.6728 C457.3894,555.6728 458.9014,556.8572 458.9014,559.2008 C458.9014,561.5444 457.3894,562.7288 455.7514,562.7288 Z M470.443,565.4 L473.2906,556.9328 L476.1886,565.4 L479.5402,565.4 L483.421,553.0016 L480.0946,553.0016 L477.8014,560.99 L475.1302,553.0016 L471.6022,553.0016 L468.9058,560.9648 L466.6126,553.0016 L463.0846,553.0016 L467.041,565.4 L470.443,565.4 Z M495.2398,565.7528 C497.0794,565.7528 498.2638,564.896 498.8938,563.9132 C498.8938,564.392 498.9442,565.0724 499.0198,565.4 L502.0942,565.4 C502.0186,564.9716 501.943,564.0896 501.943,563.4344 L501.943,557.336 C501.943,554.8412 500.4814,552.6236 496.5502,552.6236 C493.2238,552.6236 491.4346,554.7656 491.233,556.706 L494.2066,557.336 C494.3074,556.2524 495.1138,555.32 496.5754,555.32 C497.9866,555.32 498.667,556.0508 498.667,556.9328 C498.667,557.3612 498.4402,557.714 497.7346,557.8148 L494.6854,558.2684 C492.619,558.5708 490.981,559.8056 490.981,562.0232 C490.981,563.9636 492.5938,565.7528 495.2398,565.7528 Z M495.9454,563.258 C494.8618,563.258 494.3326,562.5524 494.3326,561.8216 C494.3326,560.864 495.013,560.3852 495.8698,560.2592 L498.667,559.8308 L498.667,560.3852 C498.667,562.5776 497.3566,563.258 495.9454,563.258 Z M508.6714,565.4 L508.6714,559.73 C508.6714,557.0588 510.1582,556.2272 511.8718,556.2272 C512.1742,556.2272 512.5018,556.2524 512.8798,556.328 L512.8798,552.9512 C512.6278,552.926 512.3758,552.9008 512.0986,552.9008 C511.0402,552.9008 509.3266,553.2032 508.5706,554.8412 L508.5706,553.0016 L505.3198,553.0016 L505.3198,565.4 L508.6714,565.4 Z M520.591,565.778 C523.6402,565.778 525.6058,563.9888 526.2358,561.8468 L523.4386,561.0152 C523.0354,562.124 522.1786,562.9052 520.6162,562.9052 C518.953,562.9052 517.567,561.7208 517.4914,560.0828 L526.3618,560.0828 C526.3618,560.0324 526.4122,559.5284 526.4122,559.0496 C526.4122,555.068 524.119,552.6236 520.2886,552.6236 C517.1134,552.6236 514.1902,555.194 514.1902,559.1504 C514.1902,563.3336 517.189,565.778 520.591,565.778 Z M523.111,557.7896 L517.567,557.7896 C517.6426,556.6556 518.6002,555.3452 520.339,555.3452 C522.2542,555.3452 523.0606,556.5548 523.111,557.7896 Z M539.5666,570.2888 L547.3534,553.0016 L543.775,553.0016 L540.7258,560.2592 L537.4246,553.0016 L533.6698,553.0016 L538.9366,563.8376 L536.0134,570.2888 L539.5666,570.2888 Z M554.3842,565.778 C558.0886,565.778 560.8858,563.006 560.8858,559.2008 C560.8858,555.3704 558.0886,552.6236 554.3842,552.6236 C550.6798,552.6236 547.8826,555.3704 547.8826,559.2008 C547.8826,563.006 550.6798,565.778 554.3842,565.778 Z M554.3842,562.7288 C552.7462,562.7288 551.2342,561.5192 551.2342,559.2008 C551.2342,556.8572 552.7462,555.6728 554.3842,555.6728 C556.0222,555.6728 557.5342,556.8572 557.5342,559.2008 C557.5342,561.5444 556.0222,562.7288 554.3842,562.7288 Z M568.0678,565.7276 C569.3782,565.7276 570.8146,565.2236 571.495,564.0644 C571.495,564.5684 571.5454,565.148 571.5958,565.4 L574.7962,565.4 C574.7458,564.9716 574.6702,564.1148 574.6702,563.1572 L574.6702,553.0016 L571.3186,553.0016 L571.3186,560.2088 C571.3186,561.6452 570.4618,562.6532 568.975,562.6532 C567.4126,562.6532 566.707,561.5444 566.707,560.1584 L566.707,553.0016 L563.3554,553.0016 L563.3554,560.8388 C563.3554,563.5352 565.069,565.7276 568.0678,565.7276 Z M584.095,559.9568 L584.095,559.8056 C584.095,558.7724 584.5738,557.9912 585.4558,557.3612 L586.489,556.6304 C587.9758,555.572 588.9838,554.1608 588.9838,552.17 C588.9838,549.6248 586.9426,547.1552 583.0366,547.1552 C579.307,547.1552 577.2658,549.776 577.2658,552.4976 C577.2658,552.8756 577.291,553.2788 577.3918,553.6316 L580.567,553.7576 C580.4914,553.5308 580.4662,553.2536 580.4662,552.9512 C580.4662,551.54 581.2474,550.1036 583.0366,550.1036 C584.725,550.1036 585.5566,551.2124 585.5566,552.3716 C585.5566,553.1276 585.229,553.808 584.473,554.3624 L583.2634,555.2696 C581.827,556.3532 581.2726,557.588 581.2726,558.9236 C581.2726,559.3016 581.323,559.6292 581.3734,559.9568 L584.095,559.9568 Z M582.7846,565.6016 C583.8934,565.6016 584.8006,564.7196 584.8006,563.6108 C584.8006,562.502 583.8934,561.5948 582.7846,561.5948 C581.6758,561.5948 580.7938,562.502 580.7938,563.6108 C580.7938,564.7196 581.6758,565.6016 582.7846,565.6016 Z" id="Hi,howareyou?" fill="#FFFFFF" fill-rule="nonzero"></path>
                <path d="M413.5036,654.4 L413.5036,636.5332 L409.9756,636.5332 L409.9756,654.4 L413.5036,654.4 Z M416.704,643.564 C418.2916,643.4128 420.61,642.178 420.61,638.8012 C420.61,637.4656 419.7532,636.3568 418.4176,636.3568 C417.2332,636.3568 416.4016,637.2136 416.4016,638.1964 C416.4016,639.2548 417.1072,640.0108 418.2412,640.0108 C418.468,640.0108 418.6444,639.9604 418.7704,639.8848 C418.72,641.044 417.6616,641.8756 416.704,642.0268 L416.704,643.564 Z M425.902,654.4 L425.902,647.1424 C425.902,645.7816 426.7588,644.698 428.2204,644.698 C429.7324,644.698 430.4128,645.706 430.4128,647.0416 L430.4128,654.4 L433.7392,654.4 L433.7392,647.1424 C433.7392,645.8068 434.596,644.698 436.0324,644.698 C437.5696,644.698 438.2248,645.706 438.2248,647.0416 L438.2248,654.4 L441.4756,654.4 L441.4756,646.3612 C441.4756,643.0348 439.2832,641.6488 436.99,641.6488 C435.352,641.6488 434.0416,642.2032 433.0588,643.7152 C432.4288,642.3796 431.068,641.6488 429.3796,641.6488 C428.0188,641.6488 426.4312,642.304 425.7508,643.5136 L425.7508,642.0016 L422.5504,642.0016 L422.5504,654.4 L425.902,654.4 Z M456.6712,654.778 C460.3756,654.778 463.1728,652.006 463.1728,648.2008 C463.1728,644.3704 460.3756,641.6236 456.6712,641.6236 C452.9668,641.6236 450.1696,644.3704 450.1696,648.2008 C450.1696,652.006 452.9668,654.778 456.6712,654.778 Z M456.6712,651.7288 C455.0332,651.7288 453.5212,650.5192 453.5212,648.2008 C453.5212,645.8572 455.0332,644.6728 456.6712,644.6728 C458.3092,644.6728 459.8212,645.8572 459.8212,648.2008 C459.8212,650.5444 458.3092,651.7288 456.6712,651.7288 Z M469.1704,654.4 L469.1704,647.2684 C469.1704,645.832 470.0272,644.698 471.4888,644.698 C473.1016,644.698 473.782,645.7816 473.782,647.1676 L473.782,654.4 L477.1336,654.4 L477.1336,646.588 C477.1336,643.8664 475.7224,641.674 472.648,641.674 C471.3124,641.674 469.8256,642.2536 469.0696,643.5388 L469.0696,642.0016 L465.8188,642.0016 L465.8188,654.4 L469.1704,654.4 Z M490.1116,654.4 L490.1116,647.1424 C490.1116,645.7816 490.9684,644.698 492.43,644.698 C493.942,644.698 494.6224,645.706 494.6224,647.0416 L494.6224,654.4 L497.9488,654.4 L497.9488,647.1424 C497.9488,645.8068 498.8056,644.698 500.242,644.698 C501.7792,644.698 502.4344,645.706 502.4344,647.0416 L502.4344,654.4 L505.6852,654.4 L505.6852,646.3612 C505.6852,643.0348 503.4928,641.6488 501.1996,641.6488 C499.5616,641.6488 498.2512,642.2032 497.2684,643.7152 C496.6384,642.3796 495.2776,641.6488 493.5892,641.6488 C492.2284,641.6488 490.6408,642.304 489.9604,643.5136 L489.9604,642.0016 L486.76,642.0016 L486.76,654.4 L490.1116,654.4 Z M513.1444,659.2888 L520.9312,642.0016 L517.3528,642.0016 L514.3036,649.2592 L511.0024,642.0016 L507.2476,642.0016 L512.5144,652.8376 L509.5912,659.2888 L513.1444,659.2888 Z M535.0684,654.4 L537.916,645.9328 L540.814,654.4 L544.1656,654.4 L548.0464,642.0016 L544.72,642.0016 L542.4268,649.99 L539.7556,642.0016 L536.2276,642.0016 L533.5312,649.9648 L531.238,642.0016 L527.71,642.0016 L531.6664,654.4 L535.0684,654.4 Z M553.5904,654.7528 C555.43,654.7528 556.6144,653.896 557.2444,652.9132 C557.2444,653.392 557.2948,654.0724 557.3704,654.4 L560.4448,654.4 C560.3692,653.9716 560.2936,653.0896 560.2936,652.4344 L560.2936,646.336 C560.2936,643.8412 558.832,641.6236 554.9008,641.6236 C551.5744,641.6236 549.7852,643.7656 549.5836,645.706 L552.5572,646.336 C552.658,645.2524 553.4644,644.32 554.926,644.32 C556.3372,644.32 557.0176,645.0508 557.0176,645.9328 C557.0176,646.3612 556.7908,646.714 556.0852,646.8148 L553.036,647.2684 C550.9696,647.5708 549.3316,648.8056 549.3316,651.0232 C549.3316,652.9636 550.9444,654.7528 553.5904,654.7528 Z M554.296,652.258 C553.2124,652.258 552.6832,651.5524 552.6832,650.8216 C552.6832,649.864 553.3636,649.3852 554.2204,649.2592 L557.0176,648.8308 L557.0176,649.3852 C557.0176,651.5776 555.7072,652.258 554.296,652.258 Z M567.6268,659.2888 L575.4136,642.0016 L571.8352,642.0016 L568.786,649.2592 L565.4848,642.0016 L561.73,642.0016 L566.9968,652.8376 L564.0736,659.2888 L567.6268,659.2888 Z" id="I’monmyway" fill="#FFFFFF" fill-rule="nonzero"></path>
                <path d="M384.53,744.4 L384.53,729.8344 L390.1748,729.8344 L390.1748,726.5332 L375.3824,726.5332 L375.3824,729.8344 L381.0272,729.8344 L381.0272,744.4 L384.53,744.4 Z M395.7944,744.4 L395.7944,737.1172 C395.87,735.7564 396.7016,734.698 398.1128,734.698 C399.7256,734.698 400.406,735.7816 400.406,737.1676 L400.406,744.4 L403.7576,744.4 L403.7576,736.588 C403.7576,733.8664 402.296,731.674 399.146,731.674 C397.9616,731.674 396.6008,732.0772 395.7944,733.0348 L395.7944,726.1552 L392.4428,726.1552 L392.4428,744.4 L395.7944,744.4 Z M410.6624,744.7528 C412.502,744.7528 413.6864,743.896 414.3164,742.9132 C414.3164,743.392 414.3668,744.0724 414.4424,744.4 L417.5168,744.4 C417.4412,743.9716 417.3656,743.0896 417.3656,742.4344 L417.3656,736.336 C417.3656,733.8412 415.904,731.6236 411.9728,731.6236 C408.6464,731.6236 406.8572,733.7656 406.6556,735.706 L409.6292,736.336 C409.73,735.2524 410.5364,734.32 411.998,734.32 C413.4092,734.32 414.0896,735.0508 414.0896,735.9328 C414.0896,736.3612 413.8628,736.714 413.1572,736.8148 L410.108,737.2684 C408.0416,737.5708 406.4036,738.8056 406.4036,741.0232 C406.4036,742.9636 408.0164,744.7528 410.6624,744.7528 Z M411.368,742.258 C410.2844,742.258 409.7552,741.5524 409.7552,740.8216 C409.7552,739.864 410.4356,739.3852 411.2924,739.2592 L414.0896,738.8308 L414.0896,739.3852 C414.0896,741.5776 412.7792,742.258 411.368,742.258 Z M425.4044,744.5764 C426.3872,744.5764 426.992,744.4 427.2944,744.274 L427.2944,741.502 C427.118,741.5524 426.6644,741.6028 426.2612,741.6028 C425.3036,741.6028 424.7996,741.25 424.7996,740.1664 L424.7996,734.9752 L427.2944,734.9752 L427.2944,732.0016 L424.7996,732.0016 L424.7996,728.2972 L421.7756,728.2972 L421.7756,730.036 C421.7756,731.1448 421.1708,732.0016 419.8604,732.0016 L419.2304,732.0016 L419.2304,734.9752 L421.4732,734.9752 L421.4732,740.746 C421.4732,743.14 422.9852,744.5764 425.4044,744.5764 Z M429.1844,733.564 C430.772,733.4128 433.0904,732.178 433.0904,728.8012 C433.0904,727.4656 432.2336,726.3568 430.898,726.3568 C429.7136,726.3568 428.882,727.2136 428.882,728.1964 C428.882,729.2548 429.5876,730.0108 430.7216,730.0108 C430.9484,730.0108 431.1248,729.9604 431.2508,729.8848 C431.2004,731.044 430.142,731.8756 429.1844,732.0268 L429.1844,733.564 Z M438.458,744.778 C441.7088,744.778 443.2712,742.7116 443.2712,740.6956 C443.2712,738.8812 442.0364,737.3944 439.592,736.8904 L437.828,736.5124 C437.1476,736.3864 436.694,736.0084 436.694,735.4036 C436.694,734.698 437.3996,734.1688 438.2816,734.1688 C439.6928,734.1688 440.222,735.1012 440.3228,735.832 L443.12,735.202 C442.9688,733.8664 441.7844,731.6236 438.2564,731.6236 C435.5852,731.6236 433.6196,733.4632 433.6196,735.6808 C433.6196,737.4196 434.7032,738.856 437.0972,739.3852 L438.7352,739.7632 C439.6928,739.9648 440.0708,740.4184 440.0708,740.9728 C440.0708,741.628 439.5416,742.2076 438.4328,742.2076 C436.9712,742.2076 436.2404,741.3004 436.1648,740.3176 L433.292,740.9476 C433.4432,742.3588 434.7284,744.778 438.458,744.778 Z M455.5436,744.4 L455.5436,737.1172 C455.6192,735.7564 456.4508,734.698 457.862,734.698 C459.4748,734.698 460.1552,735.7816 460.1552,737.1676 L460.1552,744.4 L463.5068,744.4 L463.5068,736.588 C463.5068,733.8664 462.0452,731.674 458.8952,731.674 C457.7108,731.674 456.35,732.0772 455.5436,733.0348 L455.5436,726.1552 L452.192,726.1552 L452.192,744.4 L455.5436,744.4 Z M468.572,729.9856 C469.7312,729.9856 470.6384,729.0532 470.6384,727.9444 C470.6384,726.7852 469.7312,725.8528 468.572,725.8528 C467.438,725.8528 466.5056,726.7852 466.5056,727.9444 C466.5056,729.0532 467.438,729.9856 468.572,729.9856 Z M470.2604,744.4 L470.2604,732.0016 L466.9088,732.0016 L466.9088,744.4 L470.2604,744.4 Z M477.1904,744.4 L477.1904,726.1552 L473.8388,726.1552 L473.8388,744.4 L477.1904,744.4 Z M484.196,744.7528 C486.0356,744.7528 487.22,743.896 487.85,742.9132 C487.85,743.392 487.9004,744.0724 487.976,744.4 L491.0504,744.4 C490.9748,743.9716 490.8992,743.0896 490.8992,742.4344 L490.8992,736.336 C490.8992,733.8412 489.4376,731.6236 485.5064,731.6236 C482.18,731.6236 480.3908,733.7656 480.1892,735.706 L483.1628,736.336 C483.2636,735.2524 484.07,734.32 485.5316,734.32 C486.9428,734.32 487.6232,735.0508 487.6232,735.9328 C487.6232,736.3612 487.3964,736.714 486.6908,736.8148 L483.6416,737.2684 C481.5752,737.5708 479.9372,738.8056 479.9372,741.0232 C479.9372,742.9636 481.55,744.7528 484.196,744.7528 Z M484.9016,742.258 C483.818,742.258 483.2888,741.5524 483.2888,740.8216 C483.2888,739.864 483.9692,739.3852 484.826,739.2592 L487.6232,738.8308 L487.6232,739.3852 C487.6232,741.5776 486.3128,742.258 484.9016,742.258 Z M497.6276,744.4 L497.6276,738.73 C497.6276,736.0588 499.1144,735.2272 500.828,735.2272 C501.1304,735.2272 501.458,735.2524 501.836,735.328 L501.836,731.9512 C501.584,731.926 501.332,731.9008 501.0548,731.9008 C499.9964,731.9008 498.2828,732.2032 497.5268,733.8412 L497.5268,732.0016 L494.276,732.0016 L494.276,744.4 L497.6276,744.4 Z M505.868,729.9856 C507.0272,729.9856 507.9344,729.0532 507.9344,727.9444 C507.9344,726.7852 507.0272,725.8528 505.868,725.8528 C504.734,725.8528 503.8016,726.7852 503.8016,727.9444 C503.8016,729.0532 504.734,729.9856 505.868,729.9856 Z M507.5564,744.4 L507.5564,732.0016 L504.2048,732.0016 L504.2048,744.4 L507.5564,744.4 Z M516.704,744.778 C520.4084,744.778 523.2056,742.006 523.2056,738.2008 C523.2056,734.3704 520.4084,731.6236 516.704,731.6236 C512.9996,731.6236 510.2024,734.3704 510.2024,738.2008 C510.2024,742.006 512.9996,744.778 516.704,744.778 Z M516.704,741.7288 C515.066,741.7288 513.554,740.5192 513.554,738.2008 C513.554,735.8572 515.066,734.6728 516.704,734.6728 C518.342,734.6728 519.854,735.8572 519.854,738.2008 C519.854,740.5444 518.342,741.7288 516.704,741.7288 Z M530.3876,744.7276 C531.698,744.7276 533.1344,744.2236 533.8148,743.0644 C533.8148,743.5684 533.8652,744.148 533.9156,744.4 L537.116,744.4 C537.0656,743.9716 536.99,743.1148 536.99,742.1572 L536.99,732.0016 L533.6384,732.0016 L533.6384,739.2088 C533.6384,740.6452 532.7816,741.6532 531.2948,741.6532 C529.7324,741.6532 529.0268,740.5444 529.0268,739.1584 L529.0268,732.0016 L525.6752,732.0016 L525.6752,739.8388 C525.6752,742.5352 527.3888,744.7276 530.3876,744.7276 Z M544.676,744.778 C547.9268,744.778 549.4892,742.7116 549.4892,740.6956 C549.4892,738.8812 548.2544,737.3944 545.81,736.8904 L544.046,736.5124 C543.3656,736.3864 542.912,736.0084 542.912,735.4036 C542.912,734.698 543.6176,734.1688 544.4996,734.1688 C545.9108,734.1688 546.44,735.1012 546.5408,735.832 L549.338,735.202 C549.1868,733.8664 548.0024,731.6236 544.4744,731.6236 C541.8032,731.6236 539.8376,733.4632 539.8376,735.6808 C539.8376,737.4196 540.9212,738.856 543.3152,739.3852 L544.9532,739.7632 C545.9108,739.9648 546.2888,740.4184 546.2888,740.9728 C546.2888,741.628 545.7596,742.2076 544.6508,742.2076 C543.1892,742.2076 542.4584,741.3004 542.3828,740.3176 L539.51,740.9476 C539.6612,742.3588 540.9464,744.778 544.676,744.778 Z" id="That’shilarious" fill="#FFFFFF" fill-rule="nonzero"></path>
                <text id="😂😂" font-family="AppleColorEmoji, Apple Color Emoji" font-size="25.2" font-weight="normal" line-spacing="33.6" fill="#FFFFFF">
                    <tspan x="555" y="743.8">😂😂</tspan>
                </text>
            </g>
        </g>
    </g>
</svg>