<?xml version="1.0" encoding="UTF-8"?>
<svg width="148px" height="50px" viewBox="0 0 148 50" version="1.1" xmlns="http://www.w3.org/2000/svg" xmlns:xlink="http://www.w3.org/1999/xlink">
    <!-- Generator: Sketch 64 (93537) - https://sketch.com -->
    <title>logo</title>
    <desc>Created with Sketch.</desc>
    <defs>
        <linearGradient x1="50%" y1="0%" x2="50%" y2="100%" id="linearGradient-1">
            <stop stop-color="#41BCFF" offset="0%"></stop>
            <stop stop-color="#016BFF" offset="100%"></stop>
        </linearGradient>
    </defs>
    <g id="website" stroke="none" stroke-width="1" fill="none" fill-rule="evenodd">
        <g id="web---desktop" transform="translate(-60.000000, -25.000000)">
            <g id="logo" transform="translate(60.000000, 25.000000)">
                <g id="logo-mobile">
                    <rect id="Rectangle-Copy" fill="url(#linearGradient-1)" x="0" y="0" width="50" height="50" rx="16"></rect>
                    <path d="M23.9709313,39.2823147 C16.226511,39.1148905 10,32.784585 10,25 C10,17.1102179 16.3959321,10.7142857 24.2857143,10.7142857 C32.1754964,10.7142857 38.5714286,17.1102179 38.5714286,25 L38.5714286,25 L38.5714286,39.2857143 L24.2857143,39.2857143 Z" id="Combined-Shape-Copy-3" fill="#FFFFFF"></path>
                </g>
                <path d="M64.12,39.52 C66.2,39.52 68.48,38.72 69.56,36.88 C69.56,37.68 69.64,38.6 69.72,39 L74.8,39 C74.72,38.32 74.6,36.96 74.6,35.44 L74.6,19.32 L69.28,19.32 L69.28,30.76 C69.28,33.04 67.92,34.64 65.56,34.64 C63.08,34.64 61.96,32.88 61.96,30.68 L61.96,19.32 L56.64,19.32 L56.64,31.76 C56.64,36.04 59.36,39.52 64.12,39.52 Z M82.92,16.12 C84.76,16.12 86.2,14.64 86.2,12.88 C86.2,11.04 84.76,9.56 82.92,9.56 C81.12,9.56 79.64,11.04 79.64,12.88 C79.64,14.64 81.12,16.12 82.92,16.12 Z M85.6,39 L85.6,19.32 L80.28,19.32 L80.28,39 L85.6,39 Z M100.16,39.6 C105.4,39.6 108.48,36.24 109.36,32.96 L104.68,31.4 C104.24,32.92 102.88,34.72 100.16,34.72 C97.44,34.72 95.12,32.72 95.12,29.16 C95.12,25.6 97.4,23.64 100.12,23.64 C102.76,23.64 104,25.32 104.48,26.96 L109.24,25.36 C108.4,22.04 105.36,18.72 100,18.72 C94.28,18.72 89.8,23.08 89.8,29.16 C89.8,35.2 94.36,39.6 100.16,39.6 Z M118.6,39 L118.6,33.8 L120.8,31.48 L126,39 L132.52,39 L124.48,27.6 L132.36,19.32 L125.4,19.32 L118.6,26.64 L118.6,10.04 L113.28,10.04 L113.28,39 L118.6,39 Z M140.96,39 L140.96,30 C140.96,25.76 143.32,24.44 146.04,24.44 C146.52,24.44 147.04,24.48 147.64,24.6 L147.64,19.24 C147.24,19.2 146.84,19.16 146.4,19.16 C144.72,19.16 142,19.64 140.8,22.24 L140.8,19.32 L135.64,19.32 L135.64,39 L140.96,39 Z" id="uickr" fill="#262D3C" fill-rule="nonzero"></path>
            </g>
        </g>
    </g>
</svg>