<?xml version="1.0" encoding="UTF-8"?>
<svg width="903px" height="524px" viewBox="0 0 903 524" version="1.1" xmlns="http://www.w3.org/2000/svg" xmlns:xlink="http://www.w3.org/1999/xlink">
    <!-- Generator: Sketch 64 (93537) - https://sketch.com -->
    <title>privacy</title>
    <desc>Created with Sketch.</desc>
    <defs>
        <linearGradient x1="50%" y1="0%" x2="50%" y2="100%" id="linearGradient-1">
            <stop stop-color="#41BCFF" offset="0%"></stop>
            <stop stop-color="#016BFF" offset="100%"></stop>
        </linearGradient>
    </defs>
    <g id="website" stroke="none" stroke-width="1" fill="none" fill-rule="evenodd">
        <g id="Artboard-Copy-2" transform="translate(-172.000000, -148.000000)">
            <g id="privacy" transform="translate(172.000000, 148.000000)">
                <rect id="Rectangle-Copy-34" fill="#026CFF" x="521" y="412" width="361" height="70" rx="35"></rect>
                <rect id="Rectangle-Copy-33" fill="#026CFF" x="76" y="377" width="372" height="70" rx="35"></rect>
                <rect id="Rectangle-Copy-3" fill="#026CFF" x="109" y="67" width="246" height="70" rx="35"></rect>
                <rect id="Rectangle-Copy-26" fill="#026CFF" x="503" y="0" width="172" height="70" rx="35"></rect>
                <rect id="Rectangle-Copy-36" fill="#026CFF" x="597" y="106" width="306" height="70" rx="35"></rect>
                <rect id="Rectangle-Copy-35" fill="#026CFF" x="488" y="256" width="361" height="70" rx="35"></rect>
                <rect id="Rectangle-Copy-31" fill="#026CFF" x="0" y="196" width="372" height="70" rx="35"></rect>
                <path d="M154.72,118 L154.72,114.544 L147.328,114.544 L147.328,84.4 L144.64,84.4 L134.08,91.936 L135.952,94.672 L143.632,89.296 L143.632,114.544 L136.096,114.544 L136.096,118 L154.72,118 Z M173.152,118.576 C175.168,118.576 176.912,118.184 178.384,117.4 C179.856,116.616 181.072,115.48 182.032,113.992 C182.992,112.504 183.712,110.68 184.192,108.52 C184.672,106.36 184.912,103.92 184.912,101.2 C184.912,98.416 184.704,95.944 184.288,93.784 C183.872,91.624 183.2,89.808 182.272,88.336 C181.344,86.864 180.136,85.744 178.648,84.976 C177.16,84.208 175.344,83.824 173.2,83.824 C171.184,83.824 169.44,84.216 167.968,85 C166.496,85.784 165.28,86.92 164.32,88.408 C163.36,89.896 162.64,91.72 162.16,93.88 C161.68,96.04 161.44,98.48 161.44,101.2 C161.44,103.76 161.648,106.104 162.064,108.232 C162.48,110.36 163.16,112.192 164.104,113.728 C165.048,115.264 166.264,116.456 167.752,117.304 C169.24,118.152 171.04,118.576 173.152,118.576 Z M165.664,105.664 C165.6,104.96 165.544,104.24 165.496,103.504 C165.448,102.768 165.424,102 165.424,101.2 C165.424,96.464 166.008,92.92 167.176,90.568 C168.344,88.216 170.352,87.04 173.2,87.04 C175.024,87.04 176.472,87.552 177.544,88.576 C178.616,89.6 179.424,90.976 179.968,92.704 L179.968,92.704 L165.664,105.664 Z M173.152,115.36 C171.392,115.36 169.968,114.816 168.88,113.728 C167.792,112.64 166.976,111.184 166.432,109.36 L166.432,109.36 L180.688,96.352 C180.88,97.888 180.976,99.504 180.976,101.2 C180.976,105.968 180.376,109.52 179.176,111.856 C177.976,114.192 175.968,115.36 173.152,115.36 Z M230.752,118.576 C232.768,118.576 234.512,118.184 235.984,117.4 C237.456,116.616 238.672,115.48 239.632,113.992 C240.592,112.504 241.312,110.68 241.792,108.52 C242.272,106.36 242.512,103.92 242.512,101.2 C242.512,98.416 242.304,95.944 241.888,93.784 C241.472,91.624 240.8,89.808 239.872,88.336 C238.944,86.864 237.736,85.744 236.248,84.976 C234.76,84.208 232.944,83.824 230.8,83.824 C228.784,83.824 227.04,84.216 225.568,85 C224.096,85.784 222.88,86.92 221.92,88.408 C220.96,89.896 220.24,91.72 219.76,93.88 C219.28,96.04 219.04,98.48 219.04,101.2 C219.04,103.76 219.248,106.104 219.664,108.232 C220.08,110.36 220.76,112.192 221.704,113.728 C222.648,115.264 223.864,116.456 225.352,117.304 C226.84,118.152 228.64,118.576 230.752,118.576 Z M223.264,105.664 C223.2,104.96 223.144,104.24 223.096,103.504 C223.048,102.768 223.024,102 223.024,101.2 C223.024,96.464 223.608,92.92 224.776,90.568 C225.944,88.216 227.952,87.04 230.8,87.04 C232.624,87.04 234.072,87.552 235.144,88.576 C236.216,89.6 237.024,90.976 237.568,92.704 L237.568,92.704 L223.264,105.664 Z M230.752,115.36 C228.992,115.36 227.568,114.816 226.48,113.728 C225.392,112.64 224.576,111.184 224.032,109.36 L224.032,109.36 L238.288,96.352 C238.48,97.888 238.576,99.504 238.576,101.2 C238.576,105.968 237.976,109.52 236.776,111.856 C235.576,114.192 233.568,115.36 230.752,115.36 Z M259.552,118.576 C261.568,118.576 263.312,118.184 264.784,117.4 C266.256,116.616 267.472,115.48 268.432,113.992 C269.392,112.504 270.112,110.68 270.592,108.52 C271.072,106.36 271.312,103.92 271.312,101.2 C271.312,98.416 271.104,95.944 270.688,93.784 C270.272,91.624 269.6,89.808 268.672,88.336 C267.744,86.864 266.536,85.744 265.048,84.976 C263.56,84.208 261.744,83.824 259.6,83.824 C257.584,83.824 255.84,84.216 254.368,85 C252.896,85.784 251.68,86.92 250.72,88.408 C249.76,89.896 249.04,91.72 248.56,93.88 C248.08,96.04 247.84,98.48 247.84,101.2 C247.84,103.76 248.048,106.104 248.464,108.232 C248.88,110.36 249.56,112.192 250.504,113.728 C251.448,115.264 252.664,116.456 254.152,117.304 C255.64,118.152 257.44,118.576 259.552,118.576 Z M252.064,105.664 C252,104.96 251.944,104.24 251.896,103.504 C251.848,102.768 251.824,102 251.824,101.2 C251.824,96.464 252.408,92.92 253.576,90.568 C254.744,88.216 256.752,87.04 259.6,87.04 C261.424,87.04 262.872,87.552 263.944,88.576 C265.016,89.6 265.824,90.976 266.368,92.704 L266.368,92.704 L252.064,105.664 Z M259.552,115.36 C257.792,115.36 256.368,114.816 255.28,113.728 C254.192,112.64 253.376,111.184 252.832,109.36 L252.832,109.36 L267.088,96.352 C267.28,97.888 267.376,99.504 267.376,101.2 C267.376,105.968 266.776,109.52 265.576,111.856 C264.376,114.192 262.368,115.36 259.552,115.36 Z" id="1000" fill="#FFFFFF" fill-rule="nonzero"></path>
                <path d="M44.352,249.576 C46.368,249.576 48.112,249.184 49.584,248.4 C51.056,247.616 52.272,246.48 53.232,244.992 C54.192,243.504 54.912,241.68 55.392,239.52 C55.872,237.36 56.112,234.92 56.112,232.2 C56.112,229.416 55.904,226.944 55.488,224.784 C55.072,222.624 54.4,220.808 53.472,219.336 C52.544,217.864 51.336,216.744 49.848,215.976 C48.36,215.208 46.544,214.824 44.4,214.824 C42.384,214.824 40.64,215.216 39.168,216 C37.696,216.784 36.48,217.92 35.52,219.408 C34.56,220.896 33.84,222.72 33.36,224.88 C32.88,227.04 32.64,229.48 32.64,232.2 C32.64,234.76 32.848,237.104 33.264,239.232 C33.68,241.36 34.36,243.192 35.304,244.728 C36.248,246.264 37.464,247.456 38.952,248.304 C40.44,249.152 42.24,249.576 44.352,249.576 Z M36.864,236.664 C36.8,235.96 36.744,235.24 36.696,234.504 C36.648,233.768 36.624,233 36.624,232.2 C36.624,227.464 37.208,223.92 38.376,221.568 C39.544,219.216 41.552,218.04 44.4,218.04 C46.224,218.04 47.672,218.552 48.744,219.576 C49.816,220.6 50.624,221.976 51.168,223.704 L51.168,223.704 L36.864,236.664 Z M44.352,246.36 C42.592,246.36 41.168,245.816 40.08,244.728 C38.992,243.64 38.176,242.184 37.632,240.36 L37.632,240.36 L51.888,227.352 C52.08,228.888 52.176,230.504 52.176,232.2 C52.176,236.968 51.576,240.52 50.376,242.856 C49.176,245.192 47.168,246.36 44.352,246.36 Z M73.152,249.576 C75.168,249.576 76.912,249.184 78.384,248.4 C79.856,247.616 81.072,246.48 82.032,244.992 C82.992,243.504 83.712,241.68 84.192,239.52 C84.672,237.36 84.912,234.92 84.912,232.2 C84.912,229.416 84.704,226.944 84.288,224.784 C83.872,222.624 83.2,220.808 82.272,219.336 C81.344,217.864 80.136,216.744 78.648,215.976 C77.16,215.208 75.344,214.824 73.2,214.824 C71.184,214.824 69.44,215.216 67.968,216 C66.496,216.784 65.28,217.92 64.32,219.408 C63.36,220.896 62.64,222.72 62.16,224.88 C61.68,227.04 61.44,229.48 61.44,232.2 C61.44,234.76 61.648,237.104 62.064,239.232 C62.48,241.36 63.16,243.192 64.104,244.728 C65.048,246.264 66.264,247.456 67.752,248.304 C69.24,249.152 71.04,249.576 73.152,249.576 Z M65.664,236.664 C65.6,235.96 65.544,235.24 65.496,234.504 C65.448,233.768 65.424,233 65.424,232.2 C65.424,227.464 66.008,223.92 67.176,221.568 C68.344,219.216 70.352,218.04 73.2,218.04 C75.024,218.04 76.472,218.552 77.544,219.576 C78.616,220.6 79.424,221.976 79.968,223.704 L79.968,223.704 L65.664,236.664 Z M73.152,246.36 C71.392,246.36 69.968,245.816 68.88,244.728 C67.792,243.64 66.976,242.184 66.432,240.36 L66.432,240.36 L80.688,227.352 C80.88,228.888 80.976,230.504 80.976,232.2 C80.976,236.968 80.376,240.52 79.176,242.856 C77.976,245.192 75.968,246.36 73.152,246.36 Z M141.12,249 L141.12,245.544 L133.728,245.544 L133.728,215.4 L131.04,215.4 L120.48,222.936 L122.352,225.672 L130.032,220.296 L130.032,245.544 L122.496,245.544 L122.496,249 L141.12,249 Z M169.92,249 L169.92,245.544 L162.528,245.544 L162.528,215.4 L159.84,215.4 L149.28,222.936 L151.152,225.672 L158.832,220.296 L158.832,245.544 L151.296,245.544 L151.296,249 L169.92,249 Z M198.72,249 L198.72,245.544 L191.328,245.544 L191.328,215.4 L188.64,215.4 L178.08,222.936 L179.952,225.672 L187.632,220.296 L187.632,245.544 L180.096,245.544 L180.096,249 L198.72,249 Z M245.952,249.576 C247.968,249.576 249.712,249.184 251.184,248.4 C252.656,247.616 253.872,246.48 254.832,244.992 C255.792,243.504 256.512,241.68 256.992,239.52 C257.472,237.36 257.712,234.92 257.712,232.2 C257.712,229.416 257.504,226.944 257.088,224.784 C256.672,222.624 256,220.808 255.072,219.336 C254.144,217.864 252.936,216.744 251.448,215.976 C249.96,215.208 248.144,214.824 246,214.824 C243.984,214.824 242.24,215.216 240.768,216 C239.296,216.784 238.08,217.92 237.12,219.408 C236.16,220.896 235.44,222.72 234.96,224.88 C234.48,227.04 234.24,229.48 234.24,232.2 C234.24,234.76 234.448,237.104 234.864,239.232 C235.28,241.36 235.96,243.192 236.904,244.728 C237.848,246.264 239.064,247.456 240.552,248.304 C242.04,249.152 243.84,249.576 245.952,249.576 Z M238.464,236.664 C238.4,235.96 238.344,235.24 238.296,234.504 C238.248,233.768 238.224,233 238.224,232.2 C238.224,227.464 238.808,223.92 239.976,221.568 C241.144,219.216 243.152,218.04 246,218.04 C247.824,218.04 249.272,218.552 250.344,219.576 C251.416,220.6 252.224,221.976 252.768,223.704 L252.768,223.704 L238.464,236.664 Z M245.952,246.36 C244.192,246.36 242.768,245.816 241.68,244.728 C240.592,243.64 239.776,242.184 239.232,240.36 L239.232,240.36 L253.488,227.352 C253.68,228.888 253.776,230.504 253.776,232.2 C253.776,236.968 253.176,240.52 251.976,242.856 C250.776,245.192 248.768,246.36 245.952,246.36 Z" id="001110" fill="#FFFFFF" fill-rule="nonzero"></path>
                <path d="M554.72,53 L554.72,49.544 L547.328,49.544 L547.328,19.4 L544.64,19.4 L534.08,26.936 L535.952,29.672 L543.632,24.296 L543.632,49.544 L536.096,49.544 L536.096,53 L554.72,53 Z M583.52,53 L583.52,49.544 L576.128,49.544 L576.128,19.4 L573.44,19.4 L562.88,26.936 L564.752,29.672 L572.432,24.296 L572.432,49.544 L564.896,49.544 L564.896,53 L583.52,53 Z M612.32,53 L612.32,49.544 L604.928,49.544 L604.928,19.4 L602.24,19.4 L591.68,26.936 L593.552,29.672 L601.232,24.296 L601.232,49.544 L593.696,49.544 L593.696,53 L612.32,53 Z M630.752,53.576 C632.768,53.576 634.512,53.184 635.984,52.4 C637.456,51.616 638.672,50.48 639.632,48.992 C640.592,47.504 641.312,45.68 641.792,43.52 C642.272,41.36 642.512,38.92 642.512,36.2 C642.512,33.416 642.304,30.944 641.888,28.784 C641.472,26.624 640.8,24.808 639.872,23.336 C638.944,21.864 637.736,20.744 636.248,19.976 C634.76,19.208 632.944,18.824 630.8,18.824 C628.784,18.824 627.04,19.216 625.568,20 C624.096,20.784 622.88,21.92 621.92,23.408 C620.96,24.896 620.24,26.72 619.76,28.88 C619.28,31.04 619.04,33.48 619.04,36.2 C619.04,38.76 619.248,41.104 619.664,43.232 C620.08,45.36 620.76,47.192 621.704,48.728 C622.648,50.264 623.864,51.456 625.352,52.304 C626.84,53.152 628.64,53.576 630.752,53.576 Z M623.264,40.664 C623.2,39.96 623.144,39.24 623.096,38.504 C623.048,37.768 623.024,37 623.024,36.2 C623.024,31.464 623.608,27.92 624.776,25.568 C625.944,23.216 627.952,22.04 630.8,22.04 C632.624,22.04 634.072,22.552 635.144,23.576 C636.216,24.6 637.024,25.976 637.568,27.704 L637.568,27.704 L623.264,40.664 Z M630.752,50.36 C628.992,50.36 627.568,49.816 626.48,48.728 C625.392,47.64 624.576,46.184 624.032,44.36 L624.032,44.36 L638.288,31.352 C638.48,32.888 638.576,34.504 638.576,36.2 C638.576,40.968 637.976,44.52 636.776,46.856 C635.576,49.192 633.568,50.36 630.752,50.36 Z" id="1110" fill="#FFFFFF" fill-rule="nonzero"></path>
                <path d="M658.72,157 L658.72,153.544 L651.328,153.544 L651.328,123.4 L648.64,123.4 L638.08,130.936 L639.952,133.672 L647.632,128.296 L647.632,153.544 L640.096,153.544 L640.096,157 L658.72,157 Z M687.52,157 L687.52,153.544 L680.128,153.544 L680.128,123.4 L677.44,123.4 L666.88,130.936 L668.752,133.672 L676.432,128.296 L676.432,153.544 L668.896,153.544 L668.896,157 L687.52,157 Z M716.32,157 L716.32,153.544 L708.928,153.544 L708.928,123.4 L706.24,123.4 L695.68,130.936 L697.552,133.672 L705.232,128.296 L705.232,153.544 L697.696,153.544 L697.696,157 L716.32,157 Z M734.752,157.576 C736.768,157.576 738.512,157.184 739.984,156.4 C741.456,155.616 742.672,154.48 743.632,152.992 C744.592,151.504 745.312,149.68 745.792,147.52 C746.272,145.36 746.512,142.92 746.512,140.2 C746.512,137.416 746.304,134.944 745.888,132.784 C745.472,130.624 744.8,128.808 743.872,127.336 C742.944,125.864 741.736,124.744 740.248,123.976 C738.76,123.208 736.944,122.824 734.8,122.824 C732.784,122.824 731.04,123.216 729.568,124 C728.096,124.784 726.88,125.92 725.92,127.408 C724.96,128.896 724.24,130.72 723.76,132.88 C723.28,135.04 723.04,137.48 723.04,140.2 C723.04,142.76 723.248,145.104 723.664,147.232 C724.08,149.36 724.76,151.192 725.704,152.728 C726.648,154.264 727.864,155.456 729.352,156.304 C730.84,157.152 732.64,157.576 734.752,157.576 Z M727.264,144.664 C727.2,143.96 727.144,143.24 727.096,142.504 C727.048,141.768 727.024,141 727.024,140.2 C727.024,135.464 727.608,131.92 728.776,129.568 C729.944,127.216 731.952,126.04 734.8,126.04 C736.624,126.04 738.072,126.552 739.144,127.576 C740.216,128.6 741.024,129.976 741.568,131.704 L741.568,131.704 L727.264,144.664 Z M734.752,154.36 C732.992,154.36 731.568,153.816 730.48,152.728 C729.392,151.64 728.576,150.184 728.032,148.36 L728.032,148.36 L742.288,135.352 C742.48,136.888 742.576,138.504 742.576,140.2 C742.576,144.968 741.976,148.52 740.776,150.856 C739.576,153.192 737.568,154.36 734.752,154.36 Z M792.352,157.576 C794.368,157.576 796.112,157.184 797.584,156.4 C799.056,155.616 800.272,154.48 801.232,152.992 C802.192,151.504 802.912,149.68 803.392,147.52 C803.872,145.36 804.112,142.92 804.112,140.2 C804.112,137.416 803.904,134.944 803.488,132.784 C803.072,130.624 802.4,128.808 801.472,127.336 C800.544,125.864 799.336,124.744 797.848,123.976 C796.36,123.208 794.544,122.824 792.4,122.824 C790.384,122.824 788.64,123.216 787.168,124 C785.696,124.784 784.48,125.92 783.52,127.408 C782.56,128.896 781.84,130.72 781.36,132.88 C780.88,135.04 780.64,137.48 780.64,140.2 C780.64,142.76 780.848,145.104 781.264,147.232 C781.68,149.36 782.36,151.192 783.304,152.728 C784.248,154.264 785.464,155.456 786.952,156.304 C788.44,157.152 790.24,157.576 792.352,157.576 Z M784.864,144.664 C784.8,143.96 784.744,143.24 784.696,142.504 C784.648,141.768 784.624,141 784.624,140.2 C784.624,135.464 785.208,131.92 786.376,129.568 C787.544,127.216 789.552,126.04 792.4,126.04 C794.224,126.04 795.672,126.552 796.744,127.576 C797.816,128.6 798.624,129.976 799.168,131.704 L799.168,131.704 L784.864,144.664 Z M792.352,154.36 C790.592,154.36 789.168,153.816 788.08,152.728 C786.992,151.64 786.176,150.184 785.632,148.36 L785.632,148.36 L799.888,135.352 C800.08,136.888 800.176,138.504 800.176,140.2 C800.176,144.968 799.576,148.52 798.376,150.856 C797.176,153.192 795.168,154.36 792.352,154.36 Z M831.52,157 L831.52,153.544 L824.128,153.544 L824.128,123.4 L821.44,123.4 L810.88,130.936 L812.752,133.672 L820.432,128.296 L820.432,153.544 L812.896,153.544 L812.896,157 L831.52,157 Z M849.952,157.576 C851.968,157.576 853.712,157.184 855.184,156.4 C856.656,155.616 857.872,154.48 858.832,152.992 C859.792,151.504 860.512,149.68 860.992,147.52 C861.472,145.36 861.712,142.92 861.712,140.2 C861.712,137.416 861.504,134.944 861.088,132.784 C860.672,130.624 860,128.808 859.072,127.336 C858.144,125.864 856.936,124.744 855.448,123.976 C853.96,123.208 852.144,122.824 850,122.824 C847.984,122.824 846.24,123.216 844.768,124 C843.296,124.784 842.08,125.92 841.12,127.408 C840.16,128.896 839.44,130.72 838.96,132.88 C838.48,135.04 838.24,137.48 838.24,140.2 C838.24,142.76 838.448,145.104 838.864,147.232 C839.28,149.36 839.96,151.192 840.904,152.728 C841.848,154.264 843.064,155.456 844.552,156.304 C846.04,157.152 847.84,157.576 849.952,157.576 Z M842.464,144.664 C842.4,143.96 842.344,143.24 842.296,142.504 C842.248,141.768 842.224,141 842.224,140.2 C842.224,135.464 842.808,131.92 843.976,129.568 C845.144,127.216 847.152,126.04 850,126.04 C851.824,126.04 853.272,126.552 854.344,127.576 C855.416,128.6 856.224,129.976 856.768,131.704 L856.768,131.704 L842.464,144.664 Z M849.952,154.36 C848.192,154.36 846.768,153.816 845.68,152.728 C844.592,151.64 843.776,150.184 843.232,148.36 L843.232,148.36 L857.488,135.352 C857.68,136.888 857.776,138.504 857.776,140.2 C857.776,144.968 857.176,148.52 855.976,150.856 C854.776,153.192 852.768,154.36 849.952,154.36 Z" id="1110010" fill="#FFFFFF" fill-rule="nonzero"></path>
                <path d="M613.72,307 L613.72,303.544 L606.328,303.544 L606.328,273.4 L603.64,273.4 L593.08,280.936 L594.952,283.672 L602.632,278.296 L602.632,303.544 L595.096,303.544 L595.096,307 L613.72,307 Z M642.52,307 L642.52,303.544 L635.128,303.544 L635.128,273.4 L632.44,273.4 L621.88,280.936 L623.752,283.672 L631.432,278.296 L631.432,303.544 L623.896,303.544 L623.896,307 L642.52,307 Z M671.32,307 L671.32,303.544 L663.928,303.544 L663.928,273.4 L661.24,273.4 L650.68,280.936 L652.552,283.672 L660.232,278.296 L660.232,303.544 L652.696,303.544 L652.696,307 L671.32,307 Z M689.752,307.576 C691.768,307.576 693.512,307.184 694.984,306.4 C696.456,305.616 697.672,304.48 698.632,302.992 C699.592,301.504 700.312,299.68 700.792,297.52 C701.272,295.36 701.512,292.92 701.512,290.2 C701.512,287.416 701.304,284.944 700.888,282.784 C700.472,280.624 699.8,278.808 698.872,277.336 C697.944,275.864 696.736,274.744 695.248,273.976 C693.76,273.208 691.944,272.824 689.8,272.824 C687.784,272.824 686.04,273.216 684.568,274 C683.096,274.784 681.88,275.92 680.92,277.408 C679.96,278.896 679.24,280.72 678.76,282.88 C678.28,285.04 678.04,287.48 678.04,290.2 C678.04,292.76 678.248,295.104 678.664,297.232 C679.08,299.36 679.76,301.192 680.704,302.728 C681.648,304.264 682.864,305.456 684.352,306.304 C685.84,307.152 687.64,307.576 689.752,307.576 Z M682.264,294.664 C682.2,293.96 682.144,293.24 682.096,292.504 C682.048,291.768 682.024,291 682.024,290.2 C682.024,285.464 682.608,281.92 683.776,279.568 C684.944,277.216 686.952,276.04 689.8,276.04 C691.624,276.04 693.072,276.552 694.144,277.576 C695.216,278.6 696.024,279.976 696.568,281.704 L696.568,281.704 L682.264,294.664 Z M689.752,304.36 C687.992,304.36 686.568,303.816 685.48,302.728 C684.392,301.64 683.576,300.184 683.032,298.36 L683.032,298.36 L697.288,285.352 C697.48,286.888 697.576,288.504 697.576,290.2 C697.576,294.968 696.976,298.52 695.776,300.856 C694.576,303.192 692.568,304.36 689.752,304.36 Z M747.352,307.576 C749.368,307.576 751.112,307.184 752.584,306.4 C754.056,305.616 755.272,304.48 756.232,302.992 C757.192,301.504 757.912,299.68 758.392,297.52 C758.872,295.36 759.112,292.92 759.112,290.2 C759.112,287.416 758.904,284.944 758.488,282.784 C758.072,280.624 757.4,278.808 756.472,277.336 C755.544,275.864 754.336,274.744 752.848,273.976 C751.36,273.208 749.544,272.824 747.4,272.824 C745.384,272.824 743.64,273.216 742.168,274 C740.696,274.784 739.48,275.92 738.52,277.408 C737.56,278.896 736.84,280.72 736.36,282.88 C735.88,285.04 735.64,287.48 735.64,290.2 C735.64,292.76 735.848,295.104 736.264,297.232 C736.68,299.36 737.36,301.192 738.304,302.728 C739.248,304.264 740.464,305.456 741.952,306.304 C743.44,307.152 745.24,307.576 747.352,307.576 Z M739.864,294.664 C739.8,293.96 739.744,293.24 739.696,292.504 C739.648,291.768 739.624,291 739.624,290.2 C739.624,285.464 740.208,281.92 741.376,279.568 C742.544,277.216 744.552,276.04 747.4,276.04 C749.224,276.04 750.672,276.552 751.744,277.576 C752.816,278.6 753.624,279.976 754.168,281.704 L754.168,281.704 L739.864,294.664 Z M747.352,304.36 C745.592,304.36 744.168,303.816 743.08,302.728 C741.992,301.64 741.176,300.184 740.632,298.36 L740.632,298.36 L754.888,285.352 C755.08,286.888 755.176,288.504 755.176,290.2 C755.176,294.968 754.576,298.52 753.376,300.856 C752.176,303.192 750.168,304.36 747.352,304.36 Z M786.52,307 L786.52,303.544 L779.128,303.544 L779.128,273.4 L776.44,273.4 L765.88,280.936 L767.752,283.672 L775.432,278.296 L775.432,303.544 L767.896,303.544 L767.896,307 L786.52,307 Z M804.952,307.576 C806.968,307.576 808.712,307.184 810.184,306.4 C811.656,305.616 812.872,304.48 813.832,302.992 C814.792,301.504 815.512,299.68 815.992,297.52 C816.472,295.36 816.712,292.92 816.712,290.2 C816.712,287.416 816.504,284.944 816.088,282.784 C815.672,280.624 815,278.808 814.072,277.336 C813.144,275.864 811.936,274.744 810.448,273.976 C808.96,273.208 807.144,272.824 805,272.824 C802.984,272.824 801.24,273.216 799.768,274 C798.296,274.784 797.08,275.92 796.12,277.408 C795.16,278.896 794.44,280.72 793.96,282.88 C793.48,285.04 793.24,287.48 793.24,290.2 C793.24,292.76 793.448,295.104 793.864,297.232 C794.28,299.36 794.96,301.192 795.904,302.728 C796.848,304.264 798.064,305.456 799.552,306.304 C801.04,307.152 802.84,307.576 804.952,307.576 Z M797.464,294.664 C797.4,293.96 797.344,293.24 797.296,292.504 C797.248,291.768 797.224,291 797.224,290.2 C797.224,285.464 797.808,281.92 798.976,279.568 C800.144,277.216 802.152,276.04 805,276.04 C806.824,276.04 808.272,276.552 809.344,277.576 C810.416,278.6 811.224,279.976 811.768,281.704 L811.768,281.704 L797.464,294.664 Z M804.952,304.36 C803.192,304.36 801.768,303.816 800.68,302.728 C799.592,301.64 798.776,300.184 798.232,298.36 L798.232,298.36 L812.488,285.352 C812.68,286.888 812.776,288.504 812.776,290.2 C812.776,294.968 812.176,298.52 810.976,300.856 C809.776,303.192 807.768,304.36 804.952,304.36 Z" id="1110010" fill="#FFFFFF" fill-rule="nonzero"></path>
                <path d="M593.72,463 L593.72,459.544 L586.328,459.544 L586.328,429.4 L583.64,429.4 L573.08,436.936 L574.952,439.672 L582.632,434.296 L582.632,459.544 L575.096,459.544 L575.096,463 L593.72,463 Z M612.152,463.576 C614.168,463.576 615.912,463.184 617.384,462.4 C618.856,461.616 620.072,460.48 621.032,458.992 C621.992,457.504 622.712,455.68 623.192,453.52 C623.672,451.36 623.912,448.92 623.912,446.2 C623.912,443.416 623.704,440.944 623.288,438.784 C622.872,436.624 622.2,434.808 621.272,433.336 C620.344,431.864 619.136,430.744 617.648,429.976 C616.16,429.208 614.344,428.824 612.2,428.824 C610.184,428.824 608.44,429.216 606.968,430 C605.496,430.784 604.28,431.92 603.32,433.408 C602.36,434.896 601.64,436.72 601.16,438.88 C600.68,441.04 600.44,443.48 600.44,446.2 C600.44,448.76 600.648,451.104 601.064,453.232 C601.48,455.36 602.16,457.192 603.104,458.728 C604.048,460.264 605.264,461.456 606.752,462.304 C608.24,463.152 610.04,463.576 612.152,463.576 Z M604.664,450.664 C604.6,449.96 604.544,449.24 604.496,448.504 C604.448,447.768 604.424,447 604.424,446.2 C604.424,441.464 605.008,437.92 606.176,435.568 C607.344,433.216 609.352,432.04 612.2,432.04 C614.024,432.04 615.472,432.552 616.544,433.576 C617.616,434.6 618.424,435.976 618.968,437.704 L618.968,437.704 L604.664,450.664 Z M612.152,460.36 C610.392,460.36 608.968,459.816 607.88,458.728 C606.792,457.64 605.976,456.184 605.432,454.36 L605.432,454.36 L619.688,441.352 C619.88,442.888 619.976,444.504 619.976,446.2 C619.976,450.968 619.376,454.52 618.176,456.856 C616.976,459.192 614.968,460.36 612.152,460.36 Z M640.952,463.576 C642.968,463.576 644.712,463.184 646.184,462.4 C647.656,461.616 648.872,460.48 649.832,458.992 C650.792,457.504 651.512,455.68 651.992,453.52 C652.472,451.36 652.712,448.92 652.712,446.2 C652.712,443.416 652.504,440.944 652.088,438.784 C651.672,436.624 651,434.808 650.072,433.336 C649.144,431.864 647.936,430.744 646.448,429.976 C644.96,429.208 643.144,428.824 641,428.824 C638.984,428.824 637.24,429.216 635.768,430 C634.296,430.784 633.08,431.92 632.12,433.408 C631.16,434.896 630.44,436.72 629.96,438.88 C629.48,441.04 629.24,443.48 629.24,446.2 C629.24,448.76 629.448,451.104 629.864,453.232 C630.28,455.36 630.96,457.192 631.904,458.728 C632.848,460.264 634.064,461.456 635.552,462.304 C637.04,463.152 638.84,463.576 640.952,463.576 Z M633.464,450.664 C633.4,449.96 633.344,449.24 633.296,448.504 C633.248,447.768 633.224,447 633.224,446.2 C633.224,441.464 633.808,437.92 634.976,435.568 C636.144,433.216 638.152,432.04 641,432.04 C642.824,432.04 644.272,432.552 645.344,433.576 C646.416,434.6 647.224,435.976 647.768,437.704 L647.768,437.704 L633.464,450.664 Z M640.952,460.36 C639.192,460.36 637.768,459.816 636.68,458.728 C635.592,457.64 634.776,456.184 634.232,454.36 L634.232,454.36 L648.488,441.352 C648.68,442.888 648.776,444.504 648.776,446.2 C648.776,450.968 648.176,454.52 646.976,456.856 C645.776,459.192 643.768,460.36 640.952,460.36 Z M680.12,463 L680.12,459.544 L672.728,459.544 L672.728,429.4 L670.04,429.4 L659.48,436.936 L661.352,439.672 L669.032,434.296 L669.032,459.544 L661.496,459.544 L661.496,463 L680.12,463 Z M698.552,463.576 C700.568,463.576 702.312,463.184 703.784,462.4 C705.256,461.616 706.472,460.48 707.432,458.992 C708.392,457.504 709.112,455.68 709.592,453.52 C710.072,451.36 710.312,448.92 710.312,446.2 C710.312,443.416 710.104,440.944 709.688,438.784 C709.272,436.624 708.6,434.808 707.672,433.336 C706.744,431.864 705.536,430.744 704.048,429.976 C702.56,429.208 700.744,428.824 698.6,428.824 C696.584,428.824 694.84,429.216 693.368,430 C691.896,430.784 690.68,431.92 689.72,433.408 C688.76,434.896 688.04,436.72 687.56,438.88 C687.08,441.04 686.84,443.48 686.84,446.2 C686.84,448.76 687.048,451.104 687.464,453.232 C687.88,455.36 688.56,457.192 689.504,458.728 C690.448,460.264 691.664,461.456 693.152,462.304 C694.64,463.152 696.44,463.576 698.552,463.576 Z M691.064,450.664 C691,449.96 690.944,449.24 690.896,448.504 C690.848,447.768 690.824,447 690.824,446.2 C690.824,441.464 691.408,437.92 692.576,435.568 C693.744,433.216 695.752,432.04 698.6,432.04 C700.424,432.04 701.872,432.552 702.944,433.576 C704.016,434.6 704.824,435.976 705.368,437.704 L705.368,437.704 L691.064,450.664 Z M698.552,460.36 C696.792,460.36 695.368,459.816 694.28,458.728 C693.192,457.64 692.376,456.184 691.832,454.36 L691.832,454.36 L706.088,441.352 C706.28,442.888 706.376,444.504 706.376,446.2 C706.376,450.968 705.776,454.52 704.576,456.856 C703.376,459.192 701.368,460.36 698.552,460.36 Z M756.152,463.576 C758.168,463.576 759.912,463.184 761.384,462.4 C762.856,461.616 764.072,460.48 765.032,458.992 C765.992,457.504 766.712,455.68 767.192,453.52 C767.672,451.36 767.912,448.92 767.912,446.2 C767.912,443.416 767.704,440.944 767.288,438.784 C766.872,436.624 766.2,434.808 765.272,433.336 C764.344,431.864 763.136,430.744 761.648,429.976 C760.16,429.208 758.344,428.824 756.2,428.824 C754.184,428.824 752.44,429.216 750.968,430 C749.496,430.784 748.28,431.92 747.32,433.408 C746.36,434.896 745.64,436.72 745.16,438.88 C744.68,441.04 744.44,443.48 744.44,446.2 C744.44,448.76 744.648,451.104 745.064,453.232 C745.48,455.36 746.16,457.192 747.104,458.728 C748.048,460.264 749.264,461.456 750.752,462.304 C752.24,463.152 754.04,463.576 756.152,463.576 Z M748.664,450.664 C748.6,449.96 748.544,449.24 748.496,448.504 C748.448,447.768 748.424,447 748.424,446.2 C748.424,441.464 749.008,437.92 750.176,435.568 C751.344,433.216 753.352,432.04 756.2,432.04 C758.024,432.04 759.472,432.552 760.544,433.576 C761.616,434.6 762.424,435.976 762.968,437.704 L762.968,437.704 L748.664,450.664 Z M756.152,460.36 C754.392,460.36 752.968,459.816 751.88,458.728 C750.792,457.64 749.976,456.184 749.432,454.36 L749.432,454.36 L763.688,441.352 C763.88,442.888 763.976,444.504 763.976,446.2 C763.976,450.968 763.376,454.52 762.176,456.856 C760.976,459.192 758.968,460.36 756.152,460.36 Z M824.12,463 L824.12,459.544 L816.728,459.544 L816.728,429.4 L814.04,429.4 L803.48,436.936 L805.352,439.672 L813.032,434.296 L813.032,459.544 L805.496,459.544 L805.496,463 L824.12,463 Z M842.552,463.576 C844.568,463.576 846.312,463.184 847.784,462.4 C849.256,461.616 850.472,460.48 851.432,458.992 C852.392,457.504 853.112,455.68 853.592,453.52 C854.072,451.36 854.312,448.92 854.312,446.2 C854.312,443.416 854.104,440.944 853.688,438.784 C853.272,436.624 852.6,434.808 851.672,433.336 C850.744,431.864 849.536,430.744 848.048,429.976 C846.56,429.208 844.744,428.824 842.6,428.824 C840.584,428.824 838.84,429.216 837.368,430 C835.896,430.784 834.68,431.92 833.72,433.408 C832.76,434.896 832.04,436.72 831.56,438.88 C831.08,441.04 830.84,443.48 830.84,446.2 C830.84,448.76 831.048,451.104 831.464,453.232 C831.88,455.36 832.56,457.192 833.504,458.728 C834.448,460.264 835.664,461.456 837.152,462.304 C838.64,463.152 840.44,463.576 842.552,463.576 Z M835.064,450.664 C835,449.96 834.944,449.24 834.896,448.504 C834.848,447.768 834.824,447 834.824,446.2 C834.824,441.464 835.408,437.92 836.576,435.568 C837.744,433.216 839.752,432.04 842.6,432.04 C844.424,432.04 845.872,432.552 846.944,433.576 C848.016,434.6 848.824,435.976 849.368,437.704 L849.368,437.704 L835.064,450.664 Z M842.552,460.36 C840.792,460.36 839.368,459.816 838.28,458.728 C837.192,457.64 836.376,456.184 835.832,454.36 L835.832,454.36 L850.088,441.352 C850.28,442.888 850.376,444.504 850.376,446.2 C850.376,450.968 849.776,454.52 848.576,456.856 C847.376,459.192 845.368,460.36 842.552,460.36 Z" id="10010010" fill="#FFFFFF" fill-rule="nonzero"></path>
                <path d="M116.352,428.576 C118.368,428.576 120.112,428.184 121.584,427.4 C123.056,426.616 124.272,425.48 125.232,423.992 C126.192,422.504 126.912,420.68 127.392,418.52 C127.872,416.36 128.112,413.92 128.112,411.2 C128.112,408.416 127.904,405.944 127.488,403.784 C127.072,401.624 126.4,399.808 125.472,398.336 C124.544,396.864 123.336,395.744 121.848,394.976 C120.36,394.208 118.544,393.824 116.4,393.824 C114.384,393.824 112.64,394.216 111.168,395 C109.696,395.784 108.48,396.92 107.52,398.408 C106.56,399.896 105.84,401.72 105.36,403.88 C104.88,406.04 104.64,408.48 104.64,411.2 C104.64,413.76 104.848,416.104 105.264,418.232 C105.68,420.36 106.36,422.192 107.304,423.728 C108.248,425.264 109.464,426.456 110.952,427.304 C112.44,428.152 114.24,428.576 116.352,428.576 Z M108.864,415.664 C108.8,414.96 108.744,414.24 108.696,413.504 C108.648,412.768 108.624,412 108.624,411.2 C108.624,406.464 109.208,402.92 110.376,400.568 C111.544,398.216 113.552,397.04 116.4,397.04 C118.224,397.04 119.672,397.552 120.744,398.576 C121.816,399.6 122.624,400.976 123.168,402.704 L123.168,402.704 L108.864,415.664 Z M116.352,425.36 C114.592,425.36 113.168,424.816 112.08,423.728 C110.992,422.64 110.176,421.184 109.632,419.36 L109.632,419.36 L123.888,406.352 C124.08,407.888 124.176,409.504 124.176,411.2 C124.176,415.968 123.576,419.52 122.376,421.856 C121.176,424.192 119.168,425.36 116.352,425.36 Z M145.152,428.576 C147.168,428.576 148.912,428.184 150.384,427.4 C151.856,426.616 153.072,425.48 154.032,423.992 C154.992,422.504 155.712,420.68 156.192,418.52 C156.672,416.36 156.912,413.92 156.912,411.2 C156.912,408.416 156.704,405.944 156.288,403.784 C155.872,401.624 155.2,399.808 154.272,398.336 C153.344,396.864 152.136,395.744 150.648,394.976 C149.16,394.208 147.344,393.824 145.2,393.824 C143.184,393.824 141.44,394.216 139.968,395 C138.496,395.784 137.28,396.92 136.32,398.408 C135.36,399.896 134.64,401.72 134.16,403.88 C133.68,406.04 133.44,408.48 133.44,411.2 C133.44,413.76 133.648,416.104 134.064,418.232 C134.48,420.36 135.16,422.192 136.104,423.728 C137.048,425.264 138.264,426.456 139.752,427.304 C141.24,428.152 143.04,428.576 145.152,428.576 Z M137.664,415.664 C137.6,414.96 137.544,414.24 137.496,413.504 C137.448,412.768 137.424,412 137.424,411.2 C137.424,406.464 138.008,402.92 139.176,400.568 C140.344,398.216 142.352,397.04 145.2,397.04 C147.024,397.04 148.472,397.552 149.544,398.576 C150.616,399.6 151.424,400.976 151.968,402.704 L151.968,402.704 L137.664,415.664 Z M145.152,425.36 C143.392,425.36 141.968,424.816 140.88,423.728 C139.792,422.64 138.976,421.184 138.432,419.36 L138.432,419.36 L152.688,406.352 C152.88,407.888 152.976,409.504 152.976,411.2 C152.976,415.968 152.376,419.52 151.176,421.856 C149.976,424.192 147.968,425.36 145.152,425.36 Z M213.12,428 L213.12,424.544 L205.728,424.544 L205.728,394.4 L203.04,394.4 L192.48,401.936 L194.352,404.672 L202.032,399.296 L202.032,424.544 L194.496,424.544 L194.496,428 L213.12,428 Z M231.552,428.576 C233.568,428.576 235.312,428.184 236.784,427.4 C238.256,426.616 239.472,425.48 240.432,423.992 C241.392,422.504 242.112,420.68 242.592,418.52 C243.072,416.36 243.312,413.92 243.312,411.2 C243.312,408.416 243.104,405.944 242.688,403.784 C242.272,401.624 241.6,399.808 240.672,398.336 C239.744,396.864 238.536,395.744 237.048,394.976 C235.56,394.208 233.744,393.824 231.6,393.824 C229.584,393.824 227.84,394.216 226.368,395 C224.896,395.784 223.68,396.92 222.72,398.408 C221.76,399.896 221.04,401.72 220.56,403.88 C220.08,406.04 219.84,408.48 219.84,411.2 C219.84,413.76 220.048,416.104 220.464,418.232 C220.88,420.36 221.56,422.192 222.504,423.728 C223.448,425.264 224.664,426.456 226.152,427.304 C227.64,428.152 229.44,428.576 231.552,428.576 Z M224.064,415.664 C224,414.96 223.944,414.24 223.896,413.504 C223.848,412.768 223.824,412 223.824,411.2 C223.824,406.464 224.408,402.92 225.576,400.568 C226.744,398.216 228.752,397.04 231.6,397.04 C233.424,397.04 234.872,397.552 235.944,398.576 C237.016,399.6 237.824,400.976 238.368,402.704 L238.368,402.704 L224.064,415.664 Z M231.552,425.36 C229.792,425.36 228.368,424.816 227.28,423.728 C226.192,422.64 225.376,421.184 224.832,419.36 L224.832,419.36 L239.088,406.352 C239.28,407.888 239.376,409.504 239.376,411.2 C239.376,415.968 238.776,419.52 237.576,421.856 C236.376,424.192 234.368,425.36 231.552,425.36 Z M260.352,428.576 C262.368,428.576 264.112,428.184 265.584,427.4 C267.056,426.616 268.272,425.48 269.232,423.992 C270.192,422.504 270.912,420.68 271.392,418.52 C271.872,416.36 272.112,413.92 272.112,411.2 C272.112,408.416 271.904,405.944 271.488,403.784 C271.072,401.624 270.4,399.808 269.472,398.336 C268.544,396.864 267.336,395.744 265.848,394.976 C264.36,394.208 262.544,393.824 260.4,393.824 C258.384,393.824 256.64,394.216 255.168,395 C253.696,395.784 252.48,396.92 251.52,398.408 C250.56,399.896 249.84,401.72 249.36,403.88 C248.88,406.04 248.64,408.48 248.64,411.2 C248.64,413.76 248.848,416.104 249.264,418.232 C249.68,420.36 250.36,422.192 251.304,423.728 C252.248,425.264 253.464,426.456 254.952,427.304 C256.44,428.152 258.24,428.576 260.352,428.576 Z M252.864,415.664 C252.8,414.96 252.744,414.24 252.696,413.504 C252.648,412.768 252.624,412 252.624,411.2 C252.624,406.464 253.208,402.92 254.376,400.568 C255.544,398.216 257.552,397.04 260.4,397.04 C262.224,397.04 263.672,397.552 264.744,398.576 C265.816,399.6 266.624,400.976 267.168,402.704 L267.168,402.704 L252.864,415.664 Z M260.352,425.36 C258.592,425.36 257.168,424.816 256.08,423.728 C254.992,422.64 254.176,421.184 253.632,419.36 L253.632,419.36 L267.888,406.352 C268.08,407.888 268.176,409.504 268.176,411.2 C268.176,415.968 267.576,419.52 266.376,421.856 C265.176,424.192 263.168,425.36 260.352,425.36 Z M299.52,428 L299.52,424.544 L292.128,424.544 L292.128,394.4 L289.44,394.4 L278.88,401.936 L280.752,404.672 L288.432,399.296 L288.432,424.544 L280.896,424.544 L280.896,428 L299.52,428 Z M317.952,428.576 C319.968,428.576 321.712,428.184 323.184,427.4 C324.656,426.616 325.872,425.48 326.832,423.992 C327.792,422.504 328.512,420.68 328.992,418.52 C329.472,416.36 329.712,413.92 329.712,411.2 C329.712,408.416 329.504,405.944 329.088,403.784 C328.672,401.624 328,399.808 327.072,398.336 C326.144,396.864 324.936,395.744 323.448,394.976 C321.96,394.208 320.144,393.824 318,393.824 C315.984,393.824 314.24,394.216 312.768,395 C311.296,395.784 310.08,396.92 309.12,398.408 C308.16,399.896 307.44,401.72 306.96,403.88 C306.48,406.04 306.24,408.48 306.24,411.2 C306.24,413.76 306.448,416.104 306.864,418.232 C307.28,420.36 307.96,422.192 308.904,423.728 C309.848,425.264 311.064,426.456 312.552,427.304 C314.04,428.152 315.84,428.576 317.952,428.576 Z M310.464,415.664 C310.4,414.96 310.344,414.24 310.296,413.504 C310.248,412.768 310.224,412 310.224,411.2 C310.224,406.464 310.808,402.92 311.976,400.568 C313.144,398.216 315.152,397.04 318,397.04 C319.824,397.04 321.272,397.552 322.344,398.576 C323.416,399.6 324.224,400.976 324.768,402.704 L324.768,402.704 L310.464,415.664 Z M317.952,425.36 C316.192,425.36 314.768,424.816 313.68,423.728 C312.592,422.64 311.776,421.184 311.232,419.36 L311.232,419.36 L325.488,406.352 C325.68,407.888 325.776,409.504 325.776,411.2 C325.776,415.968 325.176,419.52 323.976,421.856 C322.776,424.192 320.768,425.36 317.952,425.36 Z" id="0010010" fill="#FFFFFF" fill-rule="nonzero"></path>
                <path d="M681.488281,150.917969 L681.472656,150.519531 C681.25,145.601562 681.101562,140.398438 681.011719,134.609375 C680.59375,106.378906 658.152344,83.027344 629.917969,81.449219 C571.050781,78.164062 525.511719,58.96875 486.601562,21.042969 L486.269531,20.726562 C473.578125,9.089844 454.433594,9.089844 441.738281,20.726562 L441.40625,21.042969 C402.496094,58.96875 356.957031,78.164062 298.089844,81.453125 C269.859375,83.027344 247.414062,106.378906 246.996094,134.613281 C246.910156,140.363281 246.757812,145.566406 246.535156,150.519531 L246.511719,151.445312 C245.367188,211.472656 243.945312,286.179688 268.9375,353.988281 C282.679688,391.277344 303.492188,423.691406 330.792969,450.335938 C361.886719,480.679688 402.613281,504.769531 451.839844,521.933594 C453.441406,522.492188 455.105469,522.945312 456.800781,523.285156 C459.191406,523.761719 461.597656,524 464.003906,524 C466.410156,524 468.820312,523.761719 471.207031,523.285156 C472.902344,522.945312 474.578125,522.488281 476.1875,521.925781 C525.355469,504.730469 566.039062,480.628906 597.105469,450.289062 C624.394531,423.636719 645.207031,391.214844 658.960938,353.917969 C684.046875,285.90625 682.628906,211.058594 681.488281,150.917969 Z" id="Path" fill="url(#linearGradient-1)"></path>
                <g id="002-lock" transform="translate(379.000000, 156.000000)" fill="#FFFFFF" fill-rule="nonzero">
                    <path d="M149.5,74.6665 L138.8335,74.6665 L138.8335,53.333 C138.8335,23.8935 114.94,0 85.5,0 C56.06,0 32.1665,23.8935 32.1665,53.3335 L32.1665,74.667 L21.5,74.667 C9.7135,74.667 0.1665,84.2135 0.1665,96.0005 L0.1665,202.667 C0.1665,214.4535 9.7135,224 21.5,224 L149.5,224 C161.2865,224 170.8335,214.4535 170.8335,202.6665 L170.8335,96 C170.8335,84.2135 161.2865,74.6665 149.5,74.6665 Z M85.5,170.6665 C73.7135,170.6665 64.1665,161.12 64.1665,149.333 C64.1665,137.5465 73.7135,128 85.5,128 C97.2865,128 106.8335,137.5465 106.8335,149.3335 C106.8335,161.12 97.2865,170.6665 85.5,170.6665 Z M118.5665,74.6665 L52.4335,74.6665 L52.4335,53.333 C52.4335,35.093 67.26,20.2665 85.5,20.2665 C103.74,20.2665 118.5665,35.093 118.5665,53.333 L118.5665,74.6665 Z" id="Shape"></path>
                </g>
            </g>
        </g>
    </g>
</svg>